<?xml version="1.0" encoding="utf-8" standalone="no"?>
<!DOCTYPE svg PUBLIC "-//W3C//DTD SVG 1.1//EN"
  "http://www.w3.org/Graphics/SVG/1.1/DTD/svg11.dtd">
<svg height="504pt" version="1.1" viewBox="0 0 792 504" width="792pt" xmlns="http://www.w3.org/2000/svg" xmlns:xlink="http://www.w3.org/1999/xlink">
 <metadata>
  <rdf:RDF xmlns:cc="http://creativecommons.org/ns#" xmlns:dc="http://purl.org/dc/elements/1.1/" xmlns:rdf="http://www.w3.org/1999/02/22-rdf-syntax-ns#">
   <cc:Work>
    <dc:type rdf:resource="http://purl.org/dc/dcmitype/StillImage"/>
    <dc:date>2022-03-16T21:48:45.032350</dc:date>
    <dc:format>image/svg+xml</dc:format>
    <dc:creator>
     <cc:Agent>
      <dc:title>Matplotlib v3.4.3, https://matplotlib.org/</dc:title>
     </cc:Agent>
    </dc:creator>
   </cc:Work>
  </rdf:RDF>
 </metadata>
 <defs>
  <style type="text/css">*{stroke-linecap:butt;stroke-linejoin:round;}</style>
 </defs>
 <g id="figure_1">
  <g id="patch_1">
   <path d="M 0 504 
L 792 504 
L 792 0 
L 0 0 
z
" style="fill:none;"/>
  </g>
  <g id="axes_1">
   <g id="patch_2">
    <path d="M 99 441 
L 712.8 441 
L 712.8 60.48 
L 99 60.48 
z
" style="fill:#ffffff;"/>
   </g>
   <g id="PathCollection_1">
    <defs>
     <path d="M 0 3 
C 0.795609 3 1.55874 2.683901 2.12132 2.12132 
C 2.683901 1.55874 3 0.795609 3 0 
C 3 -0.795609 2.683901 -1.55874 2.12132 -2.12132 
C 1.55874 -2.683901 0.795609 -3 0 -3 
C -0.795609 -3 -1.55874 -2.683901 -2.12132 -2.12132 
C -2.683901 -1.55874 -3 -0.795609 -3 0 
C -3 0.795609 -2.683901 1.55874 -2.12132 2.12132 
C -1.55874 2.683901 -0.795609 3 0 3 
z
" id="mc7f7ff58d4" style="stroke:#1f77b4;"/>
    </defs>
    <g clip-path="url(#p36f475019f)">
     <use style="fill:#1f77b4;stroke:#1f77b4;" x="126.9" xlink:href="#mc7f7ff58d4" y="423.703636"/>
     <use style="fill:#1f77b4;stroke:#1f77b4;" x="129.932609" xlink:href="#mc7f7ff58d4" y="394.21614"/>
     <use style="fill:#1f77b4;stroke:#1f77b4;" x="132.965217" xlink:href="#mc7f7ff58d4" y="367.320048"/>
     <use style="fill:#1f77b4;stroke:#1f77b4;" x="135.997826" xlink:href="#mc7f7ff58d4" y="342.770435"/>
     <use style="fill:#1f77b4;stroke:#1f77b4;" x="139.030435" xlink:href="#mc7f7ff58d4" y="320.348722"/>
     <use style="fill:#1f77b4;stroke:#1f77b4;" x="142.063043" xlink:href="#mc7f7ff58d4" y="299.859566"/>
     <use style="fill:#1f77b4;stroke:#1f77b4;" x="145.095652" xlink:href="#mc7f7ff58d4" y="281.12796"/>
     <use style="fill:#1f77b4;stroke:#1f77b4;" x="148.128261" xlink:href="#mc7f7ff58d4" y="263.996493"/>
     <use style="fill:#1f77b4;stroke:#1f77b4;" x="151.16087" xlink:href="#mc7f7ff58d4" y="248.323288"/>
     <use style="fill:#1f77b4;stroke:#1f77b4;" x="154.193478" xlink:href="#mc7f7ff58d4" y="233.980281"/>
     <use style="fill:#1f77b4;stroke:#1f77b4;" x="157.226087" xlink:href="#mc7f7ff58d4" y="220.851736"/>
     <use style="fill:#1f77b4;stroke:#1f77b4;" x="160.258696" xlink:href="#mc7f7ff58d4" y="208.832645"/>
     <use style="fill:#1f77b4;stroke:#1f77b4;" x="163.291304" xlink:href="#mc7f7ff58d4" y="197.827835"/>
     <use style="fill:#1f77b4;stroke:#1f77b4;" x="166.323913" xlink:href="#mc7f7ff58d4" y="187.750834"/>
     <use style="fill:#1f77b4;stroke:#1f77b4;" x="169.356522" xlink:href="#mc7f7ff58d4" y="178.522933"/>
     <use style="fill:#1f77b4;stroke:#1f77b4;" x="172.38913" xlink:href="#mc7f7ff58d4" y="170.07247"/>
     <use style="fill:#1f77b4;stroke:#1f77b4;" x="175.421739" xlink:href="#mc7f7ff58d4" y="162.334071"/>
     <use style="fill:#1f77b4;stroke:#1f77b4;" x="178.454348" xlink:href="#mc7f7ff58d4" y="155.24805"/>
     <use style="fill:#1f77b4;stroke:#1f77b4;" x="181.486957" xlink:href="#mc7f7ff58d4" y="148.759843"/>
     <use style="fill:#1f77b4;stroke:#1f77b4;" x="184.519565" xlink:href="#mc7f7ff58d4" y="142.819575"/>
     <use style="fill:#1f77b4;stroke:#1f77b4;" x="187.552174" xlink:href="#mc7f7ff58d4" y="137.381607"/>
     <use style="fill:#1f77b4;stroke:#1f77b4;" x="190.584783" xlink:href="#mc7f7ff58d4" y="132.404139"/>
     <use style="fill:#1f77b4;stroke:#1f77b4;" x="193.617391" xlink:href="#mc7f7ff58d4" y="127.848898"/>
     <use style="fill:#1f77b4;stroke:#1f77b4;" x="196.65" xlink:href="#mc7f7ff58d4" y="123.680803"/>
     <use style="fill:#1f77b4;stroke:#1f77b4;" x="199.682609" xlink:href="#mc7f7ff58d4" y="119.867676"/>
     <use style="fill:#1f77b4;stroke:#1f77b4;" x="202.715217" xlink:href="#mc7f7ff58d4" y="116.380009"/>
     <use style="fill:#1f77b4;stroke:#1f77b4;" x="205.747826" xlink:href="#mc7f7ff58d4" y="113.190732"/>
     <use style="fill:#1f77b4;stroke:#1f77b4;" x="208.780435" xlink:href="#mc7f7ff58d4" y="110.274994"/>
     <use style="fill:#1f77b4;stroke:#1f77b4;" x="211.813043" xlink:href="#mc7f7ff58d4" y="107.609993"/>
     <use style="fill:#1f77b4;stroke:#1f77b4;" x="214.845652" xlink:href="#mc7f7ff58d4" y="105.1748"/>
     <use style="fill:#1f77b4;stroke:#1f77b4;" x="217.878261" xlink:href="#mc7f7ff58d4" y="102.950195"/>
     <use style="fill:#1f77b4;stroke:#1f77b4;" x="220.91087" xlink:href="#mc7f7ff58d4" y="100.918535"/>
     <use style="fill:#1f77b4;stroke:#1f77b4;" x="223.943478" xlink:href="#mc7f7ff58d4" y="99.063621"/>
     <use style="fill:#1f77b4;stroke:#1f77b4;" x="226.976087" xlink:href="#mc7f7ff58d4" y="97.370583"/>
     <use style="fill:#1f77b4;stroke:#1f77b4;" x="230.008696" xlink:href="#mc7f7ff58d4" y="95.825762"/>
     <use style="fill:#1f77b4;stroke:#1f77b4;" x="233.041304" xlink:href="#mc7f7ff58d4" y="94.416626"/>
     <use style="fill:#1f77b4;stroke:#1f77b4;" x="236.073913" xlink:href="#mc7f7ff58d4" y="93.131672"/>
     <use style="fill:#1f77b4;stroke:#1f77b4;" x="239.106522" xlink:href="#mc7f7ff58d4" y="91.960336"/>
     <use style="fill:#1f77b4;stroke:#1f77b4;" x="242.13913" xlink:href="#mc7f7ff58d4" y="90.89293"/>
     <use style="fill:#1f77b4;stroke:#1f77b4;" x="245.171739" xlink:href="#mc7f7ff58d4" y="89.920565"/>
     <use style="fill:#1f77b4;stroke:#1f77b4;" x="248.204348" xlink:href="#mc7f7ff58d4" y="89.035082"/>
     <use style="fill:#1f77b4;stroke:#1f77b4;" x="251.236957" xlink:href="#mc7f7ff58d4" y="88.229003"/>
     <use style="fill:#1f77b4;stroke:#1f77b4;" x="254.269565" xlink:href="#mc7f7ff58d4" y="87.49547"/>
     <use style="fill:#1f77b4;stroke:#1f77b4;" x="257.302174" xlink:href="#mc7f7ff58d4" y="86.828195"/>
     <use style="fill:#1f77b4;stroke:#1f77b4;" x="260.334783" xlink:href="#mc7f7ff58d4" y="86.221414"/>
     <use style="fill:#1f77b4;stroke:#1f77b4;" x="263.367391" xlink:href="#mc7f7ff58d4" y="85.66985"/>
     <use style="fill:#1f77b4;stroke:#1f77b4;" x="266.4" xlink:href="#mc7f7ff58d4" y="85.168664"/>
     <use style="fill:#1f77b4;stroke:#1f77b4;" x="269.432609" xlink:href="#mc7f7ff58d4" y="84.713428"/>
     <use style="fill:#1f77b4;stroke:#1f77b4;" x="272.465217" xlink:href="#mc7f7ff58d4" y="84.300089"/>
     <use style="fill:#1f77b4;stroke:#1f77b4;" x="275.497826" xlink:href="#mc7f7ff58d4" y="83.924935"/>
     <use style="fill:#1f77b4;stroke:#1f77b4;" x="278.530435" xlink:href="#mc7f7ff58d4" y="83.584573"/>
     <use style="fill:#1f77b4;stroke:#1f77b4;" x="281.563043" xlink:href="#mc7f7ff58d4" y="83.275897"/>
     <use style="fill:#1f77b4;stroke:#1f77b4;" x="284.595652" xlink:href="#mc7f7ff58d4" y="82.996069"/>
     <use style="fill:#1f77b4;stroke:#1f77b4;" x="287.628261" xlink:href="#mc7f7ff58d4" y="82.742496"/>
     <use style="fill:#1f77b4;stroke:#1f77b4;" x="290.66087" xlink:href="#mc7f7ff58d4" y="82.512806"/>
     <use style="fill:#1f77b4;stroke:#1f77b4;" x="293.693478" xlink:href="#mc7f7ff58d4" y="82.304836"/>
     <use style="fill:#1f77b4;stroke:#1f77b4;" x="296.726087" xlink:href="#mc7f7ff58d4" y="82.11661"/>
     <use style="fill:#1f77b4;stroke:#1f77b4;" x="299.758696" xlink:href="#mc7f7ff58d4" y="81.946322"/>
     <use style="fill:#1f77b4;stroke:#1f77b4;" x="302.791304" xlink:href="#mc7f7ff58d4" y="81.792329"/>
     <use style="fill:#1f77b4;stroke:#1f77b4;" x="305.823913" xlink:href="#mc7f7ff58d4" y="81.65313"/>
     <use style="fill:#1f77b4;stroke:#1f77b4;" x="308.856522" xlink:href="#mc7f7ff58d4" y="81.527357"/>
     <use style="fill:#1f77b4;stroke:#1f77b4;" x="311.88913" xlink:href="#mc7f7ff58d4" y="81.413763"/>
     <use style="fill:#1f77b4;stroke:#1f77b4;" x="314.921739" xlink:href="#mc7f7ff58d4" y="81.311213"/>
     <use style="fill:#1f77b4;stroke:#1f77b4;" x="317.954348" xlink:href="#mc7f7ff58d4" y="81.218674"/>
     <use style="fill:#1f77b4;stroke:#1f77b4;" x="320.986957" xlink:href="#mc7f7ff58d4" y="81.135205"/>
     <use style="fill:#1f77b4;stroke:#1f77b4;" x="324.019565" xlink:href="#mc7f7ff58d4" y="81.05995"/>
     <use style="fill:#1f77b4;stroke:#1f77b4;" x="327.052174" xlink:href="#mc7f7ff58d4" y="80.99213"/>
     <use style="fill:#1f77b4;stroke:#1f77b4;" x="330.084783" xlink:href="#mc7f7ff58d4" y="80.931038"/>
     <use style="fill:#1f77b4;stroke:#1f77b4;" x="333.117391" xlink:href="#mc7f7ff58d4" y="80.876032"/>
     <use style="fill:#1f77b4;stroke:#1f77b4;" x="336.15" xlink:href="#mc7f7ff58d4" y="80.826527"/>
     <use style="fill:#1f77b4;stroke:#1f77b4;" x="339.182609" xlink:href="#mc7f7ff58d4" y="80.781993"/>
     <use style="fill:#1f77b4;stroke:#1f77b4;" x="342.215217" xlink:href="#mc7f7ff58d4" y="80.741949"/>
     <use style="fill:#1f77b4;stroke:#1f77b4;" x="345.247826" xlink:href="#mc7f7ff58d4" y="80.70596"/>
     <use style="fill:#1f77b4;stroke:#1f77b4;" x="348.280435" xlink:href="#mc7f7ff58d4" y="80.67363"/>
     <use style="fill:#1f77b4;stroke:#1f77b4;" x="351.313043" xlink:href="#mc7f7ff58d4" y="80.644599"/>
     <use style="fill:#1f77b4;stroke:#1f77b4;" x="354.345652" xlink:href="#mc7f7ff58d4" y="80.618544"/>
     <use style="fill:#1f77b4;stroke:#1f77b4;" x="357.378261" xlink:href="#mc7f7ff58d4" y="80.595171"/>
     <use style="fill:#1f77b4;stroke:#1f77b4;" x="360.41087" xlink:href="#mc7f7ff58d4" y="80.574213"/>
     <use style="fill:#1f77b4;stroke:#1f77b4;" x="363.443478" xlink:href="#mc7f7ff58d4" y="80.55543"/>
     <use style="fill:#1f77b4;stroke:#1f77b4;" x="366.476087" xlink:href="#mc7f7ff58d4" y="80.538603"/>
     <use style="fill:#1f77b4;stroke:#1f77b4;" x="369.508696" xlink:href="#mc7f7ff58d4" y="80.523538"/>
     <use style="fill:#1f77b4;stroke:#1f77b4;" x="372.541304" xlink:href="#mc7f7ff58d4" y="80.510055"/>
     <use style="fill:#1f77b4;stroke:#1f77b4;" x="375.573913" xlink:href="#mc7f7ff58d4" y="80.497995"/>
     <use style="fill:#1f77b4;stroke:#1f77b4;" x="378.606522" xlink:href="#mc7f7ff58d4" y="80.487211"/>
     <use style="fill:#1f77b4;stroke:#1f77b4;" x="381.63913" xlink:href="#mc7f7ff58d4" y="80.477575"/>
     <use style="fill:#1f77b4;stroke:#1f77b4;" x="384.671739" xlink:href="#mc7f7ff58d4" y="80.468969"/>
     <use style="fill:#1f77b4;stroke:#1f77b4;" x="387.704348" xlink:href="#mc7f7ff58d4" y="80.461286"/>
     <use style="fill:#1f77b4;stroke:#1f77b4;" x="390.736957" xlink:href="#mc7f7ff58d4" y="80.454431"/>
     <use style="fill:#1f77b4;stroke:#1f77b4;" x="393.769565" xlink:href="#mc7f7ff58d4" y="80.448315"/>
     <use style="fill:#1f77b4;stroke:#1f77b4;" x="396.802174" xlink:href="#mc7f7ff58d4" y="80.442864"/>
     <use style="fill:#1f77b4;stroke:#1f77b4;" x="399.834783" xlink:href="#mc7f7ff58d4" y="80.438009"/>
     <use style="fill:#1f77b4;stroke:#1f77b4;" x="402.867391" xlink:href="#mc7f7ff58d4" y="80.433684"/>
     <use style="fill:#1f77b4;stroke:#1f77b4;" x="405.9" xlink:href="#mc7f7ff58d4" y="80.429834"/>
     <use style="fill:#1f77b4;stroke:#1f77b4;" x="408.932609" xlink:href="#mc7f7ff58d4" y="80.426414"/>
     <use style="fill:#1f77b4;stroke:#1f77b4;" x="411.965217" xlink:href="#mc7f7ff58d4" y="80.423371"/>
     <use style="fill:#1f77b4;stroke:#1f77b4;" x="414.997826" xlink:href="#mc7f7ff58d4" y="80.420667"/>
     <use style="fill:#1f77b4;stroke:#1f77b4;" x="418.030435" xlink:href="#mc7f7ff58d4" y="80.418264"/>
     <use style="fill:#1f77b4;stroke:#1f77b4;" x="421.063043" xlink:href="#mc7f7ff58d4" y="80.416131"/>
     <use style="fill:#1f77b4;stroke:#1f77b4;" x="424.095652" xlink:href="#mc7f7ff58d4" y="80.414239"/>
     <use style="fill:#1f77b4;stroke:#1f77b4;" x="427.128261" xlink:href="#mc7f7ff58d4" y="80.412561"/>
     <use style="fill:#1f77b4;stroke:#1f77b4;" x="430.16087" xlink:href="#mc7f7ff58d4" y="80.411074"/>
     <use style="fill:#1f77b4;stroke:#1f77b4;" x="433.193478" xlink:href="#mc7f7ff58d4" y="80.409757"/>
     <use style="fill:#1f77b4;stroke:#1f77b4;" x="436.226087" xlink:href="#mc7f7ff58d4" y="80.40859"/>
     <use style="fill:#1f77b4;stroke:#1f77b4;" x="439.258696" xlink:href="#mc7f7ff58d4" y="80.407559"/>
     <use style="fill:#1f77b4;stroke:#1f77b4;" x="442.291304" xlink:href="#mc7f7ff58d4" y="80.406646"/>
     <use style="fill:#1f77b4;stroke:#1f77b4;" x="445.323913" xlink:href="#mc7f7ff58d4" y="80.405839"/>
     <use style="fill:#1f77b4;stroke:#1f77b4;" x="448.356522" xlink:href="#mc7f7ff58d4" y="80.405127"/>
     <use style="fill:#1f77b4;stroke:#1f77b4;" x="451.38913" xlink:href="#mc7f7ff58d4" y="80.404498"/>
     <use style="fill:#1f77b4;stroke:#1f77b4;" x="454.421739" xlink:href="#mc7f7ff58d4" y="80.403943"/>
     <use style="fill:#1f77b4;stroke:#1f77b4;" x="457.454348" xlink:href="#mc7f7ff58d4" y="80.403453"/>
     <use style="fill:#1f77b4;stroke:#1f77b4;" x="460.486957" xlink:href="#mc7f7ff58d4" y="80.403022"/>
     <use style="fill:#1f77b4;stroke:#1f77b4;" x="463.519565" xlink:href="#mc7f7ff58d4" y="80.402642"/>
     <use style="fill:#1f77b4;stroke:#1f77b4;" x="466.552174" xlink:href="#mc7f7ff58d4" y="80.402308"/>
     <use style="fill:#1f77b4;stroke:#1f77b4;" x="469.584783" xlink:href="#mc7f7ff58d4" y="80.402013"/>
     <use style="fill:#1f77b4;stroke:#1f77b4;" x="472.617391" xlink:href="#mc7f7ff58d4" y="80.401754"/>
     <use style="fill:#1f77b4;stroke:#1f77b4;" x="475.65" xlink:href="#mc7f7ff58d4" y="80.401527"/>
     <use style="fill:#1f77b4;stroke:#1f77b4;" x="478.682609" xlink:href="#mc7f7ff58d4" y="80.401327"/>
     <use style="fill:#1f77b4;stroke:#1f77b4;" x="481.715217" xlink:href="#mc7f7ff58d4" y="80.401152"/>
     <use style="fill:#1f77b4;stroke:#1f77b4;" x="484.747826" xlink:href="#mc7f7ff58d4" y="80.400998"/>
     <use style="fill:#1f77b4;stroke:#1f77b4;" x="487.780435" xlink:href="#mc7f7ff58d4" y="80.400863"/>
     <use style="fill:#1f77b4;stroke:#1f77b4;" x="490.813043" xlink:href="#mc7f7ff58d4" y="80.400745"/>
     <use style="fill:#1f77b4;stroke:#1f77b4;" x="493.845652" xlink:href="#mc7f7ff58d4" y="80.400642"/>
     <use style="fill:#1f77b4;stroke:#1f77b4;" x="496.878261" xlink:href="#mc7f7ff58d4" y="80.400551"/>
     <use style="fill:#1f77b4;stroke:#1f77b4;" x="499.91087" xlink:href="#mc7f7ff58d4" y="80.400472"/>
     <use style="fill:#1f77b4;stroke:#1f77b4;" x="502.943478" xlink:href="#mc7f7ff58d4" y="80.400403"/>
     <use style="fill:#1f77b4;stroke:#1f77b4;" x="505.976087" xlink:href="#mc7f7ff58d4" y="80.400342"/>
     <use style="fill:#1f77b4;stroke:#1f77b4;" x="509.008696" xlink:href="#mc7f7ff58d4" y="80.40029"/>
     <use style="fill:#1f77b4;stroke:#1f77b4;" x="512.041304" xlink:href="#mc7f7ff58d4" y="80.400244"/>
     <use style="fill:#1f77b4;stroke:#1f77b4;" x="515.073913" xlink:href="#mc7f7ff58d4" y="80.400204"/>
     <use style="fill:#1f77b4;stroke:#1f77b4;" x="518.106522" xlink:href="#mc7f7ff58d4" y="80.400169"/>
     <use style="fill:#1f77b4;stroke:#1f77b4;" x="521.13913" xlink:href="#mc7f7ff58d4" y="80.400138"/>
     <use style="fill:#1f77b4;stroke:#1f77b4;" x="524.171739" xlink:href="#mc7f7ff58d4" y="80.400112"/>
     <use style="fill:#1f77b4;stroke:#1f77b4;" x="527.204348" xlink:href="#mc7f7ff58d4" y="80.400088"/>
     <use style="fill:#1f77b4;stroke:#1f77b4;" x="530.236957" xlink:href="#mc7f7ff58d4" y="80.400068"/>
     <use style="fill:#1f77b4;stroke:#1f77b4;" x="533.269565" xlink:href="#mc7f7ff58d4" y="80.400051"/>
     <use style="fill:#1f77b4;stroke:#1f77b4;" x="536.302174" xlink:href="#mc7f7ff58d4" y="80.400036"/>
     <use style="fill:#1f77b4;stroke:#1f77b4;" x="539.334783" xlink:href="#mc7f7ff58d4" y="80.400023"/>
     <use style="fill:#1f77b4;stroke:#1f77b4;" x="542.367391" xlink:href="#mc7f7ff58d4" y="80.400011"/>
     <use style="fill:#1f77b4;stroke:#1f77b4;" x="545.4" xlink:href="#mc7f7ff58d4" y="80.400002"/>
     <use style="fill:#1f77b4;stroke:#1f77b4;" x="548.432609" xlink:href="#mc7f7ff58d4" y="80.399993"/>
     <use style="fill:#1f77b4;stroke:#1f77b4;" x="551.465217" xlink:href="#mc7f7ff58d4" y="80.399986"/>
     <use style="fill:#1f77b4;stroke:#1f77b4;" x="554.497826" xlink:href="#mc7f7ff58d4" y="80.399979"/>
     <use style="fill:#1f77b4;stroke:#1f77b4;" x="557.530435" xlink:href="#mc7f7ff58d4" y="80.399974"/>
     <use style="fill:#1f77b4;stroke:#1f77b4;" x="560.563043" xlink:href="#mc7f7ff58d4" y="80.399969"/>
     <use style="fill:#1f77b4;stroke:#1f77b4;" x="563.595652" xlink:href="#mc7f7ff58d4" y="80.399965"/>
     <use style="fill:#1f77b4;stroke:#1f77b4;" x="566.628261" xlink:href="#mc7f7ff58d4" y="80.399961"/>
     <use style="fill:#1f77b4;stroke:#1f77b4;" x="569.66087" xlink:href="#mc7f7ff58d4" y="80.399958"/>
     <use style="fill:#1f77b4;stroke:#1f77b4;" x="572.693478" xlink:href="#mc7f7ff58d4" y="80.399956"/>
     <use style="fill:#1f77b4;stroke:#1f77b4;" x="575.726087" xlink:href="#mc7f7ff58d4" y="80.399953"/>
     <use style="fill:#1f77b4;stroke:#1f77b4;" x="578.758696" xlink:href="#mc7f7ff58d4" y="80.399951"/>
     <use style="fill:#1f77b4;stroke:#1f77b4;" x="581.791304" xlink:href="#mc7f7ff58d4" y="80.39995"/>
     <use style="fill:#1f77b4;stroke:#1f77b4;" x="584.823913" xlink:href="#mc7f7ff58d4" y="80.399948"/>
     <use style="fill:#1f77b4;stroke:#1f77b4;" x="587.856522" xlink:href="#mc7f7ff58d4" y="80.399947"/>
     <use style="fill:#1f77b4;stroke:#1f77b4;" x="590.88913" xlink:href="#mc7f7ff58d4" y="80.399946"/>
     <use style="fill:#1f77b4;stroke:#1f77b4;" x="593.921739" xlink:href="#mc7f7ff58d4" y="80.399945"/>
     <use style="fill:#1f77b4;stroke:#1f77b4;" x="596.954348" xlink:href="#mc7f7ff58d4" y="80.399944"/>
     <use style="fill:#1f77b4;stroke:#1f77b4;" x="599.986957" xlink:href="#mc7f7ff58d4" y="80.399944"/>
     <use style="fill:#1f77b4;stroke:#1f77b4;" x="603.019565" xlink:href="#mc7f7ff58d4" y="80.399943"/>
     <use style="fill:#1f77b4;stroke:#1f77b4;" x="606.052174" xlink:href="#mc7f7ff58d4" y="80.399943"/>
     <use style="fill:#1f77b4;stroke:#1f77b4;" x="609.084783" xlink:href="#mc7f7ff58d4" y="80.399942"/>
     <use style="fill:#1f77b4;stroke:#1f77b4;" x="612.117391" xlink:href="#mc7f7ff58d4" y="80.399942"/>
     <use style="fill:#1f77b4;stroke:#1f77b4;" x="615.15" xlink:href="#mc7f7ff58d4" y="80.399941"/>
     <use style="fill:#1f77b4;stroke:#1f77b4;" x="618.182609" xlink:href="#mc7f7ff58d4" y="80.399941"/>
     <use style="fill:#1f77b4;stroke:#1f77b4;" x="621.215217" xlink:href="#mc7f7ff58d4" y="80.399941"/>
     <use style="fill:#1f77b4;stroke:#1f77b4;" x="624.247826" xlink:href="#mc7f7ff58d4" y="80.399941"/>
     <use style="fill:#1f77b4;stroke:#1f77b4;" x="627.280435" xlink:href="#mc7f7ff58d4" y="80.399941"/>
     <use style="fill:#1f77b4;stroke:#1f77b4;" x="630.313043" xlink:href="#mc7f7ff58d4" y="80.39994"/>
     <use style="fill:#1f77b4;stroke:#1f77b4;" x="633.345652" xlink:href="#mc7f7ff58d4" y="80.39994"/>
     <use style="fill:#1f77b4;stroke:#1f77b4;" x="636.378261" xlink:href="#mc7f7ff58d4" y="80.39994"/>
     <use style="fill:#1f77b4;stroke:#1f77b4;" x="639.41087" xlink:href="#mc7f7ff58d4" y="80.39994"/>
     <use style="fill:#1f77b4;stroke:#1f77b4;" x="642.443478" xlink:href="#mc7f7ff58d4" y="80.39994"/>
     <use style="fill:#1f77b4;stroke:#1f77b4;" x="645.476087" xlink:href="#mc7f7ff58d4" y="80.39994"/>
     <use style="fill:#1f77b4;stroke:#1f77b4;" x="648.508696" xlink:href="#mc7f7ff58d4" y="80.39994"/>
     <use style="fill:#1f77b4;stroke:#1f77b4;" x="651.541304" xlink:href="#mc7f7ff58d4" y="80.39994"/>
     <use style="fill:#1f77b4;stroke:#1f77b4;" x="654.573913" xlink:href="#mc7f7ff58d4" y="80.39994"/>
     <use style="fill:#1f77b4;stroke:#1f77b4;" x="657.606522" xlink:href="#mc7f7ff58d4" y="80.39994"/>
     <use style="fill:#1f77b4;stroke:#1f77b4;" x="660.63913" xlink:href="#mc7f7ff58d4" y="80.39994"/>
     <use style="fill:#1f77b4;stroke:#1f77b4;" x="663.671739" xlink:href="#mc7f7ff58d4" y="80.39994"/>
     <use style="fill:#1f77b4;stroke:#1f77b4;" x="666.704348" xlink:href="#mc7f7ff58d4" y="80.39994"/>
     <use style="fill:#1f77b4;stroke:#1f77b4;" x="669.736957" xlink:href="#mc7f7ff58d4" y="80.39994"/>
     <use style="fill:#1f77b4;stroke:#1f77b4;" x="672.769565" xlink:href="#mc7f7ff58d4" y="80.39994"/>
     <use style="fill:#1f77b4;stroke:#1f77b4;" x="675.802174" xlink:href="#mc7f7ff58d4" y="80.39994"/>
     <use style="fill:#1f77b4;stroke:#1f77b4;" x="678.834783" xlink:href="#mc7f7ff58d4" y="80.39994"/>
     <use style="fill:#1f77b4;stroke:#1f77b4;" x="681.867391" xlink:href="#mc7f7ff58d4" y="80.39994"/>
     <use style="fill:#1f77b4;stroke:#1f77b4;" x="684.9" xlink:href="#mc7f7ff58d4" y="80.39994"/>
    </g>
   </g>
   <g id="matplotlib.axis_1">
    <g id="xtick_1">
     <g id="line2d_1">
      <defs>
       <path d="M 0 0 
L 0 3.5 
" id="mc230e9c969" style="stroke:#000000;stroke-width:0.8;"/>
      </defs>
      <g>
       <use style="stroke:#000000;stroke-width:0.8;" x="123.867391" xlink:href="#mc230e9c969" y="441"/>
      </g>
     </g>
     <g id="text_1">
      <!-- 0 -->
      <g transform="translate(120.686141 455.598437)scale(0.1 -0.1)">
       <defs>
        <path d="M 2034 4250 
Q 1547 4250 1301 3770 
Q 1056 3291 1056 2328 
Q 1056 1369 1301 889 
Q 1547 409 2034 409 
Q 2525 409 2770 889 
Q 3016 1369 3016 2328 
Q 3016 3291 2770 3770 
Q 2525 4250 2034 4250 
z
M 2034 4750 
Q 2819 4750 3233 4129 
Q 3647 3509 3647 2328 
Q 3647 1150 3233 529 
Q 2819 -91 2034 -91 
Q 1250 -91 836 529 
Q 422 1150 422 2328 
Q 422 3509 836 4129 
Q 1250 4750 2034 4750 
z
" id="DejaVuSans-30" transform="scale(0.015625)"/>
       </defs>
       <use xlink:href="#DejaVuSans-30"/>
      </g>
     </g>
    </g>
    <g id="xtick_2">
     <g id="line2d_2">
      <g>
       <use style="stroke:#000000;stroke-width:0.8;" x="244.666304" xlink:href="#mc230e9c969" y="441"/>
      </g>
     </g>
     <g id="text_2">
      <!-- 2 -->
      <g transform="translate(241.485054 455.598437)scale(0.1 -0.1)">
       <defs>
        <path d="M 1228 531 
L 3431 531 
L 3431 0 
L 469 0 
L 469 531 
Q 828 903 1448 1529 
Q 2069 2156 2228 2338 
Q 2531 2678 2651 2914 
Q 2772 3150 2772 3378 
Q 2772 3750 2511 3984 
Q 2250 4219 1831 4219 
Q 1534 4219 1204 4116 
Q 875 4013 500 3803 
L 500 4441 
Q 881 4594 1212 4672 
Q 1544 4750 1819 4750 
Q 2544 4750 2975 4387 
Q 3406 4025 3406 3419 
Q 3406 3131 3298 2873 
Q 3191 2616 2906 2266 
Q 2828 2175 2409 1742 
Q 1991 1309 1228 531 
z
" id="DejaVuSans-32" transform="scale(0.015625)"/>
       </defs>
       <use xlink:href="#DejaVuSans-32"/>
      </g>
     </g>
    </g>
    <g id="xtick_3">
     <g id="line2d_3">
      <g>
       <use style="stroke:#000000;stroke-width:0.8;" x="365.465217" xlink:href="#mc230e9c969" y="441"/>
      </g>
     </g>
     <g id="text_3">
      <!-- 4 -->
      <g transform="translate(362.283967 455.598437)scale(0.1 -0.1)">
       <defs>
        <path d="M 2419 4116 
L 825 1625 
L 2419 1625 
L 2419 4116 
z
M 2253 4666 
L 3047 4666 
L 3047 1625 
L 3713 1625 
L 3713 1100 
L 3047 1100 
L 3047 0 
L 2419 0 
L 2419 1100 
L 313 1100 
L 313 1709 
L 2253 4666 
z
" id="DejaVuSans-34" transform="scale(0.015625)"/>
       </defs>
       <use xlink:href="#DejaVuSans-34"/>
      </g>
     </g>
    </g>
    <g id="xtick_4">
     <g id="line2d_4">
      <g>
       <use style="stroke:#000000;stroke-width:0.8;" x="486.26413" xlink:href="#mc230e9c969" y="441"/>
      </g>
     </g>
     <g id="text_4">
      <!-- 6 -->
      <g transform="translate(483.08288 455.598437)scale(0.1 -0.1)">
       <defs>
        <path d="M 2113 2584 
Q 1688 2584 1439 2293 
Q 1191 2003 1191 1497 
Q 1191 994 1439 701 
Q 1688 409 2113 409 
Q 2538 409 2786 701 
Q 3034 994 3034 1497 
Q 3034 2003 2786 2293 
Q 2538 2584 2113 2584 
z
M 3366 4563 
L 3366 3988 
Q 3128 4100 2886 4159 
Q 2644 4219 2406 4219 
Q 1781 4219 1451 3797 
Q 1122 3375 1075 2522 
Q 1259 2794 1537 2939 
Q 1816 3084 2150 3084 
Q 2853 3084 3261 2657 
Q 3669 2231 3669 1497 
Q 3669 778 3244 343 
Q 2819 -91 2113 -91 
Q 1303 -91 875 529 
Q 447 1150 447 2328 
Q 447 3434 972 4092 
Q 1497 4750 2381 4750 
Q 2619 4750 2861 4703 
Q 3103 4656 3366 4563 
z
" id="DejaVuSans-36" transform="scale(0.015625)"/>
       </defs>
       <use xlink:href="#DejaVuSans-36"/>
      </g>
     </g>
    </g>
    <g id="xtick_5">
     <g id="line2d_5">
      <g>
       <use style="stroke:#000000;stroke-width:0.8;" x="607.063043" xlink:href="#mc230e9c969" y="441"/>
      </g>
     </g>
     <g id="text_5">
      <!-- 8 -->
      <g transform="translate(603.881793 455.598437)scale(0.1 -0.1)">
       <defs>
        <path d="M 2034 2216 
Q 1584 2216 1326 1975 
Q 1069 1734 1069 1313 
Q 1069 891 1326 650 
Q 1584 409 2034 409 
Q 2484 409 2743 651 
Q 3003 894 3003 1313 
Q 3003 1734 2745 1975 
Q 2488 2216 2034 2216 
z
M 1403 2484 
Q 997 2584 770 2862 
Q 544 3141 544 3541 
Q 544 4100 942 4425 
Q 1341 4750 2034 4750 
Q 2731 4750 3128 4425 
Q 3525 4100 3525 3541 
Q 3525 3141 3298 2862 
Q 3072 2584 2669 2484 
Q 3125 2378 3379 2068 
Q 3634 1759 3634 1313 
Q 3634 634 3220 271 
Q 2806 -91 2034 -91 
Q 1263 -91 848 271 
Q 434 634 434 1313 
Q 434 1759 690 2068 
Q 947 2378 1403 2484 
z
M 1172 3481 
Q 1172 3119 1398 2916 
Q 1625 2713 2034 2713 
Q 2441 2713 2670 2916 
Q 2900 3119 2900 3481 
Q 2900 3844 2670 4047 
Q 2441 4250 2034 4250 
Q 1625 4250 1398 4047 
Q 1172 3844 1172 3481 
z
" id="DejaVuSans-38" transform="scale(0.015625)"/>
       </defs>
       <use xlink:href="#DejaVuSans-38"/>
      </g>
     </g>
    </g>
    <g id="text_6">
     <!-- time (hr) -->
     <g transform="translate(383.889063 469.276563)scale(0.1 -0.1)">
      <defs>
       <path d="M 1172 4494 
L 1172 3500 
L 2356 3500 
L 2356 3053 
L 1172 3053 
L 1172 1153 
Q 1172 725 1289 603 
Q 1406 481 1766 481 
L 2356 481 
L 2356 0 
L 1766 0 
Q 1100 0 847 248 
Q 594 497 594 1153 
L 594 3053 
L 172 3053 
L 172 3500 
L 594 3500 
L 594 4494 
L 1172 4494 
z
" id="DejaVuSans-74" transform="scale(0.015625)"/>
       <path d="M 603 3500 
L 1178 3500 
L 1178 0 
L 603 0 
L 603 3500 
z
M 603 4863 
L 1178 4863 
L 1178 4134 
L 603 4134 
L 603 4863 
z
" id="DejaVuSans-69" transform="scale(0.015625)"/>
       <path d="M 3328 2828 
Q 3544 3216 3844 3400 
Q 4144 3584 4550 3584 
Q 5097 3584 5394 3201 
Q 5691 2819 5691 2113 
L 5691 0 
L 5113 0 
L 5113 2094 
Q 5113 2597 4934 2840 
Q 4756 3084 4391 3084 
Q 3944 3084 3684 2787 
Q 3425 2491 3425 1978 
L 3425 0 
L 2847 0 
L 2847 2094 
Q 2847 2600 2669 2842 
Q 2491 3084 2119 3084 
Q 1678 3084 1418 2786 
Q 1159 2488 1159 1978 
L 1159 0 
L 581 0 
L 581 3500 
L 1159 3500 
L 1159 2956 
Q 1356 3278 1631 3431 
Q 1906 3584 2284 3584 
Q 2666 3584 2933 3390 
Q 3200 3197 3328 2828 
z
" id="DejaVuSans-6d" transform="scale(0.015625)"/>
       <path d="M 3597 1894 
L 3597 1613 
L 953 1613 
Q 991 1019 1311 708 
Q 1631 397 2203 397 
Q 2534 397 2845 478 
Q 3156 559 3463 722 
L 3463 178 
Q 3153 47 2828 -22 
Q 2503 -91 2169 -91 
Q 1331 -91 842 396 
Q 353 884 353 1716 
Q 353 2575 817 3079 
Q 1281 3584 2069 3584 
Q 2775 3584 3186 3129 
Q 3597 2675 3597 1894 
z
M 3022 2063 
Q 3016 2534 2758 2815 
Q 2500 3097 2075 3097 
Q 1594 3097 1305 2825 
Q 1016 2553 972 2059 
L 3022 2063 
z
" id="DejaVuSans-65" transform="scale(0.015625)"/>
       <path id="DejaVuSans-20" transform="scale(0.015625)"/>
       <path d="M 1984 4856 
Q 1566 4138 1362 3434 
Q 1159 2731 1159 2009 
Q 1159 1288 1364 580 
Q 1569 -128 1984 -844 
L 1484 -844 
Q 1016 -109 783 600 
Q 550 1309 550 2009 
Q 550 2706 781 3412 
Q 1013 4119 1484 4856 
L 1984 4856 
z
" id="DejaVuSans-28" transform="scale(0.015625)"/>
       <path d="M 3513 2113 
L 3513 0 
L 2938 0 
L 2938 2094 
Q 2938 2591 2744 2837 
Q 2550 3084 2163 3084 
Q 1697 3084 1428 2787 
Q 1159 2491 1159 1978 
L 1159 0 
L 581 0 
L 581 4863 
L 1159 4863 
L 1159 2956 
Q 1366 3272 1645 3428 
Q 1925 3584 2291 3584 
Q 2894 3584 3203 3211 
Q 3513 2838 3513 2113 
z
" id="DejaVuSans-68" transform="scale(0.015625)"/>
       <path d="M 2631 2963 
Q 2534 3019 2420 3045 
Q 2306 3072 2169 3072 
Q 1681 3072 1420 2755 
Q 1159 2438 1159 1844 
L 1159 0 
L 581 0 
L 581 3500 
L 1159 3500 
L 1159 2956 
Q 1341 3275 1631 3429 
Q 1922 3584 2338 3584 
Q 2397 3584 2469 3576 
Q 2541 3569 2628 3553 
L 2631 2963 
z
" id="DejaVuSans-72" transform="scale(0.015625)"/>
       <path d="M 513 4856 
L 1013 4856 
Q 1481 4119 1714 3412 
Q 1947 2706 1947 2009 
Q 1947 1309 1714 600 
Q 1481 -109 1013 -844 
L 513 -844 
Q 928 -128 1133 580 
Q 1338 1288 1338 2009 
Q 1338 2731 1133 3434 
Q 928 4138 513 4856 
z
" id="DejaVuSans-29" transform="scale(0.015625)"/>
      </defs>
      <use xlink:href="#DejaVuSans-74"/>
      <use x="39.208984" xlink:href="#DejaVuSans-69"/>
      <use x="66.992188" xlink:href="#DejaVuSans-6d"/>
      <use x="164.404297" xlink:href="#DejaVuSans-65"/>
      <use x="225.927734" xlink:href="#DejaVuSans-20"/>
      <use x="257.714844" xlink:href="#DejaVuSans-28"/>
      <use x="296.728516" xlink:href="#DejaVuSans-68"/>
      <use x="360.107422" xlink:href="#DejaVuSans-72"/>
      <use x="401.220703" xlink:href="#DejaVuSans-29"/>
     </g>
    </g>
   </g>
   <g id="matplotlib.axis_2">
    <g id="ytick_1">
     <g id="line2d_6">
      <defs>
       <path d="M 0 0 
L -3.5 0 
" id="m04f34d2979" style="stroke:#000000;stroke-width:0.8;"/>
      </defs>
      <g>
       <use style="stroke:#000000;stroke-width:0.8;" x="99" xlink:href="#m04f34d2979" y="380.926816"/>
      </g>
     </g>
     <g id="text_7">
      <!-- 0.2 -->
      <g transform="translate(76.096875 384.726034)scale(0.1 -0.1)">
       <defs>
        <path d="M 684 794 
L 1344 794 
L 1344 0 
L 684 0 
L 684 794 
z
" id="DejaVuSans-2e" transform="scale(0.015625)"/>
       </defs>
       <use xlink:href="#DejaVuSans-30"/>
       <use x="63.623047" xlink:href="#DejaVuSans-2e"/>
       <use x="95.410156" xlink:href="#DejaVuSans-32"/>
      </g>
     </g>
    </g>
    <g id="ytick_2">
     <g id="line2d_7">
      <g>
       <use style="stroke:#000000;stroke-width:0.8;" x="99" xlink:href="#m04f34d2979" y="305.795097"/>
      </g>
     </g>
     <g id="text_8">
      <!-- 0.4 -->
      <g transform="translate(76.096875 309.594315)scale(0.1 -0.1)">
       <use xlink:href="#DejaVuSans-30"/>
       <use x="63.623047" xlink:href="#DejaVuSans-2e"/>
       <use x="95.410156" xlink:href="#DejaVuSans-34"/>
      </g>
     </g>
    </g>
    <g id="ytick_3">
     <g id="line2d_8">
      <g>
       <use style="stroke:#000000;stroke-width:0.8;" x="99" xlink:href="#m04f34d2979" y="230.663378"/>
      </g>
     </g>
     <g id="text_9">
      <!-- 0.6 -->
      <g transform="translate(76.096875 234.462596)scale(0.1 -0.1)">
       <use xlink:href="#DejaVuSans-30"/>
       <use x="63.623047" xlink:href="#DejaVuSans-2e"/>
       <use x="95.410156" xlink:href="#DejaVuSans-36"/>
      </g>
     </g>
    </g>
    <g id="ytick_4">
     <g id="line2d_9">
      <g>
       <use style="stroke:#000000;stroke-width:0.8;" x="99" xlink:href="#m04f34d2979" y="155.531659"/>
      </g>
     </g>
     <g id="text_10">
      <!-- 0.8 -->
      <g transform="translate(76.096875 159.330877)scale(0.1 -0.1)">
       <use xlink:href="#DejaVuSans-30"/>
       <use x="63.623047" xlink:href="#DejaVuSans-2e"/>
       <use x="95.410156" xlink:href="#DejaVuSans-38"/>
      </g>
     </g>
    </g>
    <g id="ytick_5">
     <g id="line2d_10">
      <g>
       <use style="stroke:#000000;stroke-width:0.8;" x="99" xlink:href="#m04f34d2979" y="80.39994"/>
      </g>
     </g>
     <g id="text_11">
      <!-- 1.0 -->
      <g transform="translate(76.096875 84.199159)scale(0.1 -0.1)">
       <defs>
        <path d="M 794 531 
L 1825 531 
L 1825 4091 
L 703 3866 
L 703 4441 
L 1819 4666 
L 2450 4666 
L 2450 531 
L 3481 531 
L 3481 0 
L 794 0 
L 794 531 
z
" id="DejaVuSans-31" transform="scale(0.015625)"/>
       </defs>
       <use xlink:href="#DejaVuSans-31"/>
       <use x="63.623047" xlink:href="#DejaVuSans-2e"/>
       <use x="95.410156" xlink:href="#DejaVuSans-30"/>
      </g>
     </g>
    </g>
    <g id="text_12">
     <!-- oxidation proportion -->
     <g transform="translate(70.017187 301.439219)rotate(-90)scale(0.1 -0.1)">
      <defs>
       <path d="M 1959 3097 
Q 1497 3097 1228 2736 
Q 959 2375 959 1747 
Q 959 1119 1226 758 
Q 1494 397 1959 397 
Q 2419 397 2687 759 
Q 2956 1122 2956 1747 
Q 2956 2369 2687 2733 
Q 2419 3097 1959 3097 
z
M 1959 3584 
Q 2709 3584 3137 3096 
Q 3566 2609 3566 1747 
Q 3566 888 3137 398 
Q 2709 -91 1959 -91 
Q 1206 -91 779 398 
Q 353 888 353 1747 
Q 353 2609 779 3096 
Q 1206 3584 1959 3584 
z
" id="DejaVuSans-6f" transform="scale(0.015625)"/>
       <path d="M 3513 3500 
L 2247 1797 
L 3578 0 
L 2900 0 
L 1881 1375 
L 863 0 
L 184 0 
L 1544 1831 
L 300 3500 
L 978 3500 
L 1906 2253 
L 2834 3500 
L 3513 3500 
z
" id="DejaVuSans-78" transform="scale(0.015625)"/>
       <path d="M 2906 2969 
L 2906 4863 
L 3481 4863 
L 3481 0 
L 2906 0 
L 2906 525 
Q 2725 213 2448 61 
Q 2172 -91 1784 -91 
Q 1150 -91 751 415 
Q 353 922 353 1747 
Q 353 2572 751 3078 
Q 1150 3584 1784 3584 
Q 2172 3584 2448 3432 
Q 2725 3281 2906 2969 
z
M 947 1747 
Q 947 1113 1208 752 
Q 1469 391 1925 391 
Q 2381 391 2643 752 
Q 2906 1113 2906 1747 
Q 2906 2381 2643 2742 
Q 2381 3103 1925 3103 
Q 1469 3103 1208 2742 
Q 947 2381 947 1747 
z
" id="DejaVuSans-64" transform="scale(0.015625)"/>
       <path d="M 2194 1759 
Q 1497 1759 1228 1600 
Q 959 1441 959 1056 
Q 959 750 1161 570 
Q 1363 391 1709 391 
Q 2188 391 2477 730 
Q 2766 1069 2766 1631 
L 2766 1759 
L 2194 1759 
z
M 3341 1997 
L 3341 0 
L 2766 0 
L 2766 531 
Q 2569 213 2275 61 
Q 1981 -91 1556 -91 
Q 1019 -91 701 211 
Q 384 513 384 1019 
Q 384 1609 779 1909 
Q 1175 2209 1959 2209 
L 2766 2209 
L 2766 2266 
Q 2766 2663 2505 2880 
Q 2244 3097 1772 3097 
Q 1472 3097 1187 3025 
Q 903 2953 641 2809 
L 641 3341 
Q 956 3463 1253 3523 
Q 1550 3584 1831 3584 
Q 2591 3584 2966 3190 
Q 3341 2797 3341 1997 
z
" id="DejaVuSans-61" transform="scale(0.015625)"/>
       <path d="M 3513 2113 
L 3513 0 
L 2938 0 
L 2938 2094 
Q 2938 2591 2744 2837 
Q 2550 3084 2163 3084 
Q 1697 3084 1428 2787 
Q 1159 2491 1159 1978 
L 1159 0 
L 581 0 
L 581 3500 
L 1159 3500 
L 1159 2956 
Q 1366 3272 1645 3428 
Q 1925 3584 2291 3584 
Q 2894 3584 3203 3211 
Q 3513 2838 3513 2113 
z
" id="DejaVuSans-6e" transform="scale(0.015625)"/>
       <path d="M 1159 525 
L 1159 -1331 
L 581 -1331 
L 581 3500 
L 1159 3500 
L 1159 2969 
Q 1341 3281 1617 3432 
Q 1894 3584 2278 3584 
Q 2916 3584 3314 3078 
Q 3713 2572 3713 1747 
Q 3713 922 3314 415 
Q 2916 -91 2278 -91 
Q 1894 -91 1617 61 
Q 1341 213 1159 525 
z
M 3116 1747 
Q 3116 2381 2855 2742 
Q 2594 3103 2138 3103 
Q 1681 3103 1420 2742 
Q 1159 2381 1159 1747 
Q 1159 1113 1420 752 
Q 1681 391 2138 391 
Q 2594 391 2855 752 
Q 3116 1113 3116 1747 
z
" id="DejaVuSans-70" transform="scale(0.015625)"/>
      </defs>
      <use xlink:href="#DejaVuSans-6f"/>
      <use x="58.056641" xlink:href="#DejaVuSans-78"/>
      <use x="117.236328" xlink:href="#DejaVuSans-69"/>
      <use x="145.019531" xlink:href="#DejaVuSans-64"/>
      <use x="208.496094" xlink:href="#DejaVuSans-61"/>
      <use x="269.775391" xlink:href="#DejaVuSans-74"/>
      <use x="308.984375" xlink:href="#DejaVuSans-69"/>
      <use x="336.767578" xlink:href="#DejaVuSans-6f"/>
      <use x="397.949219" xlink:href="#DejaVuSans-6e"/>
      <use x="461.328125" xlink:href="#DejaVuSans-20"/>
      <use x="493.115234" xlink:href="#DejaVuSans-70"/>
      <use x="556.591797" xlink:href="#DejaVuSans-72"/>
      <use x="595.455078" xlink:href="#DejaVuSans-6f"/>
      <use x="656.636719" xlink:href="#DejaVuSans-70"/>
      <use x="720.113281" xlink:href="#DejaVuSans-6f"/>
      <use x="781.294922" xlink:href="#DejaVuSans-72"/>
      <use x="822.408203" xlink:href="#DejaVuSans-74"/>
      <use x="861.617188" xlink:href="#DejaVuSans-69"/>
      <use x="889.400391" xlink:href="#DejaVuSans-6f"/>
      <use x="950.582031" xlink:href="#DejaVuSans-6e"/>
     </g>
    </g>
   </g>
   <g id="line2d_11">
    <path clip-path="url(#p36f475019f)" d="M 126.9 403.760088 
L 127.782201 401.020265 
L 128.779674 397.223632 
L 130.031297 391.507858 
L 131.385474 384.279222 
L 133.037156 374.248208 
L 135.051704 360.652316 
L 138.305276 336.853437 
L 144.745165 289.281108 
L 147.927197 267.668553 
L 150.818613 249.681107 
L 153.213006 236.053671 
L 155.820121 222.512381 
L 158.658857 209.236072 
L 160.690114 200.614705 
L 162.839963 192.228697 
L 165.115329 184.116758 
L 167.523539 176.311943 
L 170.07235 168.84131 
L 172.769969 161.725824 
L 175.625086 154.980448 
L 178.646895 148.614423 
L 181.845129 142.631687 
L 185.230088 137.031394 
L 188.812673 131.808505 
L 192.604424 126.954408 
L 196.617551 122.457547 
L 200.864979 118.304024 
L 205.360389 114.478169 
L 210.118257 110.963056 
L 215.153908 107.740961 
L 220.483558 104.79376 
L 226.124374 102.10326 
L 232.094522 99.651482 
L 238.41323 97.420871 
L 245.100848 95.394477 
L 252.178914 93.556074 
L 259.670224 91.890256 
L 267.598906 90.382486 
L 275.990493 89.019133 
L 284.872013 87.787479 
L 294.27207 86.675711 
L 304.220937 85.672898 
L 320.243858 84.351154 
L 337.690283 83.221465 
L 356.686678 82.257013 
L 377.370746 81.434419 
L 399.892422 80.733395 
L 433.064062 79.957826 
L 470.222144 79.332407 
L 523.010907 78.718657 
L 583.845333 78.250612 
L 669.206343 77.83356 
L 684.9 77.776364 
L 684.9 77.776364 
" style="fill:none;stroke:#1f77b4;stroke-linecap:square;stroke-width:1.5;"/>
   </g>
   <g id="patch_3">
    <path d="M 99 441 
L 99 60.48 
" style="fill:none;stroke:#000000;stroke-linecap:square;stroke-linejoin:miter;stroke-width:0.8;"/>
   </g>
   <g id="patch_4">
    <path d="M 712.8 441 
L 712.8 60.48 
" style="fill:none;stroke:#000000;stroke-linecap:square;stroke-linejoin:miter;stroke-width:0.8;"/>
   </g>
   <g id="patch_5">
    <path d="M 99 441 
L 712.8 441 
" style="fill:none;stroke:#000000;stroke-linecap:square;stroke-linejoin:miter;stroke-width:0.8;"/>
   </g>
   <g id="patch_6">
    <path d="M 99 60.48 
L 712.8 60.48 
" style="fill:none;stroke:#000000;stroke-linecap:square;stroke-linejoin:miter;stroke-width:0.8;"/>
   </g>
   <g id="text_13">
    <!-- R²: 0.996089 -->
    <g transform="translate(572.693478 191.261015)scale(0.1 -0.1)">
     <defs>
      <path d="M 2841 2188 
Q 3044 2119 3236 1894 
Q 3428 1669 3622 1275 
L 4263 0 
L 3584 0 
L 2988 1197 
Q 2756 1666 2539 1819 
Q 2322 1972 1947 1972 
L 1259 1972 
L 1259 0 
L 628 0 
L 628 4666 
L 2053 4666 
Q 2853 4666 3247 4331 
Q 3641 3997 3641 3322 
Q 3641 2881 3436 2590 
Q 3231 2300 2841 2188 
z
M 1259 4147 
L 1259 2491 
L 2053 2491 
Q 2509 2491 2742 2702 
Q 2975 2913 2975 3322 
Q 2975 3731 2742 3939 
Q 2509 4147 2053 4147 
L 1259 4147 
z
" id="DejaVuSans-52" transform="scale(0.015625)"/>
      <path d="M 838 2444 
L 2163 2444 
L 2163 2088 
L 294 2088 
L 294 2431 
Q 400 2528 597 2703 
Q 1672 3656 1672 3950 
Q 1672 4156 1509 4282 
Q 1347 4409 1081 4409 
Q 919 4409 728 4354 
Q 538 4300 313 4191 
L 313 4575 
Q 553 4663 761 4706 
Q 969 4750 1147 4750 
Q 1600 4750 1872 4544 
Q 2144 4338 2144 4000 
Q 2144 3566 1109 2678 
Q 934 2528 838 2444 
z
" id="DejaVuSans-b2" transform="scale(0.015625)"/>
      <path d="M 750 794 
L 1409 794 
L 1409 0 
L 750 0 
L 750 794 
z
M 750 3309 
L 1409 3309 
L 1409 2516 
L 750 2516 
L 750 3309 
z
" id="DejaVuSans-3a" transform="scale(0.015625)"/>
      <path d="M 703 97 
L 703 672 
Q 941 559 1184 500 
Q 1428 441 1663 441 
Q 2288 441 2617 861 
Q 2947 1281 2994 2138 
Q 2813 1869 2534 1725 
Q 2256 1581 1919 1581 
Q 1219 1581 811 2004 
Q 403 2428 403 3163 
Q 403 3881 828 4315 
Q 1253 4750 1959 4750 
Q 2769 4750 3195 4129 
Q 3622 3509 3622 2328 
Q 3622 1225 3098 567 
Q 2575 -91 1691 -91 
Q 1453 -91 1209 -44 
Q 966 3 703 97 
z
M 1959 2075 
Q 2384 2075 2632 2365 
Q 2881 2656 2881 3163 
Q 2881 3666 2632 3958 
Q 2384 4250 1959 4250 
Q 1534 4250 1286 3958 
Q 1038 3666 1038 3163 
Q 1038 2656 1286 2365 
Q 1534 2075 1959 2075 
z
" id="DejaVuSans-39" transform="scale(0.015625)"/>
     </defs>
     <use xlink:href="#DejaVuSans-52"/>
     <use x="69.482422" xlink:href="#DejaVuSans-b2"/>
     <use x="109.570312" xlink:href="#DejaVuSans-3a"/>
     <use x="143.261719" xlink:href="#DejaVuSans-20"/>
     <use x="175.048828" xlink:href="#DejaVuSans-30"/>
     <use x="238.671875" xlink:href="#DejaVuSans-2e"/>
     <use x="270.458984" xlink:href="#DejaVuSans-39"/>
     <use x="334.082031" xlink:href="#DejaVuSans-39"/>
     <use x="397.705078" xlink:href="#DejaVuSans-36"/>
     <use x="461.328125" xlink:href="#DejaVuSans-30"/>
     <use x="524.951172" xlink:href="#DejaVuSans-38"/>
     <use x="588.574219" xlink:href="#DejaVuSans-39"/>
    </g>
   </g>
   <g id="text_14">
    <!-- Fitted Hill equation -->
    <g transform="translate(349.212188 54.48)scale(0.12 -0.12)">
     <defs>
      <path d="M 628 4666 
L 3309 4666 
L 3309 4134 
L 1259 4134 
L 1259 2759 
L 3109 2759 
L 3109 2228 
L 1259 2228 
L 1259 0 
L 628 0 
L 628 4666 
z
" id="DejaVuSans-46" transform="scale(0.015625)"/>
      <path d="M 628 4666 
L 1259 4666 
L 1259 2753 
L 3553 2753 
L 3553 4666 
L 4184 4666 
L 4184 0 
L 3553 0 
L 3553 2222 
L 1259 2222 
L 1259 0 
L 628 0 
L 628 4666 
z
" id="DejaVuSans-48" transform="scale(0.015625)"/>
      <path d="M 603 4863 
L 1178 4863 
L 1178 0 
L 603 0 
L 603 4863 
z
" id="DejaVuSans-6c" transform="scale(0.015625)"/>
      <path d="M 947 1747 
Q 947 1113 1208 752 
Q 1469 391 1925 391 
Q 2381 391 2643 752 
Q 2906 1113 2906 1747 
Q 2906 2381 2643 2742 
Q 2381 3103 1925 3103 
Q 1469 3103 1208 2742 
Q 947 2381 947 1747 
z
M 2906 525 
Q 2725 213 2448 61 
Q 2172 -91 1784 -91 
Q 1150 -91 751 415 
Q 353 922 353 1747 
Q 353 2572 751 3078 
Q 1150 3584 1784 3584 
Q 2172 3584 2448 3432 
Q 2725 3281 2906 2969 
L 2906 3500 
L 3481 3500 
L 3481 -1331 
L 2906 -1331 
L 2906 525 
z
" id="DejaVuSans-71" transform="scale(0.015625)"/>
      <path d="M 544 1381 
L 544 3500 
L 1119 3500 
L 1119 1403 
Q 1119 906 1312 657 
Q 1506 409 1894 409 
Q 2359 409 2629 706 
Q 2900 1003 2900 1516 
L 2900 3500 
L 3475 3500 
L 3475 0 
L 2900 0 
L 2900 538 
Q 2691 219 2414 64 
Q 2138 -91 1772 -91 
Q 1169 -91 856 284 
Q 544 659 544 1381 
z
M 1991 3584 
L 1991 3584 
z
" id="DejaVuSans-75" transform="scale(0.015625)"/>
     </defs>
     <use xlink:href="#DejaVuSans-46"/>
     <use x="50.269531" xlink:href="#DejaVuSans-69"/>
     <use x="78.052734" xlink:href="#DejaVuSans-74"/>
     <use x="117.261719" xlink:href="#DejaVuSans-74"/>
     <use x="156.470703" xlink:href="#DejaVuSans-65"/>
     <use x="217.994141" xlink:href="#DejaVuSans-64"/>
     <use x="281.470703" xlink:href="#DejaVuSans-20"/>
     <use x="313.257812" xlink:href="#DejaVuSans-48"/>
     <use x="388.453125" xlink:href="#DejaVuSans-69"/>
     <use x="416.236328" xlink:href="#DejaVuSans-6c"/>
     <use x="444.019531" xlink:href="#DejaVuSans-6c"/>
     <use x="471.802734" xlink:href="#DejaVuSans-20"/>
     <use x="503.589844" xlink:href="#DejaVuSans-65"/>
     <use x="565.113281" xlink:href="#DejaVuSans-71"/>
     <use x="628.589844" xlink:href="#DejaVuSans-75"/>
     <use x="691.96875" xlink:href="#DejaVuSans-61"/>
     <use x="753.248047" xlink:href="#DejaVuSans-74"/>
     <use x="792.457031" xlink:href="#DejaVuSans-69"/>
     <use x="820.240234" xlink:href="#DejaVuSans-6f"/>
     <use x="881.421875" xlink:href="#DejaVuSans-6e"/>
    </g>
   </g>
   <g id="legend_1">
    <g id="patch_7">
     <path d="M 627.857813 436 
L 705.8 436 
Q 707.8 436 707.8 434 
L 707.8 405.365625 
Q 707.8 403.365625 705.8 403.365625 
L 627.857813 403.365625 
Q 625.857813 403.365625 625.857813 405.365625 
L 625.857813 434 
Q 625.857813 436 627.857813 436 
z
" style="fill:#ffffff;opacity:0.8;stroke:#cccccc;stroke-linejoin:miter;"/>
    </g>
    <g id="line2d_12">
     <path d="M 629.857813 411.464063 
L 649.857813 411.464063 
" style="fill:none;stroke:#1f77b4;stroke-linecap:square;stroke-width:1.5;"/>
    </g>
    <g id="line2d_13"/>
    <g id="text_15">
     <!-- Hill fit -->
     <g transform="translate(657.857813 414.964063)scale(0.1 -0.1)">
      <defs>
       <path d="M 2375 4863 
L 2375 4384 
L 1825 4384 
Q 1516 4384 1395 4259 
Q 1275 4134 1275 3809 
L 1275 3500 
L 2222 3500 
L 2222 3053 
L 1275 3053 
L 1275 0 
L 697 0 
L 697 3053 
L 147 3053 
L 147 3500 
L 697 3500 
L 697 3744 
Q 697 4328 969 4595 
Q 1241 4863 1831 4863 
L 2375 4863 
z
" id="DejaVuSans-66" transform="scale(0.015625)"/>
      </defs>
      <use xlink:href="#DejaVuSans-48"/>
      <use x="75.195312" xlink:href="#DejaVuSans-69"/>
      <use x="102.978516" xlink:href="#DejaVuSans-6c"/>
      <use x="130.761719" xlink:href="#DejaVuSans-6c"/>
      <use x="158.544922" xlink:href="#DejaVuSans-20"/>
      <use x="190.332031" xlink:href="#DejaVuSans-66"/>
      <use x="225.537109" xlink:href="#DejaVuSans-69"/>
      <use x="253.320312" xlink:href="#DejaVuSans-74"/>
     </g>
    </g>
    <g id="PathCollection_2">
     <g>
      <use style="fill:#1f77b4;stroke:#1f77b4;" x="639.857813" xlink:href="#mc7f7ff58d4" y="427.017187"/>
     </g>
    </g>
    <g id="text_16">
     <!-- raw_data -->
     <g transform="translate(657.857813 429.642187)scale(0.1 -0.1)">
      <defs>
       <path d="M 269 3500 
L 844 3500 
L 1563 769 
L 2278 3500 
L 2956 3500 
L 3675 769 
L 4391 3500 
L 4966 3500 
L 4050 0 
L 3372 0 
L 2619 2869 
L 1863 0 
L 1184 0 
L 269 3500 
z
" id="DejaVuSans-77" transform="scale(0.015625)"/>
       <path d="M 3263 -1063 
L 3263 -1509 
L -63 -1509 
L -63 -1063 
L 3263 -1063 
z
" id="DejaVuSans-5f" transform="scale(0.015625)"/>
      </defs>
      <use xlink:href="#DejaVuSans-72"/>
      <use x="41.113281" xlink:href="#DejaVuSans-61"/>
      <use x="102.392578" xlink:href="#DejaVuSans-77"/>
      <use x="184.179688" xlink:href="#DejaVuSans-5f"/>
      <use x="234.179688" xlink:href="#DejaVuSans-64"/>
      <use x="297.65625" xlink:href="#DejaVuSans-61"/>
      <use x="358.935547" xlink:href="#DejaVuSans-74"/>
      <use x="398.144531" xlink:href="#DejaVuSans-61"/>
     </g>
    </g>
   </g>
  </g>
 </g>
 <defs>
  <clipPath id="p36f475019f">
   <rect height="380.52" width="613.8" x="99" y="60.48"/>
  </clipPath>
 </defs>
</svg>
