<?xml version="1.0" encoding="utf-8" standalone="no"?>
<!DOCTYPE svg PUBLIC "-//W3C//DTD SVG 1.1//EN"
  "http://www.w3.org/Graphics/SVG/1.1/DTD/svg11.dtd">
<svg height="648pt" version="1.1" viewBox="0 0 1080 648" width="1080pt" xmlns="http://www.w3.org/2000/svg" xmlns:xlink="http://www.w3.org/1999/xlink">
 <metadata>
  <rdf:RDF xmlns:cc="http://creativecommons.org/ns#" xmlns:dc="http://purl.org/dc/elements/1.1/" xmlns:rdf="http://www.w3.org/1999/02/22-rdf-syntax-ns#">
   <cc:Work>
    <dc:type rdf:resource="http://purl.org/dc/dcmitype/StillImage"/>
    <dc:date>2021-10-19T23:31:08.738909</dc:date>
    <dc:format>image/svg+xml</dc:format>
    <dc:creator>
     <cc:Agent>
      <dc:title>Matplotlib v3.4.3, https://matplotlib.org/</dc:title>
     </cc:Agent>
    </dc:creator>
   </cc:Work>
  </rdf:RDF>
 </metadata>
 <defs>
  <style type="text/css">*{stroke-linecap:butt;stroke-linejoin:round;}</style>
 </defs>
 <g id="figure_1">
  <g id="patch_1">
   <path d="M 0 648 
L 1080 648 
L 1080 0 
L 0 0 
z
" style="fill:none;"/>
  </g>
  <g id="axes_1">
   <g id="patch_2">
    <path d="M 135 567 
L 972 567 
L 972 77.76 
L 135 77.76 
z
" style="fill:#ffffff;"/>
   </g>
   <g id="matplotlib.axis_1">
    <g id="xtick_1">
     <g id="line2d_1">
      <defs>
       <path d="M 0 0 
L 0 3.5 
" id="m664f8d052f" style="stroke:#000000;stroke-width:0.8;"/>
      </defs>
      <g>
       <use style="stroke:#000000;stroke-width:0.8;" x="173.045455" xlink:href="#m664f8d052f" y="567"/>
      </g>
     </g>
     <g id="text_1">
      <!-- 0 -->
      <g transform="translate(169.864205 581.598438)scale(0.1 -0.1)">
       <defs>
        <path d="M 2034 4250 
Q 1547 4250 1301 3770 
Q 1056 3291 1056 2328 
Q 1056 1369 1301 889 
Q 1547 409 2034 409 
Q 2525 409 2770 889 
Q 3016 1369 3016 2328 
Q 3016 3291 2770 3770 
Q 2525 4250 2034 4250 
z
M 2034 4750 
Q 2819 4750 3233 4129 
Q 3647 3509 3647 2328 
Q 3647 1150 3233 529 
Q 2819 -91 2034 -91 
Q 1250 -91 836 529 
Q 422 1150 422 2328 
Q 422 3509 836 4129 
Q 1250 4750 2034 4750 
z
" id="DejaVuSans-30" transform="scale(0.015625)"/>
       </defs>
       <use xlink:href="#DejaVuSans-30"/>
      </g>
     </g>
    </g>
    <g id="xtick_2">
     <g id="line2d_2">
      <g>
       <use style="stroke:#000000;stroke-width:0.8;" x="299.863636" xlink:href="#m664f8d052f" y="567"/>
      </g>
     </g>
     <g id="text_2">
      <!-- 20 -->
      <g transform="translate(293.501136 581.598438)scale(0.1 -0.1)">
       <defs>
        <path d="M 1228 531 
L 3431 531 
L 3431 0 
L 469 0 
L 469 531 
Q 828 903 1448 1529 
Q 2069 2156 2228 2338 
Q 2531 2678 2651 2914 
Q 2772 3150 2772 3378 
Q 2772 3750 2511 3984 
Q 2250 4219 1831 4219 
Q 1534 4219 1204 4116 
Q 875 4013 500 3803 
L 500 4441 
Q 881 4594 1212 4672 
Q 1544 4750 1819 4750 
Q 2544 4750 2975 4387 
Q 3406 4025 3406 3419 
Q 3406 3131 3298 2873 
Q 3191 2616 2906 2266 
Q 2828 2175 2409 1742 
Q 1991 1309 1228 531 
z
" id="DejaVuSans-32" transform="scale(0.015625)"/>
       </defs>
       <use xlink:href="#DejaVuSans-32"/>
       <use x="63.623047" xlink:href="#DejaVuSans-30"/>
      </g>
     </g>
    </g>
    <g id="xtick_3">
     <g id="line2d_3">
      <g>
       <use style="stroke:#000000;stroke-width:0.8;" x="426.681818" xlink:href="#m664f8d052f" y="567"/>
      </g>
     </g>
     <g id="text_3">
      <!-- 40 -->
      <g transform="translate(420.319318 581.598438)scale(0.1 -0.1)">
       <defs>
        <path d="M 2419 4116 
L 825 1625 
L 2419 1625 
L 2419 4116 
z
M 2253 4666 
L 3047 4666 
L 3047 1625 
L 3713 1625 
L 3713 1100 
L 3047 1100 
L 3047 0 
L 2419 0 
L 2419 1100 
L 313 1100 
L 313 1709 
L 2253 4666 
z
" id="DejaVuSans-34" transform="scale(0.015625)"/>
       </defs>
       <use xlink:href="#DejaVuSans-34"/>
       <use x="63.623047" xlink:href="#DejaVuSans-30"/>
      </g>
     </g>
    </g>
    <g id="xtick_4">
     <g id="line2d_4">
      <g>
       <use style="stroke:#000000;stroke-width:0.8;" x="553.5" xlink:href="#m664f8d052f" y="567"/>
      </g>
     </g>
     <g id="text_4">
      <!-- 60 -->
      <g transform="translate(547.1375 581.598438)scale(0.1 -0.1)">
       <defs>
        <path d="M 2113 2584 
Q 1688 2584 1439 2293 
Q 1191 2003 1191 1497 
Q 1191 994 1439 701 
Q 1688 409 2113 409 
Q 2538 409 2786 701 
Q 3034 994 3034 1497 
Q 3034 2003 2786 2293 
Q 2538 2584 2113 2584 
z
M 3366 4563 
L 3366 3988 
Q 3128 4100 2886 4159 
Q 2644 4219 2406 4219 
Q 1781 4219 1451 3797 
Q 1122 3375 1075 2522 
Q 1259 2794 1537 2939 
Q 1816 3084 2150 3084 
Q 2853 3084 3261 2657 
Q 3669 2231 3669 1497 
Q 3669 778 3244 343 
Q 2819 -91 2113 -91 
Q 1303 -91 875 529 
Q 447 1150 447 2328 
Q 447 3434 972 4092 
Q 1497 4750 2381 4750 
Q 2619 4750 2861 4703 
Q 3103 4656 3366 4563 
z
" id="DejaVuSans-36" transform="scale(0.015625)"/>
       </defs>
       <use xlink:href="#DejaVuSans-36"/>
       <use x="63.623047" xlink:href="#DejaVuSans-30"/>
      </g>
     </g>
    </g>
    <g id="xtick_5">
     <g id="line2d_5">
      <g>
       <use style="stroke:#000000;stroke-width:0.8;" x="680.318182" xlink:href="#m664f8d052f" y="567"/>
      </g>
     </g>
     <g id="text_5">
      <!-- 80 -->
      <g transform="translate(673.955682 581.598438)scale(0.1 -0.1)">
       <defs>
        <path d="M 2034 2216 
Q 1584 2216 1326 1975 
Q 1069 1734 1069 1313 
Q 1069 891 1326 650 
Q 1584 409 2034 409 
Q 2484 409 2743 651 
Q 3003 894 3003 1313 
Q 3003 1734 2745 1975 
Q 2488 2216 2034 2216 
z
M 1403 2484 
Q 997 2584 770 2862 
Q 544 3141 544 3541 
Q 544 4100 942 4425 
Q 1341 4750 2034 4750 
Q 2731 4750 3128 4425 
Q 3525 4100 3525 3541 
Q 3525 3141 3298 2862 
Q 3072 2584 2669 2484 
Q 3125 2378 3379 2068 
Q 3634 1759 3634 1313 
Q 3634 634 3220 271 
Q 2806 -91 2034 -91 
Q 1263 -91 848 271 
Q 434 634 434 1313 
Q 434 1759 690 2068 
Q 947 2378 1403 2484 
z
M 1172 3481 
Q 1172 3119 1398 2916 
Q 1625 2713 2034 2713 
Q 2441 2713 2670 2916 
Q 2900 3119 2900 3481 
Q 2900 3844 2670 4047 
Q 2441 4250 2034 4250 
Q 1625 4250 1398 4047 
Q 1172 3844 1172 3481 
z
" id="DejaVuSans-38" transform="scale(0.015625)"/>
       </defs>
       <use xlink:href="#DejaVuSans-38"/>
       <use x="63.623047" xlink:href="#DejaVuSans-30"/>
      </g>
     </g>
    </g>
    <g id="xtick_6">
     <g id="line2d_6">
      <g>
       <use style="stroke:#000000;stroke-width:0.8;" x="807.136364" xlink:href="#m664f8d052f" y="567"/>
      </g>
     </g>
     <g id="text_6">
      <!-- 100 -->
      <g transform="translate(797.592614 581.598438)scale(0.1 -0.1)">
       <defs>
        <path d="M 794 531 
L 1825 531 
L 1825 4091 
L 703 3866 
L 703 4441 
L 1819 4666 
L 2450 4666 
L 2450 531 
L 3481 531 
L 3481 0 
L 794 0 
L 794 531 
z
" id="DejaVuSans-31" transform="scale(0.015625)"/>
       </defs>
       <use xlink:href="#DejaVuSans-31"/>
       <use x="63.623047" xlink:href="#DejaVuSans-30"/>
       <use x="127.246094" xlink:href="#DejaVuSans-30"/>
      </g>
     </g>
    </g>
    <g id="xtick_7">
     <g id="line2d_7">
      <g>
       <use style="stroke:#000000;stroke-width:0.8;" x="933.954545" xlink:href="#m664f8d052f" y="567"/>
      </g>
     </g>
     <g id="text_7">
      <!-- 120 -->
      <g transform="translate(924.410795 581.598438)scale(0.1 -0.1)">
       <use xlink:href="#DejaVuSans-31"/>
       <use x="63.623047" xlink:href="#DejaVuSans-32"/>
       <use x="127.246094" xlink:href="#DejaVuSans-30"/>
      </g>
     </g>
    </g>
    <g id="text_8">
     <!-- time -->
     <g transform="translate(542.203906 595.276562)scale(0.1 -0.1)">
      <defs>
       <path d="M 1172 4494 
L 1172 3500 
L 2356 3500 
L 2356 3053 
L 1172 3053 
L 1172 1153 
Q 1172 725 1289 603 
Q 1406 481 1766 481 
L 2356 481 
L 2356 0 
L 1766 0 
Q 1100 0 847 248 
Q 594 497 594 1153 
L 594 3053 
L 172 3053 
L 172 3500 
L 594 3500 
L 594 4494 
L 1172 4494 
z
" id="DejaVuSans-74" transform="scale(0.015625)"/>
       <path d="M 603 3500 
L 1178 3500 
L 1178 0 
L 603 0 
L 603 3500 
z
M 603 4863 
L 1178 4863 
L 1178 4134 
L 603 4134 
L 603 4863 
z
" id="DejaVuSans-69" transform="scale(0.015625)"/>
       <path d="M 3328 2828 
Q 3544 3216 3844 3400 
Q 4144 3584 4550 3584 
Q 5097 3584 5394 3201 
Q 5691 2819 5691 2113 
L 5691 0 
L 5113 0 
L 5113 2094 
Q 5113 2597 4934 2840 
Q 4756 3084 4391 3084 
Q 3944 3084 3684 2787 
Q 3425 2491 3425 1978 
L 3425 0 
L 2847 0 
L 2847 2094 
Q 2847 2600 2669 2842 
Q 2491 3084 2119 3084 
Q 1678 3084 1418 2786 
Q 1159 2488 1159 1978 
L 1159 0 
L 581 0 
L 581 3500 
L 1159 3500 
L 1159 2956 
Q 1356 3278 1631 3431 
Q 1906 3584 2284 3584 
Q 2666 3584 2933 3390 
Q 3200 3197 3328 2828 
z
" id="DejaVuSans-6d" transform="scale(0.015625)"/>
       <path d="M 3597 1894 
L 3597 1613 
L 953 1613 
Q 991 1019 1311 708 
Q 1631 397 2203 397 
Q 2534 397 2845 478 
Q 3156 559 3463 722 
L 3463 178 
Q 3153 47 2828 -22 
Q 2503 -91 2169 -91 
Q 1331 -91 842 396 
Q 353 884 353 1716 
Q 353 2575 817 3079 
Q 1281 3584 2069 3584 
Q 2775 3584 3186 3129 
Q 3597 2675 3597 1894 
z
M 3022 2063 
Q 3016 2534 2758 2815 
Q 2500 3097 2075 3097 
Q 1594 3097 1305 2825 
Q 1016 2553 972 2059 
L 3022 2063 
z
" id="DejaVuSans-65" transform="scale(0.015625)"/>
      </defs>
      <use xlink:href="#DejaVuSans-74"/>
      <use x="39.208984" xlink:href="#DejaVuSans-69"/>
      <use x="66.992188" xlink:href="#DejaVuSans-6d"/>
      <use x="164.404297" xlink:href="#DejaVuSans-65"/>
     </g>
    </g>
   </g>
   <g id="matplotlib.axis_2">
    <g id="ytick_1">
     <g id="line2d_8">
      <defs>
       <path d="M 0 0 
L -3.5 0 
" id="m5cd4f20827" style="stroke:#000000;stroke-width:0.8;"/>
      </defs>
      <g>
       <use style="stroke:#000000;stroke-width:0.8;" x="135" xlink:href="#m5cd4f20827" y="558.449313"/>
      </g>
     </g>
     <g id="text_9">
      <!-- −8 -->
      <g transform="translate(113.257812 562.248532)scale(0.1 -0.1)">
       <defs>
        <path d="M 678 2272 
L 4684 2272 
L 4684 1741 
L 678 1741 
L 678 2272 
z
" id="DejaVuSans-2212" transform="scale(0.015625)"/>
       </defs>
       <use xlink:href="#DejaVuSans-2212"/>
       <use x="83.789062" xlink:href="#DejaVuSans-38"/>
      </g>
     </g>
    </g>
    <g id="ytick_2">
     <g id="line2d_9">
      <g>
       <use style="stroke:#000000;stroke-width:0.8;" x="135" xlink:href="#m5cd4f20827" y="475.539573"/>
      </g>
     </g>
     <g id="text_10">
      <!-- −6 -->
      <g transform="translate(113.257812 479.338792)scale(0.1 -0.1)">
       <use xlink:href="#DejaVuSans-2212"/>
       <use x="83.789062" xlink:href="#DejaVuSans-36"/>
      </g>
     </g>
    </g>
    <g id="ytick_3">
     <g id="line2d_10">
      <g>
       <use style="stroke:#000000;stroke-width:0.8;" x="135" xlink:href="#m5cd4f20827" y="392.629834"/>
      </g>
     </g>
     <g id="text_11">
      <!-- −4 -->
      <g transform="translate(113.257812 396.429052)scale(0.1 -0.1)">
       <use xlink:href="#DejaVuSans-2212"/>
       <use x="83.789062" xlink:href="#DejaVuSans-34"/>
      </g>
     </g>
    </g>
    <g id="ytick_4">
     <g id="line2d_11">
      <g>
       <use style="stroke:#000000;stroke-width:0.8;" x="135" xlink:href="#m5cd4f20827" y="309.720094"/>
      </g>
     </g>
     <g id="text_12">
      <!-- −2 -->
      <g transform="translate(113.257812 313.519313)scale(0.1 -0.1)">
       <use xlink:href="#DejaVuSans-2212"/>
       <use x="83.789062" xlink:href="#DejaVuSans-32"/>
      </g>
     </g>
    </g>
    <g id="ytick_5">
     <g id="line2d_12">
      <g>
       <use style="stroke:#000000;stroke-width:0.8;" x="135" xlink:href="#m5cd4f20827" y="226.810354"/>
      </g>
     </g>
     <g id="text_13">
      <!-- 0 -->
      <g transform="translate(121.6375 230.609573)scale(0.1 -0.1)">
       <use xlink:href="#DejaVuSans-30"/>
      </g>
     </g>
    </g>
    <g id="ytick_6">
     <g id="line2d_13">
      <g>
       <use style="stroke:#000000;stroke-width:0.8;" x="135" xlink:href="#m5cd4f20827" y="143.900615"/>
      </g>
     </g>
     <g id="text_14">
      <!-- 2 -->
      <g transform="translate(121.6375 147.699834)scale(0.1 -0.1)">
       <use xlink:href="#DejaVuSans-32"/>
      </g>
     </g>
    </g>
    <g id="text_15">
     <!-- oxidation proportion -->
     <g transform="translate(107.178125 373.079219)rotate(-90)scale(0.1 -0.1)">
      <defs>
       <path d="M 1959 3097 
Q 1497 3097 1228 2736 
Q 959 2375 959 1747 
Q 959 1119 1226 758 
Q 1494 397 1959 397 
Q 2419 397 2687 759 
Q 2956 1122 2956 1747 
Q 2956 2369 2687 2733 
Q 2419 3097 1959 3097 
z
M 1959 3584 
Q 2709 3584 3137 3096 
Q 3566 2609 3566 1747 
Q 3566 888 3137 398 
Q 2709 -91 1959 -91 
Q 1206 -91 779 398 
Q 353 888 353 1747 
Q 353 2609 779 3096 
Q 1206 3584 1959 3584 
z
" id="DejaVuSans-6f" transform="scale(0.015625)"/>
       <path d="M 3513 3500 
L 2247 1797 
L 3578 0 
L 2900 0 
L 1881 1375 
L 863 0 
L 184 0 
L 1544 1831 
L 300 3500 
L 978 3500 
L 1906 2253 
L 2834 3500 
L 3513 3500 
z
" id="DejaVuSans-78" transform="scale(0.015625)"/>
       <path d="M 2906 2969 
L 2906 4863 
L 3481 4863 
L 3481 0 
L 2906 0 
L 2906 525 
Q 2725 213 2448 61 
Q 2172 -91 1784 -91 
Q 1150 -91 751 415 
Q 353 922 353 1747 
Q 353 2572 751 3078 
Q 1150 3584 1784 3584 
Q 2172 3584 2448 3432 
Q 2725 3281 2906 2969 
z
M 947 1747 
Q 947 1113 1208 752 
Q 1469 391 1925 391 
Q 2381 391 2643 752 
Q 2906 1113 2906 1747 
Q 2906 2381 2643 2742 
Q 2381 3103 1925 3103 
Q 1469 3103 1208 2742 
Q 947 2381 947 1747 
z
" id="DejaVuSans-64" transform="scale(0.015625)"/>
       <path d="M 2194 1759 
Q 1497 1759 1228 1600 
Q 959 1441 959 1056 
Q 959 750 1161 570 
Q 1363 391 1709 391 
Q 2188 391 2477 730 
Q 2766 1069 2766 1631 
L 2766 1759 
L 2194 1759 
z
M 3341 1997 
L 3341 0 
L 2766 0 
L 2766 531 
Q 2569 213 2275 61 
Q 1981 -91 1556 -91 
Q 1019 -91 701 211 
Q 384 513 384 1019 
Q 384 1609 779 1909 
Q 1175 2209 1959 2209 
L 2766 2209 
L 2766 2266 
Q 2766 2663 2505 2880 
Q 2244 3097 1772 3097 
Q 1472 3097 1187 3025 
Q 903 2953 641 2809 
L 641 3341 
Q 956 3463 1253 3523 
Q 1550 3584 1831 3584 
Q 2591 3584 2966 3190 
Q 3341 2797 3341 1997 
z
" id="DejaVuSans-61" transform="scale(0.015625)"/>
       <path d="M 3513 2113 
L 3513 0 
L 2938 0 
L 2938 2094 
Q 2938 2591 2744 2837 
Q 2550 3084 2163 3084 
Q 1697 3084 1428 2787 
Q 1159 2491 1159 1978 
L 1159 0 
L 581 0 
L 581 3500 
L 1159 3500 
L 1159 2956 
Q 1366 3272 1645 3428 
Q 1925 3584 2291 3584 
Q 2894 3584 3203 3211 
Q 3513 2838 3513 2113 
z
" id="DejaVuSans-6e" transform="scale(0.015625)"/>
       <path id="DejaVuSans-20" transform="scale(0.015625)"/>
       <path d="M 1159 525 
L 1159 -1331 
L 581 -1331 
L 581 3500 
L 1159 3500 
L 1159 2969 
Q 1341 3281 1617 3432 
Q 1894 3584 2278 3584 
Q 2916 3584 3314 3078 
Q 3713 2572 3713 1747 
Q 3713 922 3314 415 
Q 2916 -91 2278 -91 
Q 1894 -91 1617 61 
Q 1341 213 1159 525 
z
M 3116 1747 
Q 3116 2381 2855 2742 
Q 2594 3103 2138 3103 
Q 1681 3103 1420 2742 
Q 1159 2381 1159 1747 
Q 1159 1113 1420 752 
Q 1681 391 2138 391 
Q 2594 391 2855 752 
Q 3116 1113 3116 1747 
z
" id="DejaVuSans-70" transform="scale(0.015625)"/>
       <path d="M 2631 2963 
Q 2534 3019 2420 3045 
Q 2306 3072 2169 3072 
Q 1681 3072 1420 2755 
Q 1159 2438 1159 1844 
L 1159 0 
L 581 0 
L 581 3500 
L 1159 3500 
L 1159 2956 
Q 1341 3275 1631 3429 
Q 1922 3584 2338 3584 
Q 2397 3584 2469 3576 
Q 2541 3569 2628 3553 
L 2631 2963 
z
" id="DejaVuSans-72" transform="scale(0.015625)"/>
      </defs>
      <use xlink:href="#DejaVuSans-6f"/>
      <use x="58.056641" xlink:href="#DejaVuSans-78"/>
      <use x="117.236328" xlink:href="#DejaVuSans-69"/>
      <use x="145.019531" xlink:href="#DejaVuSans-64"/>
      <use x="208.496094" xlink:href="#DejaVuSans-61"/>
      <use x="269.775391" xlink:href="#DejaVuSans-74"/>
      <use x="308.984375" xlink:href="#DejaVuSans-69"/>
      <use x="336.767578" xlink:href="#DejaVuSans-6f"/>
      <use x="397.949219" xlink:href="#DejaVuSans-6e"/>
      <use x="461.328125" xlink:href="#DejaVuSans-20"/>
      <use x="493.115234" xlink:href="#DejaVuSans-70"/>
      <use x="556.591797" xlink:href="#DejaVuSans-72"/>
      <use x="595.455078" xlink:href="#DejaVuSans-6f"/>
      <use x="656.636719" xlink:href="#DejaVuSans-70"/>
      <use x="720.113281" xlink:href="#DejaVuSans-6f"/>
      <use x="781.294922" xlink:href="#DejaVuSans-72"/>
      <use x="822.408203" xlink:href="#DejaVuSans-74"/>
      <use x="861.617188" xlink:href="#DejaVuSans-69"/>
      <use x="889.400391" xlink:href="#DejaVuSans-6f"/>
      <use x="950.582031" xlink:href="#DejaVuSans-6e"/>
     </g>
    </g>
    <g id="text_16">
     <!-- 1e6 -->
     <g transform="translate(135 74.76)scale(0.1 -0.1)">
      <use xlink:href="#DejaVuSans-31"/>
      <use x="63.623047" xlink:href="#DejaVuSans-65"/>
      <use x="125.146484" xlink:href="#DejaVuSans-36"/>
     </g>
    </g>
   </g>
   <g id="line2d_14">
    <path clip-path="url(#p53ee1ad004)" d="M 173.045455 226.810354 
L 173.108869 120.932919 
L 173.172283 201.240167 
L 173.235698 99.998182 
L 173.299112 161.031021 
L 173.362526 223.220546 
L 173.425941 189.432169 
L 173.55277 101.946922 
L 173.616184 127.378052 
L 173.869841 223.977009 
L 173.99667 210.437237 
L 174.377156 133.418304 
L 174.440571 140.796864 
L 175.0113 210.653272 
L 175.201543 225.822568 
L 175.835687 198.437118 
L 176.469831 179.77161 
L 176.977146 194.873821 
L 177.738118 212.553707 
L 178.562505 226.543812 
L 178.62592 226.434935 
L 178.942991 224.796883 
L 179.323478 223.858258 
L 179.830793 223.209828 
L 180.464936 222.772876 
L 181.416152 222.420589 
L 182.621025 222.212555 
L 184.14297 221.888971 
L 184.967357 221.502968 
L 185.474672 221.046402 
L 185.855158 220.418199 
L 186.17223 219.405652 
L 186.425888 217.657957 
L 186.616131 214.425661 
L 186.74296 208.388241 
L 186.806374 200.267655 
L 186.869788 171.192317 
L 186.933203 400.632253 
L 186.996617 255.458324 
L 187.18686 232.270617 
L 187.440518 227.666154 
L 187.567347 226.863288 
L 187.630761 226.988057 
L 187.884418 227.126309 
L 188.77222 227.193765 
L 194.479513 227.220803 
L 198.284376 227.114765 
L 204.245327 226.915194 
L 213.694069 226.823088 
L 246.098815 226.833871 
L 336.337471 226.83935 
L 346.864258 226.968874 
L 348.005716 227.161848 
L 348.386203 227.409025 
L 348.576446 227.736973 
L 348.703275 228.27312 
L 348.830103 230.295623 
L 348.893518 238.157388 
L 348.956932 217.797765 
L 349.020346 223.588006 
L 349.21059 225.711721 
L 349.464247 226.226993 
L 349.844733 226.468953 
L 350.605706 226.624881 
L 352.571551 226.726759 
L 359.737376 226.784583 
L 409.707904 226.808795 
L 916.579007 226.745465 
L 916.705835 226.680314 
L 916.76925 226.549932 
L 916.832664 544.761818 
L 916.959493 226.940759 
L 917.276565 226.847792 
L 919.178996 226.817629 
L 933.954545 226.811554 
L 933.954545 226.811554 
" style="fill:none;stroke:#1f77b4;stroke-linecap:square;stroke-width:1.5;"/>
   </g>
   <g id="line2d_15">
    <path clip-path="url(#p53ee1ad004)" d="M 173.045455 226.810352 
L 933.954545 226.810352 
L 933.954545 226.810352 
" style="fill:none;stroke:#ff7f0e;stroke-linecap:square;stroke-width:1.5;"/>
   </g>
   <g id="line2d_16">
    <path clip-path="url(#p53ee1ad004)" d="M 173.045455 226.81035 
L 933.954545 226.81035 
L 933.954545 226.81035 
" style="fill:none;stroke:#2ca02c;stroke-linecap:square;stroke-width:1.5;"/>
   </g>
   <g id="patch_3">
    <path d="M 135 567 
L 135 77.76 
" style="fill:none;stroke:#000000;stroke-linecap:square;stroke-linejoin:miter;stroke-width:0.8;"/>
   </g>
   <g id="patch_4">
    <path d="M 972 567 
L 972 77.76 
" style="fill:none;stroke:#000000;stroke-linecap:square;stroke-linejoin:miter;stroke-width:0.8;"/>
   </g>
   <g id="patch_5">
    <path d="M 135 567 
L 972 567 
" style="fill:none;stroke:#000000;stroke-linecap:square;stroke-linejoin:miter;stroke-width:0.8;"/>
   </g>
   <g id="patch_6">
    <path d="M 135 77.76 
L 972 77.76 
" style="fill:none;stroke:#000000;stroke-linecap:square;stroke-linejoin:miter;stroke-width:0.8;"/>
   </g>
   <g id="text_17">
    <!-- Oxidation proportion of prokaryotic membrane fatty acids -->
    <g transform="translate(379.78875 71.76)scale(0.12 -0.12)">
     <defs>
      <path d="M 2522 4238 
Q 1834 4238 1429 3725 
Q 1025 3213 1025 2328 
Q 1025 1447 1429 934 
Q 1834 422 2522 422 
Q 3209 422 3611 934 
Q 4013 1447 4013 2328 
Q 4013 3213 3611 3725 
Q 3209 4238 2522 4238 
z
M 2522 4750 
Q 3503 4750 4090 4092 
Q 4678 3434 4678 2328 
Q 4678 1225 4090 567 
Q 3503 -91 2522 -91 
Q 1538 -91 948 565 
Q 359 1222 359 2328 
Q 359 3434 948 4092 
Q 1538 4750 2522 4750 
z
" id="DejaVuSans-4f" transform="scale(0.015625)"/>
      <path d="M 2375 4863 
L 2375 4384 
L 1825 4384 
Q 1516 4384 1395 4259 
Q 1275 4134 1275 3809 
L 1275 3500 
L 2222 3500 
L 2222 3053 
L 1275 3053 
L 1275 0 
L 697 0 
L 697 3053 
L 147 3053 
L 147 3500 
L 697 3500 
L 697 3744 
Q 697 4328 969 4595 
Q 1241 4863 1831 4863 
L 2375 4863 
z
" id="DejaVuSans-66" transform="scale(0.015625)"/>
      <path d="M 581 4863 
L 1159 4863 
L 1159 1991 
L 2875 3500 
L 3609 3500 
L 1753 1863 
L 3688 0 
L 2938 0 
L 1159 1709 
L 1159 0 
L 581 0 
L 581 4863 
z
" id="DejaVuSans-6b" transform="scale(0.015625)"/>
      <path d="M 2059 -325 
Q 1816 -950 1584 -1140 
Q 1353 -1331 966 -1331 
L 506 -1331 
L 506 -850 
L 844 -850 
Q 1081 -850 1212 -737 
Q 1344 -625 1503 -206 
L 1606 56 
L 191 3500 
L 800 3500 
L 1894 763 
L 2988 3500 
L 3597 3500 
L 2059 -325 
z
" id="DejaVuSans-79" transform="scale(0.015625)"/>
      <path d="M 3122 3366 
L 3122 2828 
Q 2878 2963 2633 3030 
Q 2388 3097 2138 3097 
Q 1578 3097 1268 2742 
Q 959 2388 959 1747 
Q 959 1106 1268 751 
Q 1578 397 2138 397 
Q 2388 397 2633 464 
Q 2878 531 3122 666 
L 3122 134 
Q 2881 22 2623 -34 
Q 2366 -91 2075 -91 
Q 1284 -91 818 406 
Q 353 903 353 1747 
Q 353 2603 823 3093 
Q 1294 3584 2113 3584 
Q 2378 3584 2631 3529 
Q 2884 3475 3122 3366 
z
" id="DejaVuSans-63" transform="scale(0.015625)"/>
      <path d="M 3116 1747 
Q 3116 2381 2855 2742 
Q 2594 3103 2138 3103 
Q 1681 3103 1420 2742 
Q 1159 2381 1159 1747 
Q 1159 1113 1420 752 
Q 1681 391 2138 391 
Q 2594 391 2855 752 
Q 3116 1113 3116 1747 
z
M 1159 2969 
Q 1341 3281 1617 3432 
Q 1894 3584 2278 3584 
Q 2916 3584 3314 3078 
Q 3713 2572 3713 1747 
Q 3713 922 3314 415 
Q 2916 -91 2278 -91 
Q 1894 -91 1617 61 
Q 1341 213 1159 525 
L 1159 0 
L 581 0 
L 581 4863 
L 1159 4863 
L 1159 2969 
z
" id="DejaVuSans-62" transform="scale(0.015625)"/>
      <path d="M 2834 3397 
L 2834 2853 
Q 2591 2978 2328 3040 
Q 2066 3103 1784 3103 
Q 1356 3103 1142 2972 
Q 928 2841 928 2578 
Q 928 2378 1081 2264 
Q 1234 2150 1697 2047 
L 1894 2003 
Q 2506 1872 2764 1633 
Q 3022 1394 3022 966 
Q 3022 478 2636 193 
Q 2250 -91 1575 -91 
Q 1294 -91 989 -36 
Q 684 19 347 128 
L 347 722 
Q 666 556 975 473 
Q 1284 391 1588 391 
Q 1994 391 2212 530 
Q 2431 669 2431 922 
Q 2431 1156 2273 1281 
Q 2116 1406 1581 1522 
L 1381 1569 
Q 847 1681 609 1914 
Q 372 2147 372 2553 
Q 372 3047 722 3315 
Q 1072 3584 1716 3584 
Q 2034 3584 2315 3537 
Q 2597 3491 2834 3397 
z
" id="DejaVuSans-73" transform="scale(0.015625)"/>
     </defs>
     <use xlink:href="#DejaVuSans-4f"/>
     <use x="78.710938" xlink:href="#DejaVuSans-78"/>
     <use x="137.890625" xlink:href="#DejaVuSans-69"/>
     <use x="165.673828" xlink:href="#DejaVuSans-64"/>
     <use x="229.150391" xlink:href="#DejaVuSans-61"/>
     <use x="290.429688" xlink:href="#DejaVuSans-74"/>
     <use x="329.638672" xlink:href="#DejaVuSans-69"/>
     <use x="357.421875" xlink:href="#DejaVuSans-6f"/>
     <use x="418.603516" xlink:href="#DejaVuSans-6e"/>
     <use x="481.982422" xlink:href="#DejaVuSans-20"/>
     <use x="513.769531" xlink:href="#DejaVuSans-70"/>
     <use x="577.246094" xlink:href="#DejaVuSans-72"/>
     <use x="616.109375" xlink:href="#DejaVuSans-6f"/>
     <use x="677.291016" xlink:href="#DejaVuSans-70"/>
     <use x="740.767578" xlink:href="#DejaVuSans-6f"/>
     <use x="801.949219" xlink:href="#DejaVuSans-72"/>
     <use x="843.0625" xlink:href="#DejaVuSans-74"/>
     <use x="882.271484" xlink:href="#DejaVuSans-69"/>
     <use x="910.054688" xlink:href="#DejaVuSans-6f"/>
     <use x="971.236328" xlink:href="#DejaVuSans-6e"/>
     <use x="1034.615234" xlink:href="#DejaVuSans-20"/>
     <use x="1066.402344" xlink:href="#DejaVuSans-6f"/>
     <use x="1127.583984" xlink:href="#DejaVuSans-66"/>
     <use x="1162.789062" xlink:href="#DejaVuSans-20"/>
     <use x="1194.576172" xlink:href="#DejaVuSans-70"/>
     <use x="1258.052734" xlink:href="#DejaVuSans-72"/>
     <use x="1296.916016" xlink:href="#DejaVuSans-6f"/>
     <use x="1358.097656" xlink:href="#DejaVuSans-6b"/>
     <use x="1414.257812" xlink:href="#DejaVuSans-61"/>
     <use x="1475.537109" xlink:href="#DejaVuSans-72"/>
     <use x="1516.650391" xlink:href="#DejaVuSans-79"/>
     <use x="1575.830078" xlink:href="#DejaVuSans-6f"/>
     <use x="1637.011719" xlink:href="#DejaVuSans-74"/>
     <use x="1676.220703" xlink:href="#DejaVuSans-69"/>
     <use x="1704.003906" xlink:href="#DejaVuSans-63"/>
     <use x="1758.984375" xlink:href="#DejaVuSans-20"/>
     <use x="1790.771484" xlink:href="#DejaVuSans-6d"/>
     <use x="1888.183594" xlink:href="#DejaVuSans-65"/>
     <use x="1949.707031" xlink:href="#DejaVuSans-6d"/>
     <use x="2047.119141" xlink:href="#DejaVuSans-62"/>
     <use x="2110.595703" xlink:href="#DejaVuSans-72"/>
     <use x="2151.708984" xlink:href="#DejaVuSans-61"/>
     <use x="2212.988281" xlink:href="#DejaVuSans-6e"/>
     <use x="2276.367188" xlink:href="#DejaVuSans-65"/>
     <use x="2337.890625" xlink:href="#DejaVuSans-20"/>
     <use x="2369.677734" xlink:href="#DejaVuSans-66"/>
     <use x="2404.882812" xlink:href="#DejaVuSans-61"/>
     <use x="2466.162109" xlink:href="#DejaVuSans-74"/>
     <use x="2505.371094" xlink:href="#DejaVuSans-74"/>
     <use x="2544.580078" xlink:href="#DejaVuSans-79"/>
     <use x="2603.759766" xlink:href="#DejaVuSans-20"/>
     <use x="2635.546875" xlink:href="#DejaVuSans-61"/>
     <use x="2696.826172" xlink:href="#DejaVuSans-63"/>
     <use x="2751.806641" xlink:href="#DejaVuSans-69"/>
     <use x="2779.589844" xlink:href="#DejaVuSans-64"/>
     <use x="2843.066406" xlink:href="#DejaVuSans-73"/>
    </g>
   </g>
   <g id="legend_1">
    <g id="patch_7">
     <path d="M 829.779688 130.62875 
L 965 130.62875 
Q 967 130.62875 967 128.62875 
L 967 84.76 
Q 967 82.76 965 82.76 
L 829.779688 82.76 
Q 827.779688 82.76 827.779688 84.76 
L 827.779688 128.62875 
Q 827.779688 130.62875 829.779688 130.62875 
z
" style="fill:#ffffff;opacity:0.8;stroke:#cccccc;stroke-linejoin:miter;"/>
    </g>
    <g id="line2d_17">
     <path d="M 831.779688 90.858437 
L 851.779688 90.858437 
" style="fill:none;stroke:#1f77b4;stroke-linecap:square;stroke-width:1.5;"/>
    </g>
    <g id="line2d_18"/>
    <g id="text_18">
     <!-- oxidation_proportion -->
     <g transform="translate(859.779688 94.358437)scale(0.1 -0.1)">
      <defs>
       <path d="M 3263 -1063 
L 3263 -1509 
L -63 -1509 
L -63 -1063 
L 3263 -1063 
z
" id="DejaVuSans-5f" transform="scale(0.015625)"/>
      </defs>
      <use xlink:href="#DejaVuSans-6f"/>
      <use x="58.056641" xlink:href="#DejaVuSans-78"/>
      <use x="117.236328" xlink:href="#DejaVuSans-69"/>
      <use x="145.019531" xlink:href="#DejaVuSans-64"/>
      <use x="208.496094" xlink:href="#DejaVuSans-61"/>
      <use x="269.775391" xlink:href="#DejaVuSans-74"/>
      <use x="308.984375" xlink:href="#DejaVuSans-69"/>
      <use x="336.767578" xlink:href="#DejaVuSans-6f"/>
      <use x="397.949219" xlink:href="#DejaVuSans-6e"/>
      <use x="461.328125" xlink:href="#DejaVuSans-5f"/>
      <use x="511.328125" xlink:href="#DejaVuSans-70"/>
      <use x="574.804688" xlink:href="#DejaVuSans-72"/>
      <use x="613.667969" xlink:href="#DejaVuSans-6f"/>
      <use x="674.849609" xlink:href="#DejaVuSans-70"/>
      <use x="738.326172" xlink:href="#DejaVuSans-6f"/>
      <use x="799.507812" xlink:href="#DejaVuSans-72"/>
      <use x="840.621094" xlink:href="#DejaVuSans-74"/>
      <use x="879.830078" xlink:href="#DejaVuSans-69"/>
      <use x="907.613281" xlink:href="#DejaVuSans-6f"/>
      <use x="968.794922" xlink:href="#DejaVuSans-6e"/>
     </g>
    </g>
    <g id="line2d_19">
     <path d="M 831.779688 105.814687 
L 851.779688 105.814687 
" style="fill:none;stroke:#ff7f0e;stroke-linecap:square;stroke-width:1.5;"/>
    </g>
    <g id="line2d_20"/>
    <g id="text_19">
     <!-- biofilm_thershold -->
     <g transform="translate(859.779688 109.314687)scale(0.1 -0.1)">
      <defs>
       <path d="M 603 4863 
L 1178 4863 
L 1178 0 
L 603 0 
L 603 4863 
z
" id="DejaVuSans-6c" transform="scale(0.015625)"/>
       <path d="M 3513 2113 
L 3513 0 
L 2938 0 
L 2938 2094 
Q 2938 2591 2744 2837 
Q 2550 3084 2163 3084 
Q 1697 3084 1428 2787 
Q 1159 2491 1159 1978 
L 1159 0 
L 581 0 
L 581 4863 
L 1159 4863 
L 1159 2956 
Q 1366 3272 1645 3428 
Q 1925 3584 2291 3584 
Q 2894 3584 3203 3211 
Q 3513 2838 3513 2113 
z
" id="DejaVuSans-68" transform="scale(0.015625)"/>
      </defs>
      <use xlink:href="#DejaVuSans-62"/>
      <use x="63.476562" xlink:href="#DejaVuSans-69"/>
      <use x="91.259766" xlink:href="#DejaVuSans-6f"/>
      <use x="152.441406" xlink:href="#DejaVuSans-66"/>
      <use x="187.646484" xlink:href="#DejaVuSans-69"/>
      <use x="215.429688" xlink:href="#DejaVuSans-6c"/>
      <use x="243.212891" xlink:href="#DejaVuSans-6d"/>
      <use x="340.625" xlink:href="#DejaVuSans-5f"/>
      <use x="390.625" xlink:href="#DejaVuSans-74"/>
      <use x="429.833984" xlink:href="#DejaVuSans-68"/>
      <use x="493.212891" xlink:href="#DejaVuSans-65"/>
      <use x="554.736328" xlink:href="#DejaVuSans-72"/>
      <use x="595.849609" xlink:href="#DejaVuSans-73"/>
      <use x="647.949219" xlink:href="#DejaVuSans-68"/>
      <use x="711.328125" xlink:href="#DejaVuSans-6f"/>
      <use x="772.509766" xlink:href="#DejaVuSans-6c"/>
      <use x="800.292969" xlink:href="#DejaVuSans-64"/>
     </g>
    </g>
    <g id="line2d_21">
     <path d="M 831.779688 120.770937 
L 851.779688 120.770937 
" style="fill:none;stroke:#2ca02c;stroke-linecap:square;stroke-width:1.5;"/>
    </g>
    <g id="line2d_22"/>
    <g id="text_20">
     <!-- vitality_threshold -->
     <g transform="translate(859.779688 124.270937)scale(0.1 -0.1)">
      <defs>
       <path d="M 191 3500 
L 800 3500 
L 1894 563 
L 2988 3500 
L 3597 3500 
L 2284 0 
L 1503 0 
L 191 3500 
z
" id="DejaVuSans-76" transform="scale(0.015625)"/>
      </defs>
      <use xlink:href="#DejaVuSans-76"/>
      <use x="59.179688" xlink:href="#DejaVuSans-69"/>
      <use x="86.962891" xlink:href="#DejaVuSans-74"/>
      <use x="126.171875" xlink:href="#DejaVuSans-61"/>
      <use x="187.451172" xlink:href="#DejaVuSans-6c"/>
      <use x="215.234375" xlink:href="#DejaVuSans-69"/>
      <use x="243.017578" xlink:href="#DejaVuSans-74"/>
      <use x="282.226562" xlink:href="#DejaVuSans-79"/>
      <use x="341.40625" xlink:href="#DejaVuSans-5f"/>
      <use x="391.40625" xlink:href="#DejaVuSans-74"/>
      <use x="430.615234" xlink:href="#DejaVuSans-68"/>
      <use x="493.994141" xlink:href="#DejaVuSans-72"/>
      <use x="532.857422" xlink:href="#DejaVuSans-65"/>
      <use x="594.380859" xlink:href="#DejaVuSans-73"/>
      <use x="646.480469" xlink:href="#DejaVuSans-68"/>
      <use x="709.859375" xlink:href="#DejaVuSans-6f"/>
      <use x="771.041016" xlink:href="#DejaVuSans-6c"/>
      <use x="798.824219" xlink:href="#DejaVuSans-64"/>
     </g>
    </g>
   </g>
  </g>
 </g>
 <defs>
  <clipPath id="p53ee1ad004">
   <rect height="489.24" width="837" x="135" y="77.76"/>
  </clipPath>
 </defs>
</svg>
