<?xml version="1.0" encoding="UTF-8" standalone="no"?>
<svg
   xmlns:dc="http://purl.org/dc/elements/1.1/"
   xmlns:cc="http://creativecommons.org/ns#"
   xmlns:rdf="http://www.w3.org/1999/02/22-rdf-syntax-ns#"
   xmlns:svg="http://www.w3.org/2000/svg"
   xmlns="http://www.w3.org/2000/svg"
   xmlns:xlink="http://www.w3.org/1999/xlink"
   xmlns:sodipodi="http://sodipodi.sourceforge.net/DTD/sodipodi-0.dtd"
   xmlns:inkscape="http://www.inkscape.org/namespaces/inkscape"
   height="504pt"
   version="1.1"
   viewBox="0 0 792 504"
   width="792pt"
   id="svg374"
   sodipodi:docname="inactivation.svg"
   inkscape:version="1.0.2-2 (e86c870879, 2021-01-15)"
   inkscape:export-filename="C:\Users\Andrew Freiburger\Dropbox\My PC (DESKTOP-M302P50)\Documents\UVic Civil Engineering\PDIpy\Publication\images\examples\Beirao_et_al\20uM.png"
   inkscape:export-xdpi="350"
   inkscape:export-ydpi="350">
  <sodipodi:namedview
     pagecolor="#ffffff"
     bordercolor="#666666"
     borderopacity="1"
     objecttolerance="10"
     gridtolerance="10"
     guidetolerance="10"
     inkscape:pageopacity="0"
     inkscape:pageshadow="2"
     inkscape:window-width="1749"
     inkscape:window-height="1022"
     id="namedview376"
     showgrid="false"
     inkscape:zoom="0.77138922"
     inkscape:cx="479.38201"
     inkscape:cy="318.81438"
     inkscape:window-x="0"
     inkscape:window-y="0"
     inkscape:window-maximized="0"
     inkscape:current-layer="svg374" />
  <metadata
     id="metadata2">
    <rdf:RDF>
      <cc:Work>
        <dc:type
           rdf:resource="http://purl.org/dc/dcmitype/StillImage" />
        <dc:date>2022-02-14T02:07:09.559414</dc:date>
        <dc:format>image/svg+xml</dc:format>
        <dc:creator>
          <cc:Agent>
            <dc:title>Matplotlib v3.4.3, https://matplotlib.org/</dc:title>
          </cc:Agent>
        </dc:creator>
      </cc:Work>
    </rdf:RDF>
  </metadata>
  <defs
     id="defs6">
    <style
       type="text/css"
       id="style4">*{stroke-linecap:butt;stroke-linejoin:round;}</style>
    <clipPath
       clipPathUnits="userSpaceOnUse"
       id="clipPath1799">
      <rect
         style="opacity:0.401961;fill:#ff0000;stroke:#000000;stroke-width:0.99975;stroke-linecap:round;paint-order:stroke markers fill"
         id="rect1801"
         width="650.44983"
         height="448.21735"
         x="70.003571"
         y="29.168156" />
    </clipPath>
    <clipPath
       clipPathUnits="userSpaceOnUse"
       id="clipPath1662">
      <rect
         style="opacity:0.401961;fill:#ff0000;stroke:#000000;stroke-width:0.99975;stroke-linecap:round;paint-order:stroke markers fill"
         id="rect1664"
         width="654.33893"
         height="443.35596"
         x="59.896919"
         y="36.34325" />
    </clipPath>
    <clipPath
       clipPathUnits="userSpaceOnUse"
       id="clipPath1666">
      <rect
         style="opacity:0.401961;fill:#ff0000;stroke:#000000;stroke-width:0.558051;stroke-linecap:round;paint-order:stroke markers fill"
         id="rect1668"
         width="365.24561"
         height="247.47697"
         x="143.51154"
         y="236.18309" />
    </clipPath>
    <clipPath
       clipPathUnits="userSpaceOnUse"
       id="clipPath1670">
      <rect
         style="opacity:0.401961;fill:#ff0000;stroke:#000000;stroke-width:0.615125;stroke-linecap:round;paint-order:stroke markers fill"
         id="rect1672"
         width="402.60089"
         height="272.78754"
         x="194.41104"
         y="41.660934" />
    </clipPath>
    <clipPath
       clipPathUnits="userSpaceOnUse"
       id="clipPath1674">
      <rect
         style="opacity:0.401961;fill:#ff0000;stroke:#000000;stroke-width:0.99975;stroke-linecap:round;paint-order:stroke markers fill"
         id="rect1676"
         width="654.33893"
         height="443.35596"
         x="64.169937"
         y="32.084969" />
    </clipPath>
    <clipPath
       clipPathUnits="userSpaceOnUse"
       id="clipPath1678">
      <rect
         style="opacity:0.401961;fill:#ff0000;stroke:#000000;stroke-width:0.99975;stroke-linecap:round;paint-order:stroke markers fill"
         id="rect1680"
         width="654.33893"
         height="443.35596"
         x="64.169937"
         y="32.084969" />
    </clipPath>
    <clipPath
       clipPathUnits="userSpaceOnUse"
       id="clipPath1682">
      <rect
         style="opacity:0.401961;fill:#ff0000;stroke:#000000;stroke-width:0.99975;stroke-linecap:round;paint-order:stroke markers fill"
         id="rect1684"
         width="654.33893"
         height="443.35596"
         x="64.169937"
         y="32.084969" />
    </clipPath>
    <clipPath
       clipPathUnits="userSpaceOnUse"
       id="clipPath1686">
      <rect
         style="opacity:0.401961;fill:#ff0000;stroke:#000000;stroke-width:0.99975;stroke-linecap:round;paint-order:stroke markers fill"
         id="rect1688"
         width="654.33893"
         height="443.35596"
         x="64.169937"
         y="32.084969" />
    </clipPath>
    <clipPath
       clipPathUnits="userSpaceOnUse"
       id="clipPath1690">
      <rect
         style="opacity:0.401961;fill:#ff0000;stroke:#000000;stroke-width:0.99975;stroke-linecap:round;paint-order:stroke markers fill"
         id="rect1692"
         width="654.33893"
         height="443.35596"
         x="64.169937"
         y="32.084969" />
    </clipPath>
    <clipPath
       clipPathUnits="userSpaceOnUse"
       id="clipPath1694">
      <rect
         style="opacity:0.401961;fill:#ff0000;stroke:#000000;stroke-width:0.99975;stroke-linecap:round;paint-order:stroke markers fill"
         id="rect1696"
         width="654.33893"
         height="443.35596"
         x="64.169937"
         y="32.084969" />
    </clipPath>
    <clipPath
       clipPathUnits="userSpaceOnUse"
       id="clipPath1698">
      <rect
         style="opacity:0.401961;fill:#ff0000;stroke:#000000;stroke-width:0.99975;stroke-linecap:round;paint-order:stroke markers fill"
         id="rect1700"
         width="654.33893"
         height="443.35596"
         x="64.169937"
         y="32.084969" />
    </clipPath>
    <clipPath
       clipPathUnits="userSpaceOnUse"
       id="clipPath1702">
      <rect
         style="opacity:0.401961;fill:#ff0000;stroke:#000000;stroke-width:0.99975;stroke-linecap:round;paint-order:stroke markers fill"
         id="rect1704"
         width="654.33893"
         height="443.35596"
         x="64.169937"
         y="32.084969" />
    </clipPath>
    <clipPath
       clipPathUnits="userSpaceOnUse"
       id="clipPath1706">
      <rect
         style="opacity:0.401961;fill:#ff0000;stroke:#000000;stroke-width:0.99975;stroke-linecap:round;paint-order:stroke markers fill"
         id="rect1708"
         width="654.33893"
         height="443.35596"
         x="64.169937"
         y="32.084969" />
    </clipPath>
    <clipPath
       clipPathUnits="userSpaceOnUse"
       id="clipPath1710">
      <rect
         style="opacity:0.401961;fill:#ff0000;stroke:#000000;stroke-width:0.99975;stroke-linecap:round;paint-order:stroke markers fill"
         id="rect1712"
         width="654.33893"
         height="443.35596"
         x="64.169937"
         y="32.084969" />
    </clipPath>
  </defs>
  <defs
     id="defs372">
    <clipPath
       id="p98279fc5d4">
      <rect
         height="380.52"
         width="613.8"
         x="99"
         y="60.48"
         id="rect369" />
    </clipPath>
  </defs>
  <g
     id="g1938">
    <g
       id="patch_1"
       clip-path="url(#clipPath1710)">
      <path
         d="M 0,504 H 792 V 0 H 0 Z"
         style="fill:none"
         id="path8" />
    </g>
    <g
       id="patch_2"
       clip-path="url(#clipPath1706)">
      <path
         d="M 99,441 H 712.8 V 60.48 H 99 Z"
         style="fill:#ffffff"
         id="path11" />
    </g>
    <g
       id="matplotlib.axis_1"
       clip-path="url(#clipPath1702)">
      <g
         id="xtick_1">
        <g
           id="line2d_1">
          <defs
             id="defs15">
            <path
               d="M 0,0 V 3.5"
               id="m176c1e575a"
               style="stroke:#000000;stroke-width:0.8" />
          </defs>
          <g
             id="g19">
            <use
               style="stroke:#000000;stroke-width:0.8"
               x="224.82353"
               xlink:href="#m176c1e575a"
               y="441"
               id="use17"
               width="100%"
               height="100%" />
          </g>
        </g>
        <g
           id="text_1">
          <!-- 0.2 -->
          <g
             transform="matrix(0.1,0,0,-0.1,216.87197,455.59844)"
             id="g33">
            <defs
               id="defs25">
              <path
                 d="m 2034,4250 q -487,0 -733,-480 -245,-479 -245,-1442 0,-959 245,-1439 246,-480 733,-480 491,0 736,480 246,480 246,1439 0,963 -246,1442 -245,480 -736,480 z m 0,500 q 785,0 1199,-621 414,-620 414,-1801 0,-1178 -414,-1799 -414,-620 -1199,-620 -784,0 -1198,620 -414,621 -414,1799 0,1181 414,1801 414,621 1198,621 z"
                 id="DejaVuSans-30"
                 transform="scale(0.015625)" />
              <path
                 d="m 684,794 h 660 V 0 H 684 Z"
                 id="DejaVuSans-2e"
                 transform="scale(0.015625)" />
              <path
                 d="M 1228,531 H 3431 V 0 H 469 v 531 q 359,372 979,998 621,627 780,809 303,340 423,576 121,236 121,464 0,372 -261,606 -261,235 -680,235 -297,0 -627,-103 -329,-103 -704,-313 v 638 q 381,153 712,231 332,78 607,78 725,0 1156,-363 431,-362 431,-968 0,-288 -108,-546 -107,-257 -392,-607 -78,-91 -497,-524 Q 1991,1309 1228,531 Z"
                 id="DejaVuSans-32"
                 transform="scale(0.015625)" />
            </defs>
            <use
               xlink:href="#DejaVuSans-30"
               id="use27"
               x="0"
               y="0"
               width="100%"
               height="100%" />
            <use
               x="63.623047"
               xlink:href="#DejaVuSans-2e"
               id="use29"
               y="0"
               width="100%"
               height="100%" />
            <use
               x="95.410156"
               xlink:href="#DejaVuSans-32"
               id="use31"
               y="0"
               width="100%"
               height="100%" />
          </g>
        </g>
      </g>
      <g
         id="xtick_2">
        <g
           id="line2d_2">
          <g
             id="g39">
            <use
               style="stroke:#000000;stroke-width:0.8"
               x="355.57059"
               xlink:href="#m176c1e575a"
               y="441"
               id="use37"
               width="100%"
               height="100%" />
          </g>
        </g>
        <g
           id="text_2">
          <!-- 0.4 -->
          <g
             transform="matrix(0.1,0,0,-0.1,347.61903,455.59844)"
             id="g51">
            <defs
               id="defs43">
              <path
                 d="M 2419,4116 825,1625 h 1594 z m -166,550 h 794 V 1625 h 666 V 1100 H 3047 V 0 H 2419 V 1100 H 313 v 609 z"
                 id="DejaVuSans-34"
                 transform="scale(0.015625)" />
            </defs>
            <use
               xlink:href="#DejaVuSans-30"
               id="use45"
               x="0"
               y="0"
               width="100%"
               height="100%" />
            <use
               x="63.623047"
               xlink:href="#DejaVuSans-2e"
               id="use47"
               y="0"
               width="100%"
               height="100%" />
            <use
               x="95.410156"
               xlink:href="#DejaVuSans-34"
               id="use49"
               y="0"
               width="100%"
               height="100%" />
          </g>
        </g>
      </g>
      <g
         id="xtick_3">
        <g
           id="line2d_3">
          <g
             id="g57">
            <use
               style="stroke:#000000;stroke-width:0.8"
               x="486.31766"
               xlink:href="#m176c1e575a"
               y="441"
               id="use55"
               width="100%"
               height="100%" />
          </g>
        </g>
        <g
           id="text_3">
          <!-- 0.6 -->
          <g
             transform="matrix(0.1,0,0,-0.1,478.36608,455.59844)"
             id="g69">
            <defs
               id="defs61">
              <path
                 d="m 2113,2584 q -425,0 -674,-291 -248,-290 -248,-796 0,-503 248,-796 249,-292 674,-292 425,0 673,292 248,293 248,796 0,506 -248,796 -248,291 -673,291 z m 1253,1979 v -575 q -238,112 -480,171 -242,60 -480,60 -625,0 -955,-422 -329,-422 -376,-1275 184,272 462,417 279,145 613,145 703,0 1111,-427 408,-426 408,-1160 0,-719 -425,-1154 -425,-434 -1131,-434 -810,0 -1238,620 -428,621 -428,1799 0,1106 525,1764 525,658 1409,658 238,0 480,-47 242,-47 505,-140 z"
                 id="DejaVuSans-36"
                 transform="scale(0.015625)" />
            </defs>
            <use
               xlink:href="#DejaVuSans-30"
               id="use63"
               x="0"
               y="0"
               width="100%"
               height="100%" />
            <use
               x="63.623047"
               xlink:href="#DejaVuSans-2e"
               id="use65"
               y="0"
               width="100%"
               height="100%" />
            <use
               x="95.410156"
               xlink:href="#DejaVuSans-36"
               id="use67"
               y="0"
               width="100%"
               height="100%" />
          </g>
        </g>
      </g>
      <g
         id="xtick_4">
        <g
           id="line2d_4">
          <g
             id="g75">
            <use
               style="stroke:#000000;stroke-width:0.8"
               x="617.0647"
               xlink:href="#m176c1e575a"
               y="441"
               id="use73"
               width="100%"
               height="100%" />
          </g>
        </g>
        <g
           id="text_4">
          <!-- 0.8 -->
          <g
             transform="matrix(0.1,0,0,-0.1,609.11314,455.59844)"
             id="g87">
            <defs
               id="defs79">
              <path
                 d="m 2034,2216 q -450,0 -708,-241 -257,-241 -257,-662 0,-422 257,-663 258,-241 708,-241 450,0 709,242 260,243 260,662 0,421 -258,662 -257,241 -711,241 z m -631,268 q -406,100 -633,378 -226,279 -226,679 0,559 398,884 399,325 1092,325 697,0 1094,-325 397,-325 397,-884 0,-400 -227,-679 -226,-278 -629,-378 456,-106 710,-416 255,-309 255,-755 Q 3634,634 3220,271 2806,-91 2034,-91 1263,-91 848,271 434,634 434,1313 q 0,446 256,755 257,310 713,416 z m -231,997 q 0,-362 226,-565 227,-203 636,-203 407,0 636,203 230,203 230,565 0,363 -230,566 -229,203 -636,203 -409,0 -636,-203 -226,-203 -226,-566 z"
                 id="DejaVuSans-38"
                 transform="scale(0.015625)" />
            </defs>
            <use
               xlink:href="#DejaVuSans-30"
               id="use81"
               x="0"
               y="0"
               width="100%"
               height="100%" />
            <use
               x="63.623047"
               xlink:href="#DejaVuSans-2e"
               id="use83"
               y="0"
               width="100%"
               height="100%" />
            <use
               x="95.410156"
               xlink:href="#DejaVuSans-38"
               id="use85"
               y="0"
               width="100%"
               height="100%" />
          </g>
        </g>
      </g>
      <g
         id="text_5">
        <!-- time (hr) -->
        <g
           transform="matrix(0.1,0,0,-0.1,383.88906,469.27656)"
           id="g120">
          <defs
             id="defs100">
            <path
               d="M 1172,4494 V 3500 H 2356 V 3053 H 1172 V 1153 q 0,-428 117,-550 117,-122 477,-122 h 590 V 0 H 1766 Q 1100,0 847,248 594,497 594,1153 V 3053 H 172 v 447 h 422 v 994 z"
               id="DejaVuSans-74"
               transform="scale(0.015625)" />
            <path
               d="m 603,3500 h 575 V 0 H 603 Z m 0,1363 h 575 V 4134 H 603 Z"
               id="DejaVuSans-69"
               transform="scale(0.015625)" />
            <path
               d="m 3328,2828 q 216,388 516,572 300,184 706,184 547,0 844,-383 297,-382 297,-1088 V 0 h -578 v 2094 q 0,503 -179,746 -178,244 -543,244 -447,0 -707,-297 -259,-296 -259,-809 V 0 h -578 v 2094 q 0,506 -178,748 -178,242 -550,242 -441,0 -701,-298 -259,-298 -259,-808 V 0 H 581 v 3500 h 578 v -544 q 197,322 472,475 275,153 653,153 382,0 649,-194 267,-193 395,-562 z"
               id="DejaVuSans-6d"
               transform="scale(0.015625)" />
            <path
               d="M 3597,1894 V 1613 H 953 q 38,-594 358,-905 320,-311 892,-311 331,0 642,81 311,81 618,244 V 178 Q 3153,47 2828,-22 2503,-91 2169,-91 1331,-91 842,396 353,884 353,1716 q 0,859 464,1363 464,505 1252,505 706,0 1117,-455 411,-454 411,-1235 z m -575,169 q -6,471 -264,752 -258,282 -683,282 -481,0 -770,-272 -289,-272 -333,-766 z"
               id="DejaVuSans-65"
               transform="scale(0.015625)" />
            <path
               id="DejaVuSans-20"
               transform="scale(0.015625)"
               d="" />
            <path
               d="m 1984,4856 q -418,-718 -622,-1422 -203,-703 -203,-1425 0,-721 205,-1429 205,-708 620,-1424 h -500 q -468,735 -701,1444 -233,709 -233,1409 0,697 231,1403 232,707 703,1444 z"
               id="DejaVuSans-28"
               transform="scale(0.015625)" />
            <path
               d="M 3513,2113 V 0 h -575 v 2094 q 0,497 -194,743 -194,247 -581,247 -466,0 -735,-297 -269,-296 -269,-809 V 0 H 581 v 4863 h 578 V 2956 q 207,316 486,472 280,156 646,156 603,0 912,-373 310,-373 310,-1098 z"
               id="DejaVuSans-68"
               transform="scale(0.015625)" />
            <path
               d="m 2631,2963 q -97,56 -211,82 -114,27 -251,27 -488,0 -749,-317 -261,-317 -261,-911 V 0 H 581 v 3500 h 578 v -544 q 182,319 472,473 291,155 707,155 59,0 131,-8 72,-7 159,-23 z"
               id="DejaVuSans-72"
               transform="scale(0.015625)" />
            <path
               d="m 513,4856 h 500 q 468,-737 701,-1444 233,-706 233,-1403 0,-700 -233,-1409 -233,-709 -701,-1444 H 513 q 415,716 620,1424 205,708 205,1429 0,722 -205,1425 -205,704 -620,1422 z"
               id="DejaVuSans-29"
               transform="scale(0.015625)" />
          </defs>
          <use
             xlink:href="#DejaVuSans-74"
             id="use102"
             x="0"
             y="0"
             width="100%"
             height="100%" />
          <use
             x="39.208984"
             xlink:href="#DejaVuSans-69"
             id="use104"
             y="0"
             width="100%"
             height="100%" />
          <use
             x="66.992188"
             xlink:href="#DejaVuSans-6d"
             id="use106"
             y="0"
             width="100%"
             height="100%" />
          <use
             x="164.4043"
             xlink:href="#DejaVuSans-65"
             id="use108"
             y="0"
             width="100%"
             height="100%" />
          <use
             x="225.92773"
             xlink:href="#DejaVuSans-20"
             id="use110"
             y="0"
             width="100%"
             height="100%" />
          <use
             x="257.71484"
             xlink:href="#DejaVuSans-28"
             id="use112"
             y="0"
             width="100%"
             height="100%" />
          <use
             x="296.72852"
             xlink:href="#DejaVuSans-68"
             id="use114"
             y="0"
             width="100%"
             height="100%" />
          <use
             x="360.10742"
             xlink:href="#DejaVuSans-72"
             id="use116"
             y="0"
             width="100%"
             height="100%" />
          <use
             x="401.2207"
             xlink:href="#DejaVuSans-29"
             id="use118"
             y="0"
             width="100%"
             height="100%" />
        </g>
      </g>
    </g>
    <g
       id="matplotlib.axis_2"
       clip-path="url(#clipPath1698)">
      <g
         id="ytick_1">
        <g
           id="line2d_5">
          <defs
             id="defs125">
            <path
               d="M 0,0 H -3.5"
               id="m4b22270104"
               style="stroke:#000000;stroke-width:0.8" />
          </defs>
          <g
             id="g129">
            <use
               style="stroke:#000000;stroke-width:0.8"
               x="99"
               xlink:href="#m4b22270104"
               y="371.72061"
               id="use127"
               width="100%"
               height="100%" />
          </g>
        </g>
        <g
           id="text_6">
          <!-- 2 -->
          <g
             transform="matrix(0.1,0,0,-0.1,85.6375,375.51984)"
             id="g134">
            <use
               xlink:href="#DejaVuSans-32"
               id="use132"
               x="0"
               y="0"
               width="100%"
               height="100%" />
          </g>
        </g>
      </g>
      <g
         id="ytick_2">
        <g
           id="line2d_6">
          <g
             id="g140">
            <use
               style="stroke:#000000;stroke-width:0.8"
               x="99"
               xlink:href="#m4b22270104"
               y="300.04245"
               id="use138"
               width="100%"
               height="100%" />
          </g>
        </g>
        <g
           id="text_7">
          <!-- 4 -->
          <g
             transform="matrix(0.1,0,0,-0.1,85.6375,303.84167)"
             id="g145">
            <use
               xlink:href="#DejaVuSans-34"
               id="use143"
               x="0"
               y="0"
               width="100%"
               height="100%" />
          </g>
        </g>
      </g>
      <g
         id="ytick_3">
        <g
           id="line2d_7">
          <g
             id="g151">
            <use
               style="stroke:#000000;stroke-width:0.8"
               x="99"
               xlink:href="#m4b22270104"
               y="228.36429"
               id="use149"
               width="100%"
               height="100%" />
          </g>
        </g>
        <g
           id="text_8">
          <!-- 6 -->
          <g
             transform="matrix(0.1,0,0,-0.1,85.6375,232.16351)"
             id="g156">
            <use
               xlink:href="#DejaVuSans-36"
               id="use154"
               x="0"
               y="0"
               width="100%"
               height="100%" />
          </g>
        </g>
      </g>
      <g
         id="ytick_4">
        <g
           id="line2d_8">
          <g
             id="g162">
            <use
               style="stroke:#000000;stroke-width:0.8"
               x="99"
               xlink:href="#m4b22270104"
               y="156.68613"
               id="use160"
               width="100%"
               height="100%" />
          </g>
        </g>
        <g
           id="text_9">
          <!-- 8 -->
          <g
             transform="matrix(0.1,0,0,-0.1,85.6375,160.48534)"
             id="g167">
            <use
               xlink:href="#DejaVuSans-38"
               id="use165"
               x="0"
               y="0"
               width="100%"
               height="100%" />
          </g>
        </g>
      </g>
      <g
         id="ytick_5">
        <g
           id="line2d_9">
          <g
             id="g173">
            <use
               style="stroke:#000000;stroke-width:0.8"
               x="99"
               xlink:href="#m4b22270104"
               y="85.007957"
               id="use171"
               width="100%"
               height="100%" />
          </g>
        </g>
        <g
           id="text_10">
          <!-- 10 -->
          <g
             transform="matrix(0.1,0,0,-0.1,79.275,88.807174)"
             id="g183">
            <defs
               id="defs177">
              <path
                 d="M 794,531 H 1825 V 4091 L 703,3866 v 575 l 1116,225 h 631 V 531 H 3481 V 0 H 794 Z"
                 id="DejaVuSans-31"
                 transform="scale(0.015625)" />
            </defs>
            <use
               xlink:href="#DejaVuSans-31"
               id="use179"
               x="0"
               y="0"
               width="100%"
               height="100%" />
            <use
               x="63.623047"
               xlink:href="#DejaVuSans-30"
               id="use181"
               y="0"
               width="100%"
               height="100%" />
          </g>
        </g>
      </g>
      <g
         id="text_11">
        <!-- log10 -->
        <g
           transform="matrix(0,-0.1,-0.1,0,73.195312,264.72516)"
           id="g202">
          <defs
             id="defs190">
            <path
               d="m 603,4863 h 575 V 0 H 603 Z"
               id="DejaVuSans-6c"
               transform="scale(0.015625)" />
            <path
               d="m 1959,3097 q -462,0 -731,-361 -269,-361 -269,-989 0,-628 267,-989 268,-361 733,-361 460,0 728,362 269,363 269,988 0,622 -269,986 -268,364 -728,364 z m 0,487 q 750,0 1178,-488 429,-487 429,-1349 Q 3566,888 3137,398 2709,-91 1959,-91 1206,-91 779,398 353,888 353,1747 q 0,862 426,1349 427,488 1180,488 z"
               id="DejaVuSans-6f"
               transform="scale(0.015625)" />
            <path
               d="m 2906,1791 q 0,625 -258,968 -257,344 -723,344 -462,0 -720,-344 -258,-343 -258,-968 0,-622 258,-966 258,-344 720,-344 466,0 723,344 258,344 258,966 z M 3481,434 q 0,-893 -397,-1329 -396,-436 -1215,-436 -303,0 -572,45 -269,45 -522,139 v 559 q 253,-137 500,-202 247,-66 503,-66 566,0 847,295 281,295 281,892 V 616 Q 2728,306 2450,153 2172,0 1784,0 1141,0 747,490 353,981 353,1791 q 0,812 394,1302 394,491 1037,491 388,0 666,-153 278,-153 456,-462 v 531 h 575 z"
               id="DejaVuSans-67"
               transform="scale(0.015625)" />
          </defs>
          <use
             xlink:href="#DejaVuSans-6c"
             id="use192"
             x="0"
             y="0"
             width="100%"
             height="100%" />
          <use
             x="27.783203"
             xlink:href="#DejaVuSans-6f"
             id="use194"
             y="0"
             width="100%"
             height="100%" />
          <use
             x="88.964844"
             xlink:href="#DejaVuSans-67"
             id="use196"
             y="0"
             width="100%"
             height="100%" />
          <use
             x="152.44141"
             xlink:href="#DejaVuSans-31"
             id="use198"
             y="0"
             width="100%"
             height="100%" />
          <use
             x="216.06445"
             xlink:href="#DejaVuSans-30"
             id="use200"
             y="0"
             width="100%"
             height="100%" />
        </g>
      </g>
    </g>
    <g
       id="line2d_10"
       clip-path="url(#clipPath1694)">
      <path
         clip-path="url(#p98279fc5d4)"
         d="m 126.9,303.67454 32.82353,-80.41782 32.82353,-47.01889 32.82353,-33.17091 32.82353,-24.91924 32.82353,-18.11038 32.82353,-11.417477 32.82353,-5.925124 32.82352,-2.689884 32.82353,-1.179719 32.82353,-0.531301 32.82353,-0.251266 32.82353,-0.125154 32.82353,-0.06552 32.82353,-0.03584 32.82353,-0.02037 32.82353,-0.01201 32.82353,-0.0073"
         style="fill:none;stroke:#1f77b4;stroke-width:1.5;stroke-linecap:square"
         id="path206" />
    </g>
    <g
       id="line2d_11"
       clip-path="url(#clipPath1690)">
      <path
         clip-path="url(#p98279fc5d4)"
         d="m 126.9,423.70364 32.82353,-19.70808 32.82353,-19.71075 32.82353,-19.71046 32.82353,-19.70934 32.82353,-19.708 32.82353,-19.70657 32.82353,-19.70513 32.82352,-19.70369 32.82353,-19.70224 32.82353,-19.69794 32.82353,-19.6966 32.82353,-19.65672 32.82353,-19.63051 32.82353,-18.97802 32.82353,-19.53816 32.82353,-18.65047 L 684.9,91.498331"
         style="fill:none;stroke:#ff7f0e;stroke-width:1.5;stroke-linecap:square"
         id="path209" />
    </g>
    <g
       id="patch_3"
       clip-path="url(#clipPath1686)">
      <path
         d="M 99,441 V 60.48"
         style="fill:none;stroke:#000000;stroke-width:0.8;stroke-linecap:square;stroke-linejoin:miter"
         id="path212" />
    </g>
    <g
       id="patch_4"
       clip-path="url(#clipPath1682)">
      <path
         d="M 712.8,441 V 60.48"
         style="fill:none;stroke:#000000;stroke-width:0.8;stroke-linecap:square;stroke-linejoin:miter"
         id="path215" />
    </g>
    <g
       id="patch_5"
       clip-path="url(#clipPath1678)">
      <path
         d="M 99,441 H 712.8"
         style="fill:none;stroke:#000000;stroke-width:0.8;stroke-linecap:square;stroke-linejoin:miter"
         id="path218" />
    </g>
    <g
       id="patch_6"
       clip-path="url(#clipPath1674)">
      <path
         d="M 99,60.48 H 712.8"
         style="fill:none;stroke:#000000;stroke-width:0.8;stroke-linecap:square;stroke-linejoin:miter"
         id="path221" />
    </g>
    <g
       id="text_12"
       transform="matrix(1.6252794,0,0,1.6252794,-251.80232,-35.625688)"
       clip-path="url(#clipPath1670)">
      <!-- 2e-05 M of tetrakis-porphyrin -->
      <g
         transform="matrix(0.12,0,0,-0.12,317.89312,54.48)"
         id="g294">
        <defs
           id="defs234">
          <path
             d="M 313,2009 H 1997 V 1497 H 313 Z"
             id="DejaVuSans-2d"
             transform="scale(0.015625)" />
          <path
             d="M 691,4666 H 3169 V 4134 H 1269 V 2991 q 137,47 274,70 138,23 276,23 781,0 1237,-428 457,-428 457,-1159 Q 3513,744 3044,326 2575,-91 1722,-91 1428,-91 1123,-41 819,9 494,109 v 635 q 281,-153 581,-228 300,-75 634,-75 541,0 856,284 316,284 316,772 0,487 -316,771 -315,285 -856,285 -253,0 -505,-56 -251,-56 -513,-175 z"
             id="DejaVuSans-35"
             transform="scale(0.015625)" />
          <path
             d="m 628,4666 h 941 L 2759,1491 3956,4666 h 941 V 0 H 4281 V 4097 L 3078,897 H 2444 L 1241,4097 V 0 H 628 Z"
             id="DejaVuSans-4d"
             transform="scale(0.015625)" />
          <path
             d="m 2375,4863 v -479 h -550 q -309,0 -430,-125 -120,-125 -120,-450 v -309 h 947 V 3053 H 1275 V 0 H 697 V 3053 H 147 v 447 h 550 v 244 q 0,584 272,851 272,268 862,268 z"
             id="DejaVuSans-66"
             transform="scale(0.015625)" />
          <path
             d="m 2194,1759 q -697,0 -966,-159 -269,-159 -269,-544 0,-306 202,-486 202,-179 548,-179 479,0 768,339 289,339 289,901 v 128 z m 1147,238 V 0 H 2766 V 531 Q 2569,213 2275,61 1981,-91 1556,-91 q -537,0 -855,302 -317,302 -317,808 0,590 395,890 396,300 1180,300 h 807 v 57 q 0,397 -261,614 -261,217 -733,217 -300,0 -585,-72 -284,-72 -546,-216 v 532 q 315,122 612,182 297,61 578,61 760,0 1135,-394 375,-393 375,-1193 z"
             id="DejaVuSans-61"
             transform="scale(0.015625)" />
          <path
             d="m 581,4863 h 578 V 1991 l 1716,1509 h 734 L 1753,1863 3688,0 H 2938 L 1159,1709 V 0 H 581 Z"
             id="DejaVuSans-6b"
             transform="scale(0.015625)" />
          <path
             d="m 2834,3397 v -544 q -243,125 -506,187 -262,63 -544,63 -428,0 -642,-131 -214,-131 -214,-394 0,-200 153,-314 153,-114 616,-217 l 197,-44 q 612,-131 870,-370 258,-239 258,-667 0,-488 -386,-773 Q 2250,-91 1575,-91 1294,-91 989,-36 684,19 347,128 v 594 q 319,-166 628,-249 309,-82 613,-82 406,0 624,139 219,139 219,392 0,234 -158,359 -157,125 -692,241 l -200,47 q -534,112 -772,345 -237,233 -237,639 0,494 350,762 350,269 994,269 318,0 599,-47 282,-46 519,-140 z"
             id="DejaVuSans-73"
             transform="scale(0.015625)" />
          <path
             d="M 1159,525 V -1331 H 581 v 4831 h 578 v -531 q 182,312 458,463 277,152 661,152 638,0 1036,-506 399,-506 399,-1331 0,-825 -399,-1332 -398,-506 -1036,-506 -384,0 -661,152 -276,152 -458,464 z m 1957,1222 q 0,634 -261,995 -261,361 -717,361 -457,0 -718,-361 -261,-361 -261,-995 0,-634 261,-995 261,-361 718,-361 456,0 717,361 261,361 261,995 z"
             id="DejaVuSans-70"
             transform="scale(0.015625)" />
          <path
             d="m 2059,-325 q -243,-625 -475,-815 -231,-191 -618,-191 H 506 v 481 h 338 q 237,0 368,113 132,112 291,531 L 1606,56 191,3500 H 800 L 1894,763 2988,3500 h 609 z"
             id="DejaVuSans-79"
             transform="scale(0.015625)" />
          <path
             d="M 3513,2113 V 0 h -575 v 2094 q 0,497 -194,743 -194,247 -581,247 -466,0 -735,-297 -269,-296 -269,-809 V 0 H 581 v 3500 h 578 v -544 q 207,316 486,472 280,156 646,156 603,0 912,-373 310,-373 310,-1098 z"
             id="DejaVuSans-6e"
             transform="scale(0.015625)" />
        </defs>
        <use
           xlink:href="#DejaVuSans-32"
           id="use236"
           x="0"
           y="0"
           width="100%"
           height="100%" />
        <use
           x="63.623047"
           xlink:href="#DejaVuSans-65"
           id="use238"
           y="0"
           width="100%"
           height="100%" />
        <use
           x="125.14648"
           xlink:href="#DejaVuSans-2d"
           id="use240"
           y="0"
           width="100%"
           height="100%" />
        <use
           x="161.23047"
           xlink:href="#DejaVuSans-30"
           id="use242"
           y="0"
           width="100%"
           height="100%" />
        <use
           x="224.85352"
           xlink:href="#DejaVuSans-35"
           id="use244"
           y="0"
           width="100%"
           height="100%" />
        <use
           x="288.47656"
           xlink:href="#DejaVuSans-20"
           id="use246"
           y="0"
           width="100%"
           height="100%" />
        <use
           x="320.26367"
           xlink:href="#DejaVuSans-4d"
           id="use248"
           y="0"
           width="100%"
           height="100%" />
        <use
           x="406.54297"
           xlink:href="#DejaVuSans-20"
           id="use250"
           y="0"
           width="100%"
           height="100%" />
        <use
           x="438.33008"
           xlink:href="#DejaVuSans-6f"
           id="use252"
           y="0"
           width="100%"
           height="100%" />
        <use
           x="499.51172"
           xlink:href="#DejaVuSans-66"
           id="use254"
           y="0"
           width="100%"
           height="100%" />
        <use
           x="534.7168"
           xlink:href="#DejaVuSans-20"
           id="use256"
           y="0"
           width="100%"
           height="100%" />
        <use
           x="566.50391"
           xlink:href="#DejaVuSans-74"
           id="use258"
           y="0"
           width="100%"
           height="100%" />
        <use
           x="605.71289"
           xlink:href="#DejaVuSans-65"
           id="use260"
           y="0"
           width="100%"
           height="100%" />
        <use
           x="667.23633"
           xlink:href="#DejaVuSans-74"
           id="use262"
           y="0"
           width="100%"
           height="100%" />
        <use
           x="706.44531"
           xlink:href="#DejaVuSans-72"
           id="use264"
           y="0"
           width="100%"
           height="100%" />
        <use
           x="747.55859"
           xlink:href="#DejaVuSans-61"
           id="use266"
           y="0"
           width="100%"
           height="100%" />
        <use
           x="808.83789"
           xlink:href="#DejaVuSans-6b"
           id="use268"
           y="0"
           width="100%"
           height="100%" />
        <use
           x="866.74805"
           xlink:href="#DejaVuSans-69"
           id="use270"
           y="0"
           width="100%"
           height="100%" />
        <use
           x="894.53125"
           xlink:href="#DejaVuSans-73"
           id="use272"
           y="0"
           width="100%"
           height="100%" />
        <use
           x="946.63086"
           xlink:href="#DejaVuSans-2d"
           id="use274"
           y="0"
           width="100%"
           height="100%" />
        <use
           x="982.71484"
           xlink:href="#DejaVuSans-70"
           id="use276"
           y="0"
           width="100%"
           height="100%" />
        <use
           x="1046.1914"
           xlink:href="#DejaVuSans-6f"
           id="use278"
           y="0"
           width="100%"
           height="100%" />
        <use
           x="1107.373"
           xlink:href="#DejaVuSans-72"
           id="use280"
           y="0"
           width="100%"
           height="100%" />
        <use
           x="1148.4863"
           xlink:href="#DejaVuSans-70"
           id="use282"
           y="0"
           width="100%"
           height="100%" />
        <use
           x="1211.9629"
           xlink:href="#DejaVuSans-68"
           id="use284"
           y="0"
           width="100%"
           height="100%" />
        <use
           x="1275.3418"
           xlink:href="#DejaVuSans-79"
           id="use286"
           y="0"
           width="100%"
           height="100%" />
        <use
           x="1334.5215"
           xlink:href="#DejaVuSans-72"
           id="use288"
           y="0"
           width="100%"
           height="100%" />
        <use
           x="1375.6348"
           xlink:href="#DejaVuSans-69"
           id="use290"
           y="0"
           width="100%"
           height="100%" />
        <use
           x="1403.418"
           xlink:href="#DejaVuSans-6e"
           id="use292"
           y="0"
           width="100%"
           height="100%" />
      </g>
    </g>
    <g
       id="legend_1"
       transform="matrix(1.7915039,0,0,1.7915039,-192.93155,-391.03797)"
       clip-path="url(#clipPath1666)">
      <g
         id="patch_7">
        <path
           d="m 360.49297,436 h 90.81406 q 2,0 2,-2 v -28.35625 q 0,-2 -2,-2 h -90.81406 q -2,0 -2,2 V 434 q 0,2 2,2 z"
           style="opacity:0.8;fill:#ffffff;stroke:#cccccc;stroke-linejoin:miter"
           id="path297" />
      </g>
      <g
         id="line2d_12">
        <path
           d="m 362.49297,411.74219 h 20"
           style="fill:none;stroke:#1f77b4;stroke-width:1.5;stroke-linecap:square"
           id="path300" />
      </g>
      <g
         id="line2d_13" />
      <g
         id="text_13">
        <!-- Inactivation -->
        <g
           transform="matrix(0.1,0,0,-0.1,390.49297,415.24219)"
           id="g333">
          <defs
             id="defs307">
            <path
               d="m 628,4666 h 631 V 0 H 628 Z"
               id="DejaVuSans-49"
               transform="scale(0.015625)" />
            <path
               d="m 3122,3366 v -538 q -244,135 -489,202 -245,67 -495,67 -560,0 -870,-355 -309,-354 -309,-995 0,-641 309,-996 310,-354 870,-354 250,0 495,67 245,67 489,202 V 134 Q 2881,22 2623,-34 2366,-91 2075,-91 1284,-91 818,406 353,903 353,1747 q 0,856 470,1346 471,491 1290,491 265,0 518,-55 253,-54 491,-163 z"
               id="DejaVuSans-63"
               transform="scale(0.015625)" />
            <path
               d="M 191,3500 H 800 L 1894,563 2988,3500 h 609 L 2284,0 h -781 z"
               id="DejaVuSans-76"
               transform="scale(0.015625)" />
          </defs>
          <use
             xlink:href="#DejaVuSans-49"
             id="use309"
             x="0"
             y="0"
             width="100%"
             height="100%" />
          <use
             x="29.492188"
             xlink:href="#DejaVuSans-6e"
             id="use311"
             y="0"
             width="100%"
             height="100%" />
          <use
             x="92.871094"
             xlink:href="#DejaVuSans-61"
             id="use313"
             y="0"
             width="100%"
             height="100%" />
          <use
             x="154.15039"
             xlink:href="#DejaVuSans-63"
             id="use315"
             y="0"
             width="100%"
             height="100%" />
          <use
             x="209.13086"
             xlink:href="#DejaVuSans-74"
             id="use317"
             y="0"
             width="100%"
             height="100%" />
          <use
             x="248.33984"
             xlink:href="#DejaVuSans-69"
             id="use319"
             y="0"
             width="100%"
             height="100%" />
          <use
             x="276.12305"
             xlink:href="#DejaVuSans-76"
             id="use321"
             y="0"
             width="100%"
             height="100%" />
          <use
             x="335.30273"
             xlink:href="#DejaVuSans-61"
             id="use323"
             y="0"
             width="100%"
             height="100%" />
          <use
             x="396.58203"
             xlink:href="#DejaVuSans-74"
             id="use325"
             y="0"
             width="100%"
             height="100%" />
          <use
             x="435.79102"
             xlink:href="#DejaVuSans-69"
             id="use327"
             y="0"
             width="100%"
             height="100%" />
          <use
             x="463.57422"
             xlink:href="#DejaVuSans-6f"
             id="use329"
             y="0"
             width="100%"
             height="100%" />
          <use
             x="524.75586"
             xlink:href="#DejaVuSans-6e"
             id="use331"
             y="0"
             width="100%"
             height="100%" />
        </g>
      </g>
      <g
         id="line2d_14">
        <path
           d="m 362.49297,426.42031 h 20"
           style="fill:none;stroke:#ff7f0e;stroke-width:1.5;stroke-linecap:square"
           id="path336" />
      </g>
      <g
         id="line2d_15" />
      <g
         id="text_14">
        <!-- Oxidation -->
        <g
           transform="matrix(0.1,0,0,-0.1,390.49297,429.92031)"
           id="g363">
          <defs
             id="defs343">
            <path
               d="m 2522,4238 q -688,0 -1093,-513 -404,-512 -404,-1397 0,-881 404,-1394 405,-512 1093,-512 687,0 1089,512 402,513 402,1394 0,885 -402,1397 -402,513 -1089,513 z m 0,512 q 981,0 1568,-658 588,-658 588,-1764 0,-1103 -588,-1761 -587,-658 -1568,-658 -984,0 -1574,656 -589,657 -589,1763 0,1106 589,1764 590,658 1574,658 z"
               id="DejaVuSans-4f"
               transform="scale(0.015625)" />
            <path
               d="M 3513,3500 2247,1797 3578,0 H 2900 L 1881,1375 863,0 H 184 L 1544,1831 300,3500 h 678 l 928,-1247 928,1247 z"
               id="DejaVuSans-78"
               transform="scale(0.015625)" />
            <path
               d="m 2906,2969 v 1894 h 575 V 0 H 2906 V 525 Q 2725,213 2448,61 2172,-91 1784,-91 1150,-91 751,415 353,922 353,1747 q 0,825 398,1331 399,506 1033,506 388,0 664,-152 277,-151 458,-463 z M 947,1747 q 0,-634 261,-995 261,-361 717,-361 456,0 718,361 263,361 263,995 0,634 -263,995 -262,361 -718,361 -456,0 -717,-361 -261,-361 -261,-995 z"
               id="DejaVuSans-64"
               transform="scale(0.015625)" />
          </defs>
          <use
             xlink:href="#DejaVuSans-4f"
             id="use345"
             x="0"
             y="0"
             width="100%"
             height="100%" />
          <use
             x="78.710938"
             xlink:href="#DejaVuSans-78"
             id="use347"
             y="0"
             width="100%"
             height="100%" />
          <use
             x="137.89062"
             xlink:href="#DejaVuSans-69"
             id="use349"
             y="0"
             width="100%"
             height="100%" />
          <use
             x="165.67383"
             xlink:href="#DejaVuSans-64"
             id="use351"
             y="0"
             width="100%"
             height="100%" />
          <use
             x="229.15039"
             xlink:href="#DejaVuSans-61"
             id="use353"
             y="0"
             width="100%"
             height="100%" />
          <use
             x="290.42969"
             xlink:href="#DejaVuSans-74"
             id="use355"
             y="0"
             width="100%"
             height="100%" />
          <use
             x="329.63867"
             xlink:href="#DejaVuSans-69"
             id="use357"
             y="0"
             width="100%"
             height="100%" />
          <use
             x="357.42188"
             xlink:href="#DejaVuSans-6f"
             id="use359"
             y="0"
             width="100%"
             height="100%" />
          <use
             x="418.60352"
             xlink:href="#DejaVuSans-6e"
             id="use361"
             y="0"
             width="100%"
             height="100%" />
        </g>
      </g>
    </g>
    <text
       xml:space="preserve"
       style="font-size:30px;line-height:1.25;font-family:'Times New Roman';-inkscape-font-specification:'Times New Roman, ';word-spacing:0px;stroke-width:0.75;stroke-linecap:butt;stroke-linejoin:round"
       x="167.68164"
       y="124.33496"
       id="text1079"
       clip-path="url(#clipPath1662)"
       transform="translate(4.273016,-4.2582839)"><tspan
         sodipodi:role="line"
         id="tspan1077"
         x="167.68164"
         y="124.33496"
         style="stroke-width:0.75">a</tspan></text>
  </g>
</svg>
