<?xml version="1.0" encoding="utf-8" standalone="no"?>
<!DOCTYPE svg PUBLIC "-//W3C//DTD SVG 1.1//EN"
  "http://www.w3.org/Graphics/SVG/1.1/DTD/svg11.dtd">
<svg height="504pt" version="1.1" viewBox="0 0 792 504" width="792pt" xmlns="http://www.w3.org/2000/svg" xmlns:xlink="http://www.w3.org/1999/xlink">
 <metadata>
  <rdf:RDF xmlns:cc="http://creativecommons.org/ns#" xmlns:dc="http://purl.org/dc/elements/1.1/" xmlns:rdf="http://www.w3.org/1999/02/22-rdf-syntax-ns#">
   <cc:Work>
    <dc:type rdf:resource="http://purl.org/dc/dcmitype/StillImage"/>
    <dc:date>2022-02-02T02:49:28.181810</dc:date>
    <dc:format>image/svg+xml</dc:format>
    <dc:creator>
     <cc:Agent>
      <dc:title>Matplotlib v3.4.3, https://matplotlib.org/</dc:title>
     </cc:Agent>
    </dc:creator>
   </cc:Work>
  </rdf:RDF>
 </metadata>
 <defs>
  <style type="text/css">*{stroke-linecap:butt;stroke-linejoin:round;}</style>
 </defs>
 <g id="figure_1">
  <g id="patch_1">
   <path d="M 0 504 
L 792 504 
L 792 0 
L 0 0 
z
" style="fill:#ffffff;"/>
  </g>
  <g id="axes_1">
   <g id="patch_2">
    <path d="M 99 448.56 
L 712.8 448.56 
L 712.8 60.48 
L 99 60.48 
z
" style="fill:#ffffff;"/>
   </g>
   <g id="matplotlib.axis_1">
    <g id="xtick_1">
     <g id="line2d_1">
      <defs>
       <path d="M 0 0 
L 0 3.5 
" id="med483df4ab" style="stroke:#000000;stroke-width:0.8;"/>
      </defs>
      <g>
       <use style="stroke:#000000;stroke-width:0.8;" x="121.206122" xlink:href="#med483df4ab" y="448.56"/>
      </g>
     </g>
     <g id="text_1">
      <!-- 0 -->
      <g transform="translate(118.024872 463.158437)scale(0.1 -0.1)">
       <defs>
        <path d="M 2034 4250 
Q 1547 4250 1301 3770 
Q 1056 3291 1056 2328 
Q 1056 1369 1301 889 
Q 1547 409 2034 409 
Q 2525 409 2770 889 
Q 3016 1369 3016 2328 
Q 3016 3291 2770 3770 
Q 2525 4250 2034 4250 
z
M 2034 4750 
Q 2819 4750 3233 4129 
Q 3647 3509 3647 2328 
Q 3647 1150 3233 529 
Q 2819 -91 2034 -91 
Q 1250 -91 836 529 
Q 422 1150 422 2328 
Q 422 3509 836 4129 
Q 1250 4750 2034 4750 
z
" id="DejaVuSans-30" transform="scale(0.015625)"/>
       </defs>
       <use xlink:href="#DejaVuSans-30"/>
      </g>
     </g>
    </g>
    <g id="xtick_2">
     <g id="line2d_2">
      <g>
       <use style="stroke:#000000;stroke-width:0.8;" x="199.496939" xlink:href="#med483df4ab" y="448.56"/>
      </g>
     </g>
     <g id="text_2">
      <!-- 20 -->
      <g transform="translate(193.134439 463.158437)scale(0.1 -0.1)">
       <defs>
        <path d="M 1228 531 
L 3431 531 
L 3431 0 
L 469 0 
L 469 531 
Q 828 903 1448 1529 
Q 2069 2156 2228 2338 
Q 2531 2678 2651 2914 
Q 2772 3150 2772 3378 
Q 2772 3750 2511 3984 
Q 2250 4219 1831 4219 
Q 1534 4219 1204 4116 
Q 875 4013 500 3803 
L 500 4441 
Q 881 4594 1212 4672 
Q 1544 4750 1819 4750 
Q 2544 4750 2975 4387 
Q 3406 4025 3406 3419 
Q 3406 3131 3298 2873 
Q 3191 2616 2906 2266 
Q 2828 2175 2409 1742 
Q 1991 1309 1228 531 
z
" id="DejaVuSans-32" transform="scale(0.015625)"/>
       </defs>
       <use xlink:href="#DejaVuSans-32"/>
       <use x="63.623047" xlink:href="#DejaVuSans-30"/>
      </g>
     </g>
    </g>
    <g id="xtick_3">
     <g id="line2d_3">
      <g>
       <use style="stroke:#000000;stroke-width:0.8;" x="277.787755" xlink:href="#med483df4ab" y="448.56"/>
      </g>
     </g>
     <g id="text_3">
      <!-- 40 -->
      <g transform="translate(271.425255 463.158437)scale(0.1 -0.1)">
       <defs>
        <path d="M 2419 4116 
L 825 1625 
L 2419 1625 
L 2419 4116 
z
M 2253 4666 
L 3047 4666 
L 3047 1625 
L 3713 1625 
L 3713 1100 
L 3047 1100 
L 3047 0 
L 2419 0 
L 2419 1100 
L 313 1100 
L 313 1709 
L 2253 4666 
z
" id="DejaVuSans-34" transform="scale(0.015625)"/>
       </defs>
       <use xlink:href="#DejaVuSans-34"/>
       <use x="63.623047" xlink:href="#DejaVuSans-30"/>
      </g>
     </g>
    </g>
    <g id="xtick_4">
     <g id="line2d_4">
      <g>
       <use style="stroke:#000000;stroke-width:0.8;" x="356.078571" xlink:href="#med483df4ab" y="448.56"/>
      </g>
     </g>
     <g id="text_4">
      <!-- 60 -->
      <g transform="translate(349.716071 463.158437)scale(0.1 -0.1)">
       <defs>
        <path d="M 2113 2584 
Q 1688 2584 1439 2293 
Q 1191 2003 1191 1497 
Q 1191 994 1439 701 
Q 1688 409 2113 409 
Q 2538 409 2786 701 
Q 3034 994 3034 1497 
Q 3034 2003 2786 2293 
Q 2538 2584 2113 2584 
z
M 3366 4563 
L 3366 3988 
Q 3128 4100 2886 4159 
Q 2644 4219 2406 4219 
Q 1781 4219 1451 3797 
Q 1122 3375 1075 2522 
Q 1259 2794 1537 2939 
Q 1816 3084 2150 3084 
Q 2853 3084 3261 2657 
Q 3669 2231 3669 1497 
Q 3669 778 3244 343 
Q 2819 -91 2113 -91 
Q 1303 -91 875 529 
Q 447 1150 447 2328 
Q 447 3434 972 4092 
Q 1497 4750 2381 4750 
Q 2619 4750 2861 4703 
Q 3103 4656 3366 4563 
z
" id="DejaVuSans-36" transform="scale(0.015625)"/>
       </defs>
       <use xlink:href="#DejaVuSans-36"/>
       <use x="63.623047" xlink:href="#DejaVuSans-30"/>
      </g>
     </g>
    </g>
    <g id="xtick_5">
     <g id="line2d_5">
      <g>
       <use style="stroke:#000000;stroke-width:0.8;" x="434.369388" xlink:href="#med483df4ab" y="448.56"/>
      </g>
     </g>
     <g id="text_5">
      <!-- 80 -->
      <g transform="translate(428.006888 463.158437)scale(0.1 -0.1)">
       <defs>
        <path d="M 2034 2216 
Q 1584 2216 1326 1975 
Q 1069 1734 1069 1313 
Q 1069 891 1326 650 
Q 1584 409 2034 409 
Q 2484 409 2743 651 
Q 3003 894 3003 1313 
Q 3003 1734 2745 1975 
Q 2488 2216 2034 2216 
z
M 1403 2484 
Q 997 2584 770 2862 
Q 544 3141 544 3541 
Q 544 4100 942 4425 
Q 1341 4750 2034 4750 
Q 2731 4750 3128 4425 
Q 3525 4100 3525 3541 
Q 3525 3141 3298 2862 
Q 3072 2584 2669 2484 
Q 3125 2378 3379 2068 
Q 3634 1759 3634 1313 
Q 3634 634 3220 271 
Q 2806 -91 2034 -91 
Q 1263 -91 848 271 
Q 434 634 434 1313 
Q 434 1759 690 2068 
Q 947 2378 1403 2484 
z
M 1172 3481 
Q 1172 3119 1398 2916 
Q 1625 2713 2034 2713 
Q 2441 2713 2670 2916 
Q 2900 3119 2900 3481 
Q 2900 3844 2670 4047 
Q 2441 4250 2034 4250 
Q 1625 4250 1398 4047 
Q 1172 3844 1172 3481 
z
" id="DejaVuSans-38" transform="scale(0.015625)"/>
       </defs>
       <use xlink:href="#DejaVuSans-38"/>
       <use x="63.623047" xlink:href="#DejaVuSans-30"/>
      </g>
     </g>
    </g>
    <g id="xtick_6">
     <g id="line2d_6">
      <g>
       <use style="stroke:#000000;stroke-width:0.8;" x="512.660204" xlink:href="#med483df4ab" y="448.56"/>
      </g>
     </g>
     <g id="text_6">
      <!-- 100 -->
      <g transform="translate(503.116454 463.158437)scale(0.1 -0.1)">
       <defs>
        <path d="M 794 531 
L 1825 531 
L 1825 4091 
L 703 3866 
L 703 4441 
L 1819 4666 
L 2450 4666 
L 2450 531 
L 3481 531 
L 3481 0 
L 794 0 
L 794 531 
z
" id="DejaVuSans-31" transform="scale(0.015625)"/>
       </defs>
       <use xlink:href="#DejaVuSans-31"/>
       <use x="63.623047" xlink:href="#DejaVuSans-30"/>
       <use x="127.246094" xlink:href="#DejaVuSans-30"/>
      </g>
     </g>
    </g>
    <g id="xtick_7">
     <g id="line2d_7">
      <g>
       <use style="stroke:#000000;stroke-width:0.8;" x="590.95102" xlink:href="#med483df4ab" y="448.56"/>
      </g>
     </g>
     <g id="text_7">
      <!-- 120 -->
      <g transform="translate(581.40727 463.158437)scale(0.1 -0.1)">
       <use xlink:href="#DejaVuSans-31"/>
       <use x="63.623047" xlink:href="#DejaVuSans-32"/>
       <use x="127.246094" xlink:href="#DejaVuSans-30"/>
      </g>
     </g>
    </g>
    <g id="xtick_8">
     <g id="line2d_8">
      <g>
       <use style="stroke:#000000;stroke-width:0.8;" x="669.241837" xlink:href="#med483df4ab" y="448.56"/>
      </g>
     </g>
     <g id="text_8">
      <!-- 140 -->
      <g transform="translate(659.698087 463.158437)scale(0.1 -0.1)">
       <use xlink:href="#DejaVuSans-31"/>
       <use x="63.623047" xlink:href="#DejaVuSans-34"/>
       <use x="127.246094" xlink:href="#DejaVuSans-30"/>
      </g>
     </g>
    </g>
    <g id="text_9">
     <!-- exposure (J/cm²) -->
     <g transform="translate(364.650781 476.836563)scale(0.1 -0.1)">
      <defs>
       <path d="M 3597 1894 
L 3597 1613 
L 953 1613 
Q 991 1019 1311 708 
Q 1631 397 2203 397 
Q 2534 397 2845 478 
Q 3156 559 3463 722 
L 3463 178 
Q 3153 47 2828 -22 
Q 2503 -91 2169 -91 
Q 1331 -91 842 396 
Q 353 884 353 1716 
Q 353 2575 817 3079 
Q 1281 3584 2069 3584 
Q 2775 3584 3186 3129 
Q 3597 2675 3597 1894 
z
M 3022 2063 
Q 3016 2534 2758 2815 
Q 2500 3097 2075 3097 
Q 1594 3097 1305 2825 
Q 1016 2553 972 2059 
L 3022 2063 
z
" id="DejaVuSans-65" transform="scale(0.015625)"/>
       <path d="M 3513 3500 
L 2247 1797 
L 3578 0 
L 2900 0 
L 1881 1375 
L 863 0 
L 184 0 
L 1544 1831 
L 300 3500 
L 978 3500 
L 1906 2253 
L 2834 3500 
L 3513 3500 
z
" id="DejaVuSans-78" transform="scale(0.015625)"/>
       <path d="M 1159 525 
L 1159 -1331 
L 581 -1331 
L 581 3500 
L 1159 3500 
L 1159 2969 
Q 1341 3281 1617 3432 
Q 1894 3584 2278 3584 
Q 2916 3584 3314 3078 
Q 3713 2572 3713 1747 
Q 3713 922 3314 415 
Q 2916 -91 2278 -91 
Q 1894 -91 1617 61 
Q 1341 213 1159 525 
z
M 3116 1747 
Q 3116 2381 2855 2742 
Q 2594 3103 2138 3103 
Q 1681 3103 1420 2742 
Q 1159 2381 1159 1747 
Q 1159 1113 1420 752 
Q 1681 391 2138 391 
Q 2594 391 2855 752 
Q 3116 1113 3116 1747 
z
" id="DejaVuSans-70" transform="scale(0.015625)"/>
       <path d="M 1959 3097 
Q 1497 3097 1228 2736 
Q 959 2375 959 1747 
Q 959 1119 1226 758 
Q 1494 397 1959 397 
Q 2419 397 2687 759 
Q 2956 1122 2956 1747 
Q 2956 2369 2687 2733 
Q 2419 3097 1959 3097 
z
M 1959 3584 
Q 2709 3584 3137 3096 
Q 3566 2609 3566 1747 
Q 3566 888 3137 398 
Q 2709 -91 1959 -91 
Q 1206 -91 779 398 
Q 353 888 353 1747 
Q 353 2609 779 3096 
Q 1206 3584 1959 3584 
z
" id="DejaVuSans-6f" transform="scale(0.015625)"/>
       <path d="M 2834 3397 
L 2834 2853 
Q 2591 2978 2328 3040 
Q 2066 3103 1784 3103 
Q 1356 3103 1142 2972 
Q 928 2841 928 2578 
Q 928 2378 1081 2264 
Q 1234 2150 1697 2047 
L 1894 2003 
Q 2506 1872 2764 1633 
Q 3022 1394 3022 966 
Q 3022 478 2636 193 
Q 2250 -91 1575 -91 
Q 1294 -91 989 -36 
Q 684 19 347 128 
L 347 722 
Q 666 556 975 473 
Q 1284 391 1588 391 
Q 1994 391 2212 530 
Q 2431 669 2431 922 
Q 2431 1156 2273 1281 
Q 2116 1406 1581 1522 
L 1381 1569 
Q 847 1681 609 1914 
Q 372 2147 372 2553 
Q 372 3047 722 3315 
Q 1072 3584 1716 3584 
Q 2034 3584 2315 3537 
Q 2597 3491 2834 3397 
z
" id="DejaVuSans-73" transform="scale(0.015625)"/>
       <path d="M 544 1381 
L 544 3500 
L 1119 3500 
L 1119 1403 
Q 1119 906 1312 657 
Q 1506 409 1894 409 
Q 2359 409 2629 706 
Q 2900 1003 2900 1516 
L 2900 3500 
L 3475 3500 
L 3475 0 
L 2900 0 
L 2900 538 
Q 2691 219 2414 64 
Q 2138 -91 1772 -91 
Q 1169 -91 856 284 
Q 544 659 544 1381 
z
M 1991 3584 
L 1991 3584 
z
" id="DejaVuSans-75" transform="scale(0.015625)"/>
       <path d="M 2631 2963 
Q 2534 3019 2420 3045 
Q 2306 3072 2169 3072 
Q 1681 3072 1420 2755 
Q 1159 2438 1159 1844 
L 1159 0 
L 581 0 
L 581 3500 
L 1159 3500 
L 1159 2956 
Q 1341 3275 1631 3429 
Q 1922 3584 2338 3584 
Q 2397 3584 2469 3576 
Q 2541 3569 2628 3553 
L 2631 2963 
z
" id="DejaVuSans-72" transform="scale(0.015625)"/>
       <path id="DejaVuSans-20" transform="scale(0.015625)"/>
       <path d="M 1984 4856 
Q 1566 4138 1362 3434 
Q 1159 2731 1159 2009 
Q 1159 1288 1364 580 
Q 1569 -128 1984 -844 
L 1484 -844 
Q 1016 -109 783 600 
Q 550 1309 550 2009 
Q 550 2706 781 3412 
Q 1013 4119 1484 4856 
L 1984 4856 
z
" id="DejaVuSans-28" transform="scale(0.015625)"/>
       <path d="M 628 4666 
L 1259 4666 
L 1259 325 
Q 1259 -519 939 -900 
Q 619 -1281 -91 -1281 
L -331 -1281 
L -331 -750 
L -134 -750 
Q 284 -750 456 -515 
Q 628 -281 628 325 
L 628 4666 
z
" id="DejaVuSans-4a" transform="scale(0.015625)"/>
       <path d="M 1625 4666 
L 2156 4666 
L 531 -594 
L 0 -594 
L 1625 4666 
z
" id="DejaVuSans-2f" transform="scale(0.015625)"/>
       <path d="M 3122 3366 
L 3122 2828 
Q 2878 2963 2633 3030 
Q 2388 3097 2138 3097 
Q 1578 3097 1268 2742 
Q 959 2388 959 1747 
Q 959 1106 1268 751 
Q 1578 397 2138 397 
Q 2388 397 2633 464 
Q 2878 531 3122 666 
L 3122 134 
Q 2881 22 2623 -34 
Q 2366 -91 2075 -91 
Q 1284 -91 818 406 
Q 353 903 353 1747 
Q 353 2603 823 3093 
Q 1294 3584 2113 3584 
Q 2378 3584 2631 3529 
Q 2884 3475 3122 3366 
z
" id="DejaVuSans-63" transform="scale(0.015625)"/>
       <path d="M 3328 2828 
Q 3544 3216 3844 3400 
Q 4144 3584 4550 3584 
Q 5097 3584 5394 3201 
Q 5691 2819 5691 2113 
L 5691 0 
L 5113 0 
L 5113 2094 
Q 5113 2597 4934 2840 
Q 4756 3084 4391 3084 
Q 3944 3084 3684 2787 
Q 3425 2491 3425 1978 
L 3425 0 
L 2847 0 
L 2847 2094 
Q 2847 2600 2669 2842 
Q 2491 3084 2119 3084 
Q 1678 3084 1418 2786 
Q 1159 2488 1159 1978 
L 1159 0 
L 581 0 
L 581 3500 
L 1159 3500 
L 1159 2956 
Q 1356 3278 1631 3431 
Q 1906 3584 2284 3584 
Q 2666 3584 2933 3390 
Q 3200 3197 3328 2828 
z
" id="DejaVuSans-6d" transform="scale(0.015625)"/>
       <path d="M 838 2444 
L 2163 2444 
L 2163 2088 
L 294 2088 
L 294 2431 
Q 400 2528 597 2703 
Q 1672 3656 1672 3950 
Q 1672 4156 1509 4282 
Q 1347 4409 1081 4409 
Q 919 4409 728 4354 
Q 538 4300 313 4191 
L 313 4575 
Q 553 4663 761 4706 
Q 969 4750 1147 4750 
Q 1600 4750 1872 4544 
Q 2144 4338 2144 4000 
Q 2144 3566 1109 2678 
Q 934 2528 838 2444 
z
" id="DejaVuSans-b2" transform="scale(0.015625)"/>
       <path d="M 513 4856 
L 1013 4856 
Q 1481 4119 1714 3412 
Q 1947 2706 1947 2009 
Q 1947 1309 1714 600 
Q 1481 -109 1013 -844 
L 513 -844 
Q 928 -128 1133 580 
Q 1338 1288 1338 2009 
Q 1338 2731 1133 3434 
Q 928 4138 513 4856 
z
" id="DejaVuSans-29" transform="scale(0.015625)"/>
      </defs>
      <use xlink:href="#DejaVuSans-65"/>
      <use x="59.773438" xlink:href="#DejaVuSans-78"/>
      <use x="118.953125" xlink:href="#DejaVuSans-70"/>
      <use x="182.429688" xlink:href="#DejaVuSans-6f"/>
      <use x="243.611328" xlink:href="#DejaVuSans-73"/>
      <use x="295.710938" xlink:href="#DejaVuSans-75"/>
      <use x="359.089844" xlink:href="#DejaVuSans-72"/>
      <use x="397.953125" xlink:href="#DejaVuSans-65"/>
      <use x="459.476562" xlink:href="#DejaVuSans-20"/>
      <use x="491.263672" xlink:href="#DejaVuSans-28"/>
      <use x="530.277344" xlink:href="#DejaVuSans-4a"/>
      <use x="559.769531" xlink:href="#DejaVuSans-2f"/>
      <use x="593.460938" xlink:href="#DejaVuSans-63"/>
      <use x="648.441406" xlink:href="#DejaVuSans-6d"/>
      <use x="745.853516" xlink:href="#DejaVuSans-b2"/>
      <use x="785.941406" xlink:href="#DejaVuSans-29"/>
     </g>
    </g>
   </g>
   <g id="matplotlib.axis_2">
    <g id="ytick_1">
     <g id="line2d_9">
      <defs>
       <path d="M 0 0 
L -3.5 0 
" id="m80e5d4881c" style="stroke:#000000;stroke-width:0.8;"/>
      </defs>
      <g>
       <use style="stroke:#000000;stroke-width:0.8;" x="99" xlink:href="#m80e5d4881c" y="434.421888"/>
      </g>
     </g>
     <g id="text_10">
      <!-- 0.0 -->
      <g transform="translate(76.096875 438.221107)scale(0.1 -0.1)">
       <defs>
        <path d="M 684 794 
L 1344 794 
L 1344 0 
L 684 0 
L 684 794 
z
" id="DejaVuSans-2e" transform="scale(0.015625)"/>
       </defs>
       <use xlink:href="#DejaVuSans-30"/>
       <use x="63.623047" xlink:href="#DejaVuSans-2e"/>
       <use x="95.410156" xlink:href="#DejaVuSans-30"/>
      </g>
     </g>
    </g>
    <g id="ytick_2">
     <g id="line2d_10">
      <g>
       <use style="stroke:#000000;stroke-width:0.8;" x="99" xlink:href="#m80e5d4881c" y="389.450383"/>
      </g>
     </g>
     <g id="text_11">
      <!-- 0.1 -->
      <g transform="translate(76.096875 393.249601)scale(0.1 -0.1)">
       <use xlink:href="#DejaVuSans-30"/>
       <use x="63.623047" xlink:href="#DejaVuSans-2e"/>
       <use x="95.410156" xlink:href="#DejaVuSans-31"/>
      </g>
     </g>
    </g>
    <g id="ytick_3">
     <g id="line2d_11">
      <g>
       <use style="stroke:#000000;stroke-width:0.8;" x="99" xlink:href="#m80e5d4881c" y="344.478878"/>
      </g>
     </g>
     <g id="text_12">
      <!-- 0.2 -->
      <g transform="translate(76.096875 348.278096)scale(0.1 -0.1)">
       <use xlink:href="#DejaVuSans-30"/>
       <use x="63.623047" xlink:href="#DejaVuSans-2e"/>
       <use x="95.410156" xlink:href="#DejaVuSans-32"/>
      </g>
     </g>
    </g>
    <g id="ytick_4">
     <g id="line2d_12">
      <g>
       <use style="stroke:#000000;stroke-width:0.8;" x="99" xlink:href="#m80e5d4881c" y="299.507372"/>
      </g>
     </g>
     <g id="text_13">
      <!-- 0.3 -->
      <g transform="translate(76.096875 303.306591)scale(0.1 -0.1)">
       <defs>
        <path d="M 2597 2516 
Q 3050 2419 3304 2112 
Q 3559 1806 3559 1356 
Q 3559 666 3084 287 
Q 2609 -91 1734 -91 
Q 1441 -91 1130 -33 
Q 819 25 488 141 
L 488 750 
Q 750 597 1062 519 
Q 1375 441 1716 441 
Q 2309 441 2620 675 
Q 2931 909 2931 1356 
Q 2931 1769 2642 2001 
Q 2353 2234 1838 2234 
L 1294 2234 
L 1294 2753 
L 1863 2753 
Q 2328 2753 2575 2939 
Q 2822 3125 2822 3475 
Q 2822 3834 2567 4026 
Q 2313 4219 1838 4219 
Q 1578 4219 1281 4162 
Q 984 4106 628 3988 
L 628 4550 
Q 988 4650 1302 4700 
Q 1616 4750 1894 4750 
Q 2613 4750 3031 4423 
Q 3450 4097 3450 3541 
Q 3450 3153 3228 2886 
Q 3006 2619 2597 2516 
z
" id="DejaVuSans-33" transform="scale(0.015625)"/>
       </defs>
       <use xlink:href="#DejaVuSans-30"/>
       <use x="63.623047" xlink:href="#DejaVuSans-2e"/>
       <use x="95.410156" xlink:href="#DejaVuSans-33"/>
      </g>
     </g>
    </g>
    <g id="ytick_5">
     <g id="line2d_13">
      <g>
       <use style="stroke:#000000;stroke-width:0.8;" x="99" xlink:href="#m80e5d4881c" y="254.535867"/>
      </g>
     </g>
     <g id="text_14">
      <!-- 0.4 -->
      <g transform="translate(76.096875 258.335086)scale(0.1 -0.1)">
       <use xlink:href="#DejaVuSans-30"/>
       <use x="63.623047" xlink:href="#DejaVuSans-2e"/>
       <use x="95.410156" xlink:href="#DejaVuSans-34"/>
      </g>
     </g>
    </g>
    <g id="ytick_6">
     <g id="line2d_14">
      <g>
       <use style="stroke:#000000;stroke-width:0.8;" x="99" xlink:href="#m80e5d4881c" y="209.564362"/>
      </g>
     </g>
     <g id="text_15">
      <!-- 0.5 -->
      <g transform="translate(76.096875 213.363581)scale(0.1 -0.1)">
       <defs>
        <path d="M 691 4666 
L 3169 4666 
L 3169 4134 
L 1269 4134 
L 1269 2991 
Q 1406 3038 1543 3061 
Q 1681 3084 1819 3084 
Q 2600 3084 3056 2656 
Q 3513 2228 3513 1497 
Q 3513 744 3044 326 
Q 2575 -91 1722 -91 
Q 1428 -91 1123 -41 
Q 819 9 494 109 
L 494 744 
Q 775 591 1075 516 
Q 1375 441 1709 441 
Q 2250 441 2565 725 
Q 2881 1009 2881 1497 
Q 2881 1984 2565 2268 
Q 2250 2553 1709 2553 
Q 1456 2553 1204 2497 
Q 953 2441 691 2322 
L 691 4666 
z
" id="DejaVuSans-35" transform="scale(0.015625)"/>
       </defs>
       <use xlink:href="#DejaVuSans-30"/>
       <use x="63.623047" xlink:href="#DejaVuSans-2e"/>
       <use x="95.410156" xlink:href="#DejaVuSans-35"/>
      </g>
     </g>
    </g>
    <g id="ytick_7">
     <g id="line2d_15">
      <g>
       <use style="stroke:#000000;stroke-width:0.8;" x="99" xlink:href="#m80e5d4881c" y="164.592857"/>
      </g>
     </g>
     <g id="text_16">
      <!-- 0.6 -->
      <g transform="translate(76.096875 168.392076)scale(0.1 -0.1)">
       <use xlink:href="#DejaVuSans-30"/>
       <use x="63.623047" xlink:href="#DejaVuSans-2e"/>
       <use x="95.410156" xlink:href="#DejaVuSans-36"/>
      </g>
     </g>
    </g>
    <g id="ytick_8">
     <g id="line2d_16">
      <g>
       <use style="stroke:#000000;stroke-width:0.8;" x="99" xlink:href="#m80e5d4881c" y="119.621352"/>
      </g>
     </g>
     <g id="text_17">
      <!-- 0.7 -->
      <g transform="translate(76.096875 123.42057)scale(0.1 -0.1)">
       <defs>
        <path d="M 525 4666 
L 3525 4666 
L 3525 4397 
L 1831 0 
L 1172 0 
L 2766 4134 
L 525 4134 
L 525 4666 
z
" id="DejaVuSans-37" transform="scale(0.015625)"/>
       </defs>
       <use xlink:href="#DejaVuSans-30"/>
       <use x="63.623047" xlink:href="#DejaVuSans-2e"/>
       <use x="95.410156" xlink:href="#DejaVuSans-37"/>
      </g>
     </g>
    </g>
    <g id="ytick_9">
     <g id="line2d_17">
      <g>
       <use style="stroke:#000000;stroke-width:0.8;" x="99" xlink:href="#m80e5d4881c" y="74.649847"/>
      </g>
     </g>
     <g id="text_18">
      <!-- 0.8 -->
      <g transform="translate(76.096875 78.449065)scale(0.1 -0.1)">
       <use xlink:href="#DejaVuSans-30"/>
       <use x="63.623047" xlink:href="#DejaVuSans-2e"/>
       <use x="95.410156" xlink:href="#DejaVuSans-38"/>
      </g>
     </g>
    </g>
    <g id="text_19">
     <!-- log10 -->
     <g transform="translate(70.017187 268.505156)rotate(-90)scale(0.1 -0.1)">
      <defs>
       <path d="M 603 4863 
L 1178 4863 
L 1178 0 
L 603 0 
L 603 4863 
z
" id="DejaVuSans-6c" transform="scale(0.015625)"/>
       <path d="M 2906 1791 
Q 2906 2416 2648 2759 
Q 2391 3103 1925 3103 
Q 1463 3103 1205 2759 
Q 947 2416 947 1791 
Q 947 1169 1205 825 
Q 1463 481 1925 481 
Q 2391 481 2648 825 
Q 2906 1169 2906 1791 
z
M 3481 434 
Q 3481 -459 3084 -895 
Q 2688 -1331 1869 -1331 
Q 1566 -1331 1297 -1286 
Q 1028 -1241 775 -1147 
L 775 -588 
Q 1028 -725 1275 -790 
Q 1522 -856 1778 -856 
Q 2344 -856 2625 -561 
Q 2906 -266 2906 331 
L 2906 616 
Q 2728 306 2450 153 
Q 2172 0 1784 0 
Q 1141 0 747 490 
Q 353 981 353 1791 
Q 353 2603 747 3093 
Q 1141 3584 1784 3584 
Q 2172 3584 2450 3431 
Q 2728 3278 2906 2969 
L 2906 3500 
L 3481 3500 
L 3481 434 
z
" id="DejaVuSans-67" transform="scale(0.015625)"/>
      </defs>
      <use xlink:href="#DejaVuSans-6c"/>
      <use x="27.783203" xlink:href="#DejaVuSans-6f"/>
      <use x="88.964844" xlink:href="#DejaVuSans-67"/>
      <use x="152.441406" xlink:href="#DejaVuSans-31"/>
      <use x="216.064453" xlink:href="#DejaVuSans-30"/>
     </g>
    </g>
   </g>
   <g id="line2d_18">
    <path clip-path="url(#pc23b6ad28b)" d="M 126.9 430.708084 
L 132.593878 429.178586 
L 138.287755 426.177811 
L 143.981633 421.566363 
L 149.67551 415.324005 
L 155.369388 407.528294 
L 161.063265 398.333966 
L 166.757143 387.949822 
L 172.45102 376.614994 
L 178.144898 364.577384 
L 183.838776 352.076354 
L 189.532653 339.330589 
L 195.226531 326.530948 
L 200.920408 313.837468 
L 206.614286 301.379417 
L 212.308163 289.257327 
L 218.002041 277.546135 
L 223.695918 266.298776 
L 229.389796 255.54981 
L 235.083673 245.318821 
L 240.777551 235.613453 
L 246.471429 226.432038 
L 252.165306 217.765817 
L 257.859184 209.600774 
L 263.553061 201.919132 
L 269.246939 194.700554 
L 274.940816 187.923096 
L 280.634694 181.563949 
L 286.328571 175.600013 
L 292.022449 170.00833 
L 297.716327 164.766406 
L 303.410204 159.852441 
L 309.104082 155.245494 
L 314.797959 150.925585 
L 320.491837 146.873762 
L 326.185714 143.072123 
L 331.879592 139.503829 
L 337.573469 136.153083 
L 343.267347 133.005107 
L 348.961224 130.046101 
L 354.655102 127.263202 
L 360.34898 124.644437 
L 366.042857 122.178672 
L 371.736735 119.855562 
L 377.430612 117.665501 
L 383.12449 115.599574 
L 388.818367 113.649511 
L 394.512245 111.807639 
L 400.206122 110.066841 
L 405.9 108.420518 
L 411.593878 106.862544 
L 417.287755 105.38724 
L 422.981633 103.989332 
L 428.67551 102.663925 
L 434.369388 101.406475 
L 440.063265 100.212759 
L 445.757143 99.078854 
L 451.45102 98.001109 
L 457.144898 96.976132 
L 462.838776 96.000764 
L 468.532653 95.072064 
L 474.226531 94.187291 
L 479.920408 93.343891 
L 485.614286 92.539483 
L 491.308163 91.771843 
L 497.002041 91.038895 
L 502.695918 90.3387 
L 508.389796 89.669447 
L 514.083673 89.029438 
L 519.777551 88.417088 
L 525.471429 87.830911 
L 531.165306 87.269514 
L 536.859184 86.731593 
L 542.553061 86.215924 
L 548.246939 85.721357 
L 553.940816 85.246813 
L 559.634694 84.791279 
L 565.328571 84.353801 
L 571.022449 83.933484 
L 576.716327 83.529482 
L 582.410204 83.141002 
L 588.104082 82.767294 
L 593.797959 82.407653 
L 599.491837 82.061413 
L 605.185714 81.727945 
L 610.879592 81.406657 
L 616.573469 81.096988 
L 622.267347 80.798408 
L 627.961224 80.510416 
L 633.655102 80.232539 
L 639.34898 79.964327 
L 645.042857 79.705357 
L 650.736735 79.455226 
L 656.430612 79.213551 
L 662.12449 78.979972 
L 667.818367 78.754145 
L 673.512245 78.535745 
L 679.206122 78.324461 
L 684.9 78.12 
" style="fill:none;stroke:#1f77b4;stroke-linecap:square;stroke-width:1.5;"/>
   </g>
   <g id="line2d_19">
    <path clip-path="url(#pc23b6ad28b)" d="M 126.9 430.92 
L 132.593878 427.419577 
L 138.287755 423.920598 
L 143.981633 420.423043 
L 149.67551 416.926893 
L 155.369388 413.432081 
L 161.063265 409.93859 
L 166.757143 406.446391 
L 172.45102 402.955465 
L 178.144898 399.465796 
L 183.838776 395.977356 
L 189.532653 392.490133 
L 195.226531 389.004104 
L 200.920408 385.519245 
L 206.614286 382.035545 
L 212.308163 378.552974 
L 218.002041 375.071517 
L 223.695918 371.591151 
L 229.389796 368.111857 
L 235.083673 364.633614 
L 240.777551 361.156404 
L 246.471429 357.680205 
L 252.165306 354.204994 
L 257.859184 350.730758 
L 263.553061 347.257485 
L 269.246939 343.78515 
L 274.940816 340.313725 
L 280.634694 336.843208 
L 286.328571 333.373596 
L 292.022449 329.90486 
L 297.716327 326.436966 
L 303.410204 322.969923 
L 309.104082 319.503725 
L 314.797959 316.038346 
L 320.491837 312.573753 
L 326.185714 309.109953 
L 331.879592 305.64694 
L 337.573469 302.184688 
L 343.267347 298.72317 
L 348.961224 295.26239 
L 354.655102 291.80234 
L 360.34898 288.342999 
L 366.042857 284.88434 
L 371.736735 281.426367 
L 377.430612 277.969074 
L 383.12449 274.512439 
L 388.818367 271.056438 
L 394.512245 267.601076 
L 400.206122 264.146347 
L 405.9 260.692224 
L 411.593878 257.238678 
L 417.287755 253.785714 
L 422.981633 250.333327 
L 428.67551 246.881517 
L 434.369388 243.430287 
L 440.063265 239.979596 
L 445.757143 236.529399 
L 451.45102 233.079727 
L 457.144898 229.63058 
L 462.838776 226.181962 
L 468.532653 222.733878 
L 474.226531 219.286295 
L 479.920408 215.83916 
L 485.614286 212.39251 
L 491.308163 208.94634 
L 497.002041 205.500647 
L 502.695918 202.055431 
L 508.389796 198.610674 
L 514.083673 195.166354 
L 519.777551 191.722474 
L 525.471429 188.279026 
L 531.165306 184.835998 
L 536.859184 181.393377 
L 542.553061 177.95116 
L 548.246939 174.509361 
L 553.940816 171.067951 
L 559.634694 167.626922 
L 565.328571 164.18626 
L 571.022449 160.745951 
L 576.716327 157.305993 
L 582.410204 153.866407 
L 588.104082 150.427164 
L 593.797959 146.988257 
L 599.491837 143.549679 
L 605.185714 140.111421 
L 610.879592 136.67348 
L 616.573469 133.235858 
L 622.267347 129.798544 
L 627.961224 126.361534 
L 633.655102 122.924824 
L 639.34898 119.48841 
L 645.042857 116.052286 
L 650.736735 112.616448 
L 656.430612 109.180891 
L 662.12449 105.745612 
L 667.818367 102.310605 
L 673.512245 98.875864 
L 679.206122 95.441389 
L 684.9 92.007201 
" style="fill:none;stroke:#ff7f0e;stroke-linecap:square;stroke-width:1.5;"/>
   </g>
   <g id="patch_3">
    <path d="M 99 448.56 
L 99 60.48 
" style="fill:none;stroke:#000000;stroke-linecap:square;stroke-linejoin:miter;stroke-width:0.8;"/>
   </g>
   <g id="patch_4">
    <path d="M 712.8 448.56 
L 712.8 60.48 
" style="fill:none;stroke:#000000;stroke-linecap:square;stroke-linejoin:miter;stroke-width:0.8;"/>
   </g>
   <g id="patch_5">
    <path d="M 99 448.56 
L 712.8 448.56 
" style="fill:none;stroke:#000000;stroke-linecap:square;stroke-linejoin:miter;stroke-width:0.8;"/>
   </g>
   <g id="patch_6">
    <path d="M 99 60.48 
L 712.8 60.48 
" style="fill:none;stroke:#000000;stroke-linecap:square;stroke-linejoin:miter;stroke-width:0.8;"/>
   </g>
   <g id="text_20">
    <!-- Cytoplasmic oxidation and inactivation of S_aureus via PDI -->
    <g transform="translate(229.618125 54.48)scale(0.12 -0.12)">
     <defs>
      <path d="M 4122 4306 
L 4122 3641 
Q 3803 3938 3442 4084 
Q 3081 4231 2675 4231 
Q 1875 4231 1450 3742 
Q 1025 3253 1025 2328 
Q 1025 1406 1450 917 
Q 1875 428 2675 428 
Q 3081 428 3442 575 
Q 3803 722 4122 1019 
L 4122 359 
Q 3791 134 3420 21 
Q 3050 -91 2638 -91 
Q 1578 -91 968 557 
Q 359 1206 359 2328 
Q 359 3453 968 4101 
Q 1578 4750 2638 4750 
Q 3056 4750 3426 4639 
Q 3797 4528 4122 4306 
z
" id="DejaVuSans-43" transform="scale(0.015625)"/>
      <path d="M 2059 -325 
Q 1816 -950 1584 -1140 
Q 1353 -1331 966 -1331 
L 506 -1331 
L 506 -850 
L 844 -850 
Q 1081 -850 1212 -737 
Q 1344 -625 1503 -206 
L 1606 56 
L 191 3500 
L 800 3500 
L 1894 763 
L 2988 3500 
L 3597 3500 
L 2059 -325 
z
" id="DejaVuSans-79" transform="scale(0.015625)"/>
      <path d="M 1172 4494 
L 1172 3500 
L 2356 3500 
L 2356 3053 
L 1172 3053 
L 1172 1153 
Q 1172 725 1289 603 
Q 1406 481 1766 481 
L 2356 481 
L 2356 0 
L 1766 0 
Q 1100 0 847 248 
Q 594 497 594 1153 
L 594 3053 
L 172 3053 
L 172 3500 
L 594 3500 
L 594 4494 
L 1172 4494 
z
" id="DejaVuSans-74" transform="scale(0.015625)"/>
      <path d="M 2194 1759 
Q 1497 1759 1228 1600 
Q 959 1441 959 1056 
Q 959 750 1161 570 
Q 1363 391 1709 391 
Q 2188 391 2477 730 
Q 2766 1069 2766 1631 
L 2766 1759 
L 2194 1759 
z
M 3341 1997 
L 3341 0 
L 2766 0 
L 2766 531 
Q 2569 213 2275 61 
Q 1981 -91 1556 -91 
Q 1019 -91 701 211 
Q 384 513 384 1019 
Q 384 1609 779 1909 
Q 1175 2209 1959 2209 
L 2766 2209 
L 2766 2266 
Q 2766 2663 2505 2880 
Q 2244 3097 1772 3097 
Q 1472 3097 1187 3025 
Q 903 2953 641 2809 
L 641 3341 
Q 956 3463 1253 3523 
Q 1550 3584 1831 3584 
Q 2591 3584 2966 3190 
Q 3341 2797 3341 1997 
z
" id="DejaVuSans-61" transform="scale(0.015625)"/>
      <path d="M 603 3500 
L 1178 3500 
L 1178 0 
L 603 0 
L 603 3500 
z
M 603 4863 
L 1178 4863 
L 1178 4134 
L 603 4134 
L 603 4863 
z
" id="DejaVuSans-69" transform="scale(0.015625)"/>
      <path d="M 2906 2969 
L 2906 4863 
L 3481 4863 
L 3481 0 
L 2906 0 
L 2906 525 
Q 2725 213 2448 61 
Q 2172 -91 1784 -91 
Q 1150 -91 751 415 
Q 353 922 353 1747 
Q 353 2572 751 3078 
Q 1150 3584 1784 3584 
Q 2172 3584 2448 3432 
Q 2725 3281 2906 2969 
z
M 947 1747 
Q 947 1113 1208 752 
Q 1469 391 1925 391 
Q 2381 391 2643 752 
Q 2906 1113 2906 1747 
Q 2906 2381 2643 2742 
Q 2381 3103 1925 3103 
Q 1469 3103 1208 2742 
Q 947 2381 947 1747 
z
" id="DejaVuSans-64" transform="scale(0.015625)"/>
      <path d="M 3513 2113 
L 3513 0 
L 2938 0 
L 2938 2094 
Q 2938 2591 2744 2837 
Q 2550 3084 2163 3084 
Q 1697 3084 1428 2787 
Q 1159 2491 1159 1978 
L 1159 0 
L 581 0 
L 581 3500 
L 1159 3500 
L 1159 2956 
Q 1366 3272 1645 3428 
Q 1925 3584 2291 3584 
Q 2894 3584 3203 3211 
Q 3513 2838 3513 2113 
z
" id="DejaVuSans-6e" transform="scale(0.015625)"/>
      <path d="M 191 3500 
L 800 3500 
L 1894 563 
L 2988 3500 
L 3597 3500 
L 2284 0 
L 1503 0 
L 191 3500 
z
" id="DejaVuSans-76" transform="scale(0.015625)"/>
      <path d="M 2375 4863 
L 2375 4384 
L 1825 4384 
Q 1516 4384 1395 4259 
Q 1275 4134 1275 3809 
L 1275 3500 
L 2222 3500 
L 2222 3053 
L 1275 3053 
L 1275 0 
L 697 0 
L 697 3053 
L 147 3053 
L 147 3500 
L 697 3500 
L 697 3744 
Q 697 4328 969 4595 
Q 1241 4863 1831 4863 
L 2375 4863 
z
" id="DejaVuSans-66" transform="scale(0.015625)"/>
      <path d="M 3425 4513 
L 3425 3897 
Q 3066 4069 2747 4153 
Q 2428 4238 2131 4238 
Q 1616 4238 1336 4038 
Q 1056 3838 1056 3469 
Q 1056 3159 1242 3001 
Q 1428 2844 1947 2747 
L 2328 2669 
Q 3034 2534 3370 2195 
Q 3706 1856 3706 1288 
Q 3706 609 3251 259 
Q 2797 -91 1919 -91 
Q 1588 -91 1214 -16 
Q 841 59 441 206 
L 441 856 
Q 825 641 1194 531 
Q 1563 422 1919 422 
Q 2459 422 2753 634 
Q 3047 847 3047 1241 
Q 3047 1584 2836 1778 
Q 2625 1972 2144 2069 
L 1759 2144 
Q 1053 2284 737 2584 
Q 422 2884 422 3419 
Q 422 4038 858 4394 
Q 1294 4750 2059 4750 
Q 2388 4750 2728 4690 
Q 3069 4631 3425 4513 
z
" id="DejaVuSans-53" transform="scale(0.015625)"/>
      <path d="M 3263 -1063 
L 3263 -1509 
L -63 -1509 
L -63 -1063 
L 3263 -1063 
z
" id="DejaVuSans-5f" transform="scale(0.015625)"/>
      <path d="M 1259 4147 
L 1259 2394 
L 2053 2394 
Q 2494 2394 2734 2622 
Q 2975 2850 2975 3272 
Q 2975 3691 2734 3919 
Q 2494 4147 2053 4147 
L 1259 4147 
z
M 628 4666 
L 2053 4666 
Q 2838 4666 3239 4311 
Q 3641 3956 3641 3272 
Q 3641 2581 3239 2228 
Q 2838 1875 2053 1875 
L 1259 1875 
L 1259 0 
L 628 0 
L 628 4666 
z
" id="DejaVuSans-50" transform="scale(0.015625)"/>
      <path d="M 1259 4147 
L 1259 519 
L 2022 519 
Q 2988 519 3436 956 
Q 3884 1394 3884 2338 
Q 3884 3275 3436 3711 
Q 2988 4147 2022 4147 
L 1259 4147 
z
M 628 4666 
L 1925 4666 
Q 3281 4666 3915 4102 
Q 4550 3538 4550 2338 
Q 4550 1131 3912 565 
Q 3275 0 1925 0 
L 628 0 
L 628 4666 
z
" id="DejaVuSans-44" transform="scale(0.015625)"/>
      <path d="M 628 4666 
L 1259 4666 
L 1259 0 
L 628 0 
L 628 4666 
z
" id="DejaVuSans-49" transform="scale(0.015625)"/>
     </defs>
     <use xlink:href="#DejaVuSans-43"/>
     <use x="69.824219" xlink:href="#DejaVuSans-79"/>
     <use x="129.003906" xlink:href="#DejaVuSans-74"/>
     <use x="168.212891" xlink:href="#DejaVuSans-6f"/>
     <use x="229.394531" xlink:href="#DejaVuSans-70"/>
     <use x="292.871094" xlink:href="#DejaVuSans-6c"/>
     <use x="320.654297" xlink:href="#DejaVuSans-61"/>
     <use x="381.933594" xlink:href="#DejaVuSans-73"/>
     <use x="434.033203" xlink:href="#DejaVuSans-6d"/>
     <use x="531.445312" xlink:href="#DejaVuSans-69"/>
     <use x="559.228516" xlink:href="#DejaVuSans-63"/>
     <use x="614.208984" xlink:href="#DejaVuSans-20"/>
     <use x="645.996094" xlink:href="#DejaVuSans-6f"/>
     <use x="704.052734" xlink:href="#DejaVuSans-78"/>
     <use x="763.232422" xlink:href="#DejaVuSans-69"/>
     <use x="791.015625" xlink:href="#DejaVuSans-64"/>
     <use x="854.492188" xlink:href="#DejaVuSans-61"/>
     <use x="915.771484" xlink:href="#DejaVuSans-74"/>
     <use x="954.980469" xlink:href="#DejaVuSans-69"/>
     <use x="982.763672" xlink:href="#DejaVuSans-6f"/>
     <use x="1043.945312" xlink:href="#DejaVuSans-6e"/>
     <use x="1107.324219" xlink:href="#DejaVuSans-20"/>
     <use x="1139.111328" xlink:href="#DejaVuSans-61"/>
     <use x="1200.390625" xlink:href="#DejaVuSans-6e"/>
     <use x="1263.769531" xlink:href="#DejaVuSans-64"/>
     <use x="1327.246094" xlink:href="#DejaVuSans-20"/>
     <use x="1359.033203" xlink:href="#DejaVuSans-69"/>
     <use x="1386.816406" xlink:href="#DejaVuSans-6e"/>
     <use x="1450.195312" xlink:href="#DejaVuSans-61"/>
     <use x="1511.474609" xlink:href="#DejaVuSans-63"/>
     <use x="1566.455078" xlink:href="#DejaVuSans-74"/>
     <use x="1605.664062" xlink:href="#DejaVuSans-69"/>
     <use x="1633.447266" xlink:href="#DejaVuSans-76"/>
     <use x="1692.626953" xlink:href="#DejaVuSans-61"/>
     <use x="1753.90625" xlink:href="#DejaVuSans-74"/>
     <use x="1793.115234" xlink:href="#DejaVuSans-69"/>
     <use x="1820.898438" xlink:href="#DejaVuSans-6f"/>
     <use x="1882.080078" xlink:href="#DejaVuSans-6e"/>
     <use x="1945.458984" xlink:href="#DejaVuSans-20"/>
     <use x="1977.246094" xlink:href="#DejaVuSans-6f"/>
     <use x="2038.427734" xlink:href="#DejaVuSans-66"/>
     <use x="2073.632812" xlink:href="#DejaVuSans-20"/>
     <use x="2105.419922" xlink:href="#DejaVuSans-53"/>
     <use x="2168.896484" xlink:href="#DejaVuSans-5f"/>
     <use x="2218.896484" xlink:href="#DejaVuSans-61"/>
     <use x="2280.175781" xlink:href="#DejaVuSans-75"/>
     <use x="2343.554688" xlink:href="#DejaVuSans-72"/>
     <use x="2382.417969" xlink:href="#DejaVuSans-65"/>
     <use x="2443.941406" xlink:href="#DejaVuSans-75"/>
     <use x="2507.320312" xlink:href="#DejaVuSans-73"/>
     <use x="2559.419922" xlink:href="#DejaVuSans-20"/>
     <use x="2591.207031" xlink:href="#DejaVuSans-76"/>
     <use x="2650.386719" xlink:href="#DejaVuSans-69"/>
     <use x="2678.169922" xlink:href="#DejaVuSans-61"/>
     <use x="2739.449219" xlink:href="#DejaVuSans-20"/>
     <use x="2771.236328" xlink:href="#DejaVuSans-50"/>
     <use x="2831.539062" xlink:href="#DejaVuSans-44"/>
     <use x="2908.541016" xlink:href="#DejaVuSans-49"/>
    </g>
   </g>
   <g id="legend_1">
    <g id="patch_7">
     <path d="M 360.492969 443.56 
L 451.307031 443.56 
Q 453.307031 443.56 453.307031 441.56 
L 453.307031 413.20375 
Q 453.307031 411.20375 451.307031 411.20375 
L 360.492969 411.20375 
Q 358.492969 411.20375 358.492969 413.20375 
L 358.492969 441.56 
Q 358.492969 443.56 360.492969 443.56 
z
" style="fill:#ffffff;opacity:0.8;stroke:#cccccc;stroke-linejoin:miter;"/>
    </g>
    <g id="line2d_20">
     <path d="M 362.492969 419.302188 
L 382.492969 419.302188 
" style="fill:none;stroke:#1f77b4;stroke-linecap:square;stroke-width:1.5;"/>
    </g>
    <g id="line2d_21"/>
    <g id="text_21">
     <!-- Inactivation -->
     <g transform="translate(390.492969 422.802188)scale(0.1 -0.1)">
      <use xlink:href="#DejaVuSans-49"/>
      <use x="29.492188" xlink:href="#DejaVuSans-6e"/>
      <use x="92.871094" xlink:href="#DejaVuSans-61"/>
      <use x="154.150391" xlink:href="#DejaVuSans-63"/>
      <use x="209.130859" xlink:href="#DejaVuSans-74"/>
      <use x="248.339844" xlink:href="#DejaVuSans-69"/>
      <use x="276.123047" xlink:href="#DejaVuSans-76"/>
      <use x="335.302734" xlink:href="#DejaVuSans-61"/>
      <use x="396.582031" xlink:href="#DejaVuSans-74"/>
      <use x="435.791016" xlink:href="#DejaVuSans-69"/>
      <use x="463.574219" xlink:href="#DejaVuSans-6f"/>
      <use x="524.755859" xlink:href="#DejaVuSans-6e"/>
     </g>
    </g>
    <g id="line2d_22">
     <path d="M 362.492969 433.980312 
L 382.492969 433.980312 
" style="fill:none;stroke:#ff7f0e;stroke-linecap:square;stroke-width:1.5;"/>
    </g>
    <g id="line2d_23"/>
    <g id="text_22">
     <!-- Oxidation -->
     <g transform="translate(390.492969 437.480312)scale(0.1 -0.1)">
      <defs>
       <path d="M 2522 4238 
Q 1834 4238 1429 3725 
Q 1025 3213 1025 2328 
Q 1025 1447 1429 934 
Q 1834 422 2522 422 
Q 3209 422 3611 934 
Q 4013 1447 4013 2328 
Q 4013 3213 3611 3725 
Q 3209 4238 2522 4238 
z
M 2522 4750 
Q 3503 4750 4090 4092 
Q 4678 3434 4678 2328 
Q 4678 1225 4090 567 
Q 3503 -91 2522 -91 
Q 1538 -91 948 565 
Q 359 1222 359 2328 
Q 359 3434 948 4092 
Q 1538 4750 2522 4750 
z
" id="DejaVuSans-4f" transform="scale(0.015625)"/>
      </defs>
      <use xlink:href="#DejaVuSans-4f"/>
      <use x="78.710938" xlink:href="#DejaVuSans-78"/>
      <use x="137.890625" xlink:href="#DejaVuSans-69"/>
      <use x="165.673828" xlink:href="#DejaVuSans-64"/>
      <use x="229.150391" xlink:href="#DejaVuSans-61"/>
      <use x="290.429688" xlink:href="#DejaVuSans-74"/>
      <use x="329.638672" xlink:href="#DejaVuSans-69"/>
      <use x="357.421875" xlink:href="#DejaVuSans-6f"/>
      <use x="418.603516" xlink:href="#DejaVuSans-6e"/>
     </g>
    </g>
   </g>
  </g>
  <g id="axes_2">
   <g id="matplotlib.axis_3">
    <g id="ytick_10">
     <g id="line2d_24">
      <defs>
       <path d="M 0 0 
L 3.5 0 
" id="md63edc362d" style="stroke:#000000;stroke-width:0.8;"/>
      </defs>
      <g>
       <use style="stroke:#000000;stroke-width:0.8;" x="712.8" xlink:href="#md63edc362d" y="448.56"/>
      </g>
     </g>
     <g id="text_23">
      <!-- 0.0 -->
      <g transform="translate(719.8 452.359219)scale(0.1 -0.1)">
       <use xlink:href="#DejaVuSans-30"/>
       <use x="63.623047" xlink:href="#DejaVuSans-2e"/>
       <use x="95.410156" xlink:href="#DejaVuSans-30"/>
      </g>
     </g>
    </g>
    <g id="ytick_11">
     <g id="line2d_25">
      <g>
       <use style="stroke:#000000;stroke-width:0.8;" x="712.8" xlink:href="#md63edc362d" y="374.64"/>
      </g>
     </g>
     <g id="text_24">
      <!-- 0.2 -->
      <g transform="translate(719.8 378.439219)scale(0.1 -0.1)">
       <use xlink:href="#DejaVuSans-30"/>
       <use x="63.623047" xlink:href="#DejaVuSans-2e"/>
       <use x="95.410156" xlink:href="#DejaVuSans-32"/>
      </g>
     </g>
    </g>
    <g id="ytick_12">
     <g id="line2d_26">
      <g>
       <use style="stroke:#000000;stroke-width:0.8;" x="712.8" xlink:href="#md63edc362d" y="300.72"/>
      </g>
     </g>
     <g id="text_25">
      <!-- 0.4 -->
      <g transform="translate(719.8 304.519219)scale(0.1 -0.1)">
       <use xlink:href="#DejaVuSans-30"/>
       <use x="63.623047" xlink:href="#DejaVuSans-2e"/>
       <use x="95.410156" xlink:href="#DejaVuSans-34"/>
      </g>
     </g>
    </g>
    <g id="ytick_13">
     <g id="line2d_27">
      <g>
       <use style="stroke:#000000;stroke-width:0.8;" x="712.8" xlink:href="#md63edc362d" y="226.8"/>
      </g>
     </g>
     <g id="text_26">
      <!-- 0.6 -->
      <g transform="translate(719.8 230.599219)scale(0.1 -0.1)">
       <use xlink:href="#DejaVuSans-30"/>
       <use x="63.623047" xlink:href="#DejaVuSans-2e"/>
       <use x="95.410156" xlink:href="#DejaVuSans-36"/>
      </g>
     </g>
    </g>
    <g id="ytick_14">
     <g id="line2d_28">
      <g>
       <use style="stroke:#000000;stroke-width:0.8;" x="712.8" xlink:href="#md63edc362d" y="152.88"/>
      </g>
     </g>
     <g id="text_27">
      <!-- 0.8 -->
      <g transform="translate(719.8 156.679219)scale(0.1 -0.1)">
       <use xlink:href="#DejaVuSans-30"/>
       <use x="63.623047" xlink:href="#DejaVuSans-2e"/>
       <use x="95.410156" xlink:href="#DejaVuSans-38"/>
      </g>
     </g>
    </g>
    <g id="ytick_15">
     <g id="line2d_29">
      <g>
       <use style="stroke:#000000;stroke-width:0.8;" x="712.8" xlink:href="#md63edc362d" y="78.96"/>
      </g>
     </g>
     <g id="text_28">
      <!-- 1.0 -->
      <g transform="translate(719.8 82.759219)scale(0.1 -0.1)">
       <use xlink:href="#DejaVuSans-31"/>
       <use x="63.623047" xlink:href="#DejaVuSans-2e"/>
       <use x="95.410156" xlink:href="#DejaVuSans-30"/>
      </g>
     </g>
    </g>
    <g id="text_29">
     <!-- Photosensitizer excitation proportion -->
     <g style="fill:#008000;" transform="translate(747.301563 346.553594)rotate(-90)scale(0.1 -0.1)">
      <defs>
       <path d="M 3513 2113 
L 3513 0 
L 2938 0 
L 2938 2094 
Q 2938 2591 2744 2837 
Q 2550 3084 2163 3084 
Q 1697 3084 1428 2787 
Q 1159 2491 1159 1978 
L 1159 0 
L 581 0 
L 581 4863 
L 1159 4863 
L 1159 2956 
Q 1366 3272 1645 3428 
Q 1925 3584 2291 3584 
Q 2894 3584 3203 3211 
Q 3513 2838 3513 2113 
z
" id="DejaVuSans-68" transform="scale(0.015625)"/>
       <path d="M 353 3500 
L 3084 3500 
L 3084 2975 
L 922 459 
L 3084 459 
L 3084 0 
L 275 0 
L 275 525 
L 2438 3041 
L 353 3041 
L 353 3500 
z
" id="DejaVuSans-7a" transform="scale(0.015625)"/>
      </defs>
      <use xlink:href="#DejaVuSans-50"/>
      <use x="60.302734" xlink:href="#DejaVuSans-68"/>
      <use x="123.681641" xlink:href="#DejaVuSans-6f"/>
      <use x="184.863281" xlink:href="#DejaVuSans-74"/>
      <use x="224.072266" xlink:href="#DejaVuSans-6f"/>
      <use x="285.253906" xlink:href="#DejaVuSans-73"/>
      <use x="337.353516" xlink:href="#DejaVuSans-65"/>
      <use x="398.876953" xlink:href="#DejaVuSans-6e"/>
      <use x="462.255859" xlink:href="#DejaVuSans-73"/>
      <use x="514.355469" xlink:href="#DejaVuSans-69"/>
      <use x="542.138672" xlink:href="#DejaVuSans-74"/>
      <use x="581.347656" xlink:href="#DejaVuSans-69"/>
      <use x="609.130859" xlink:href="#DejaVuSans-7a"/>
      <use x="661.621094" xlink:href="#DejaVuSans-65"/>
      <use x="723.144531" xlink:href="#DejaVuSans-72"/>
      <use x="764.257812" xlink:href="#DejaVuSans-20"/>
      <use x="796.044922" xlink:href="#DejaVuSans-65"/>
      <use x="855.818359" xlink:href="#DejaVuSans-78"/>
      <use x="913.248047" xlink:href="#DejaVuSans-63"/>
      <use x="968.228516" xlink:href="#DejaVuSans-69"/>
      <use x="996.011719" xlink:href="#DejaVuSans-74"/>
      <use x="1035.220703" xlink:href="#DejaVuSans-61"/>
      <use x="1096.5" xlink:href="#DejaVuSans-74"/>
      <use x="1135.708984" xlink:href="#DejaVuSans-69"/>
      <use x="1163.492188" xlink:href="#DejaVuSans-6f"/>
      <use x="1224.673828" xlink:href="#DejaVuSans-6e"/>
      <use x="1288.052734" xlink:href="#DejaVuSans-20"/>
      <use x="1319.839844" xlink:href="#DejaVuSans-70"/>
      <use x="1383.316406" xlink:href="#DejaVuSans-72"/>
      <use x="1422.179688" xlink:href="#DejaVuSans-6f"/>
      <use x="1483.361328" xlink:href="#DejaVuSans-70"/>
      <use x="1546.837891" xlink:href="#DejaVuSans-6f"/>
      <use x="1608.019531" xlink:href="#DejaVuSans-72"/>
      <use x="1649.132812" xlink:href="#DejaVuSans-74"/>
      <use x="1688.341797" xlink:href="#DejaVuSans-69"/>
      <use x="1716.125" xlink:href="#DejaVuSans-6f"/>
      <use x="1777.306641" xlink:href="#DejaVuSans-6e"/>
     </g>
    </g>
   </g>
   <g id="line2d_30">
    <path clip-path="url(#pc23b6ad28b)" d="M 126.9 82.45473 
L 132.593878 82.454714 
L 138.287755 82.454698 
L 143.981633 82.454683 
L 149.67551 82.454667 
L 155.369388 82.454652 
L 161.063265 82.454638 
L 166.757143 82.454623 
L 172.45102 82.454609 
L 178.144898 82.454595 
L 183.838776 82.454581 
L 189.532653 82.454568 
L 195.226531 82.454555 
L 200.920408 82.454542 
L 206.614286 82.454529 
L 212.308163 82.454517 
L 218.002041 82.454504 
L 223.695918 82.454492 
L 229.389796 82.45448 
L 235.083673 82.454469 
L 240.777551 82.454457 
L 246.471429 82.454446 
L 252.165306 82.454435 
L 257.859184 82.454424 
L 263.553061 82.454414 
L 269.246939 82.454403 
L 274.940816 82.454393 
L 280.634694 82.454383 
L 286.328571 82.454373 
L 292.022449 82.454363 
L 297.716327 82.454354 
L 303.410204 82.454344 
L 309.104082 82.454335 
L 314.797959 82.454326 
L 320.491837 82.454317 
L 326.185714 82.454309 
L 331.879592 82.4543 
L 337.573469 82.454292 
L 343.267347 82.454283 
L 348.961224 82.454275 
L 354.655102 82.454267 
L 360.34898 82.45426 
L 366.042857 82.454252 
L 371.736735 82.454244 
L 377.430612 82.454237 
L 383.12449 82.45423 
L 388.818367 82.454222 
L 394.512245 82.454215 
L 400.206122 82.454209 
L 405.9 82.454202 
L 411.593878 82.454195 
L 417.287755 82.454189 
L 422.981633 82.454182 
L 428.67551 82.454176 
L 434.369388 82.45417 
L 440.063265 82.454164 
L 445.757143 82.454158 
L 451.45102 82.454152 
L 457.144898 82.454146 
L 462.838776 82.45414 
L 468.532653 82.454135 
L 474.226531 82.454129 
L 479.920408 82.454124 
L 485.614286 82.454119 
L 491.308163 82.454113 
L 497.002041 82.454108 
L 502.695918 82.454103 
L 508.389796 82.454098 
L 514.083673 82.454093 
L 519.777551 82.454089 
L 525.471429 82.454084 
L 531.165306 82.454079 
L 536.859184 82.454075 
L 542.553061 82.454071 
L 548.246939 82.454066 
L 553.940816 82.454062 
L 559.634694 82.454058 
L 565.328571 82.454054 
L 571.022449 82.45405 
L 576.716327 82.454046 
L 582.410204 82.454042 
L 588.104082 82.454038 
L 593.797959 82.454034 
L 599.491837 82.45403 
L 605.185714 82.454027 
L 610.879592 82.454023 
L 616.573469 82.45402 
L 622.267347 82.454016 
L 627.961224 82.454013 
L 633.655102 82.45401 
L 639.34898 82.454006 
L 645.042857 82.454003 
L 650.736735 82.454 
L 656.430612 82.453997 
L 662.12449 82.453994 
L 667.818367 82.453991 
L 673.512245 82.453988 
L 679.206122 82.453985 
L 684.9 82.453982 
" style="fill:none;stroke:#008000;stroke-linecap:square;stroke-width:1.5;"/>
   </g>
   <g id="patch_8">
    <path d="M 99 448.56 
L 99 60.48 
" style="fill:none;stroke:#000000;stroke-linecap:square;stroke-linejoin:miter;stroke-width:0.8;"/>
   </g>
   <g id="patch_9">
    <path d="M 712.8 448.56 
L 712.8 60.48 
" style="fill:none;stroke:#000000;stroke-linecap:square;stroke-linejoin:miter;stroke-width:0.8;"/>
   </g>
   <g id="patch_10">
    <path d="M 99 448.56 
L 712.8 448.56 
" style="fill:none;stroke:#000000;stroke-linecap:square;stroke-linejoin:miter;stroke-width:0.8;"/>
   </g>
   <g id="patch_11">
    <path d="M 99 60.48 
L 712.8 60.48 
" style="fill:none;stroke:#000000;stroke-linecap:square;stroke-linejoin:miter;stroke-width:0.8;"/>
   </g>
   <g id="legend_2">
    <g id="patch_12">
     <path d="M 624.257812 443.56 
L 705.8 443.56 
Q 707.8 443.56 707.8 441.56 
L 707.8 427.881875 
Q 707.8 425.881875 705.8 425.881875 
L 624.257812 425.881875 
Q 622.257812 425.881875 622.257812 427.881875 
L 622.257812 441.56 
Q 622.257812 443.56 624.257812 443.56 
z
" style="fill:#ffffff;opacity:0.8;stroke:#cccccc;stroke-linejoin:miter;"/>
    </g>
    <g id="line2d_31">
     <path d="M 626.257812 433.980313 
L 646.257812 433.980313 
" style="fill:none;stroke:#008000;stroke-linecap:square;stroke-width:1.5;"/>
    </g>
    <g id="line2d_32"/>
    <g id="text_30">
     <!-- Excitation -->
     <g transform="translate(654.257812 437.480313)scale(0.1 -0.1)">
      <defs>
       <path d="M 628 4666 
L 3578 4666 
L 3578 4134 
L 1259 4134 
L 1259 2753 
L 3481 2753 
L 3481 2222 
L 1259 2222 
L 1259 531 
L 3634 531 
L 3634 0 
L 628 0 
L 628 4666 
z
" id="DejaVuSans-45" transform="scale(0.015625)"/>
      </defs>
      <use xlink:href="#DejaVuSans-45"/>
      <use x="63.183594" xlink:href="#DejaVuSans-78"/>
      <use x="120.613281" xlink:href="#DejaVuSans-63"/>
      <use x="175.59375" xlink:href="#DejaVuSans-69"/>
      <use x="203.376953" xlink:href="#DejaVuSans-74"/>
      <use x="242.585938" xlink:href="#DejaVuSans-61"/>
      <use x="303.865234" xlink:href="#DejaVuSans-74"/>
      <use x="343.074219" xlink:href="#DejaVuSans-69"/>
      <use x="370.857422" xlink:href="#DejaVuSans-6f"/>
      <use x="432.039062" xlink:href="#DejaVuSans-6e"/>
     </g>
    </g>
   </g>
  </g>
 </g>
 <defs>
  <clipPath id="pc23b6ad28b">
   <rect height="388.08" width="613.8" x="99" y="60.48"/>
  </clipPath>
 </defs>
</svg>
