<?xml version="1.0" encoding="utf-8" standalone="no"?>
<!DOCTYPE svg PUBLIC "-//W3C//DTD SVG 1.1//EN"
  "http://www.w3.org/Graphics/SVG/1.1/DTD/svg11.dtd">
<svg height="504pt" version="1.1" viewBox="0 0 792 504" width="792pt" xmlns="http://www.w3.org/2000/svg" xmlns:xlink="http://www.w3.org/1999/xlink">
 <metadata>
  <rdf:RDF xmlns:cc="http://creativecommons.org/ns#" xmlns:dc="http://purl.org/dc/elements/1.1/" xmlns:rdf="http://www.w3.org/1999/02/22-rdf-syntax-ns#">
   <cc:Work>
    <dc:type rdf:resource="http://purl.org/dc/dcmitype/StillImage"/>
    <dc:date>2022-02-02T02:49:37.224238</dc:date>
    <dc:format>image/svg+xml</dc:format>
    <dc:creator>
     <cc:Agent>
      <dc:title>Matplotlib v3.4.3, https://matplotlib.org/</dc:title>
     </cc:Agent>
    </dc:creator>
   </cc:Work>
  </rdf:RDF>
 </metadata>
 <defs>
  <style type="text/css">*{stroke-linecap:butt;stroke-linejoin:round;}</style>
 </defs>
 <g id="figure_1">
  <g id="patch_1">
   <path d="M 0 504 
L 792 504 
L 792 0 
L 0 0 
z
" style="fill:none;"/>
  </g>
  <g id="axes_1">
   <g id="patch_2">
    <path d="M 99 441 
L 712.8 441 
L 712.8 60.48 
L 99 60.48 
z
" style="fill:#ffffff;"/>
   </g>
   <g id="PathCollection_1">
    <defs>
     <path d="M 0 3 
C 0.795609 3 1.55874 2.683901 2.12132 2.12132 
C 2.683901 1.55874 3 0.795609 3 0 
C 3 -0.795609 2.683901 -1.55874 2.12132 -2.12132 
C 1.55874 -2.683901 0.795609 -3 0 -3 
C -0.795609 -3 -1.55874 -2.683901 -2.12132 -2.12132 
C -2.683901 -1.55874 -3 -0.795609 -3 0 
C -3 0.795609 -2.683901 1.55874 -2.12132 2.12132 
C -1.55874 2.683901 -0.795609 3 0 3 
z
" id="m68db4b06e0" style="stroke:#1f77b4;"/>
    </defs>
    <g clip-path="url(#pf8456548e6)">
     <use style="fill:#1f77b4;stroke:#1f77b4;" x="126.9" xlink:href="#m68db4b06e0" y="423.703636"/>
     <use style="fill:#1f77b4;stroke:#1f77b4;" x="132.593878" xlink:href="#m68db4b06e0" y="416.24696"/>
     <use style="fill:#1f77b4;stroke:#1f77b4;" x="138.287755" xlink:href="#m68db4b06e0" y="408.925731"/>
     <use style="fill:#1f77b4;stroke:#1f77b4;" x="143.981633" xlink:href="#m68db4b06e0" y="401.737394"/>
     <use style="fill:#1f77b4;stroke:#1f77b4;" x="149.67551" xlink:href="#m68db4b06e0" y="394.679451"/>
     <use style="fill:#1f77b4;stroke:#1f77b4;" x="155.369388" xlink:href="#m68db4b06e0" y="387.749354"/>
     <use style="fill:#1f77b4;stroke:#1f77b4;" x="161.063265" xlink:href="#m68db4b06e0" y="380.944711"/>
     <use style="fill:#1f77b4;stroke:#1f77b4;" x="166.757143" xlink:href="#m68db4b06e0" y="374.26315"/>
     <use style="fill:#1f77b4;stroke:#1f77b4;" x="172.45102" xlink:href="#m68db4b06e0" y="367.702368"/>
     <use style="fill:#1f77b4;stroke:#1f77b4;" x="178.144898" xlink:href="#m68db4b06e0" y="361.260111"/>
     <use style="fill:#1f77b4;stroke:#1f77b4;" x="183.838776" xlink:href="#m68db4b06e0" y="354.934146"/>
     <use style="fill:#1f77b4;stroke:#1f77b4;" x="189.532653" xlink:href="#m68db4b06e0" y="348.722315"/>
     <use style="fill:#1f77b4;stroke:#1f77b4;" x="195.226531" xlink:href="#m68db4b06e0" y="342.622483"/>
     <use style="fill:#1f77b4;stroke:#1f77b4;" x="200.920408" xlink:href="#m68db4b06e0" y="336.632554"/>
     <use style="fill:#1f77b4;stroke:#1f77b4;" x="206.614286" xlink:href="#m68db4b06e0" y="330.750493"/>
     <use style="fill:#1f77b4;stroke:#1f77b4;" x="212.308163" xlink:href="#m68db4b06e0" y="324.974274"/>
     <use style="fill:#1f77b4;stroke:#1f77b4;" x="218.002041" xlink:href="#m68db4b06e0" y="319.30194"/>
     <use style="fill:#1f77b4;stroke:#1f77b4;" x="223.695918" xlink:href="#m68db4b06e0" y="313.731551"/>
     <use style="fill:#1f77b4;stroke:#1f77b4;" x="229.389796" xlink:href="#m68db4b06e0" y="308.261217"/>
     <use style="fill:#1f77b4;stroke:#1f77b4;" x="235.083673" xlink:href="#m68db4b06e0" y="302.889079"/>
     <use style="fill:#1f77b4;stroke:#1f77b4;" x="240.777551" xlink:href="#m68db4b06e0" y="297.61332"/>
     <use style="fill:#1f77b4;stroke:#1f77b4;" x="246.471429" xlink:href="#m68db4b06e0" y="292.432151"/>
     <use style="fill:#1f77b4;stroke:#1f77b4;" x="252.165306" xlink:href="#m68db4b06e0" y="287.343816"/>
     <use style="fill:#1f77b4;stroke:#1f77b4;" x="257.859184" xlink:href="#m68db4b06e0" y="282.34661"/>
     <use style="fill:#1f77b4;stroke:#1f77b4;" x="263.553061" xlink:href="#m68db4b06e0" y="277.43886"/>
     <use style="fill:#1f77b4;stroke:#1f77b4;" x="269.246939" xlink:href="#m68db4b06e0" y="272.618905"/>
     <use style="fill:#1f77b4;stroke:#1f77b4;" x="274.940816" xlink:href="#m68db4b06e0" y="267.885114"/>
     <use style="fill:#1f77b4;stroke:#1f77b4;" x="280.634694" xlink:href="#m68db4b06e0" y="263.235926"/>
     <use style="fill:#1f77b4;stroke:#1f77b4;" x="286.328571" xlink:href="#m68db4b06e0" y="258.6698"/>
     <use style="fill:#1f77b4;stroke:#1f77b4;" x="292.022449" xlink:href="#m68db4b06e0" y="254.185197"/>
     <use style="fill:#1f77b4;stroke:#1f77b4;" x="297.716327" xlink:href="#m68db4b06e0" y="249.7806"/>
     <use style="fill:#1f77b4;stroke:#1f77b4;" x="303.410204" xlink:href="#m68db4b06e0" y="245.454571"/>
     <use style="fill:#1f77b4;stroke:#1f77b4;" x="309.104082" xlink:href="#m68db4b06e0" y="241.205687"/>
     <use style="fill:#1f77b4;stroke:#1f77b4;" x="314.797959" xlink:href="#m68db4b06e0" y="237.03252"/>
     <use style="fill:#1f77b4;stroke:#1f77b4;" x="320.491837" xlink:href="#m68db4b06e0" y="232.933667"/>
     <use style="fill:#1f77b4;stroke:#1f77b4;" x="326.185714" xlink:href="#m68db4b06e0" y="228.907796"/>
     <use style="fill:#1f77b4;stroke:#1f77b4;" x="331.879592" xlink:href="#m68db4b06e0" y="224.953585"/>
     <use style="fill:#1f77b4;stroke:#1f77b4;" x="337.573469" xlink:href="#m68db4b06e0" y="221.069715"/>
     <use style="fill:#1f77b4;stroke:#1f77b4;" x="343.267347" xlink:href="#m68db4b06e0" y="217.254889"/>
     <use style="fill:#1f77b4;stroke:#1f77b4;" x="348.961224" xlink:href="#m68db4b06e0" y="213.507871"/>
     <use style="fill:#1f77b4;stroke:#1f77b4;" x="354.655102" xlink:href="#m68db4b06e0" y="209.827433"/>
     <use style="fill:#1f77b4;stroke:#1f77b4;" x="360.34898" xlink:href="#m68db4b06e0" y="206.212357"/>
     <use style="fill:#1f77b4;stroke:#1f77b4;" x="366.042857" xlink:href="#m68db4b06e0" y="202.661442"/>
     <use style="fill:#1f77b4;stroke:#1f77b4;" x="371.736735" xlink:href="#m68db4b06e0" y="199.173542"/>
     <use style="fill:#1f77b4;stroke:#1f77b4;" x="377.430612" xlink:href="#m68db4b06e0" y="195.74752"/>
     <use style="fill:#1f77b4;stroke:#1f77b4;" x="383.12449" xlink:href="#m68db4b06e0" y="192.382245"/>
     <use style="fill:#1f77b4;stroke:#1f77b4;" x="388.818367" xlink:href="#m68db4b06e0" y="189.076608"/>
     <use style="fill:#1f77b4;stroke:#1f77b4;" x="394.512245" xlink:href="#m68db4b06e0" y="185.829544"/>
     <use style="fill:#1f77b4;stroke:#1f77b4;" x="400.206122" xlink:href="#m68db4b06e0" y="182.640002"/>
     <use style="fill:#1f77b4;stroke:#1f77b4;" x="405.9" xlink:href="#m68db4b06e0" y="179.506926"/>
     <use style="fill:#1f77b4;stroke:#1f77b4;" x="411.593878" xlink:href="#m68db4b06e0" y="176.429282"/>
     <use style="fill:#1f77b4;stroke:#1f77b4;" x="417.287755" xlink:href="#m68db4b06e0" y="173.406086"/>
     <use style="fill:#1f77b4;stroke:#1f77b4;" x="422.981633" xlink:href="#m68db4b06e0" y="170.436361"/>
     <use style="fill:#1f77b4;stroke:#1f77b4;" x="428.67551" xlink:href="#m68db4b06e0" y="167.519151"/>
     <use style="fill:#1f77b4;stroke:#1f77b4;" x="434.369388" xlink:href="#m68db4b06e0" y="164.653525"/>
     <use style="fill:#1f77b4;stroke:#1f77b4;" x="440.063265" xlink:href="#m68db4b06e0" y="161.838526"/>
     <use style="fill:#1f77b4;stroke:#1f77b4;" x="445.757143" xlink:href="#m68db4b06e0" y="159.073218"/>
     <use style="fill:#1f77b4;stroke:#1f77b4;" x="451.45102" xlink:href="#m68db4b06e0" y="156.356742"/>
     <use style="fill:#1f77b4;stroke:#1f77b4;" x="457.144898" xlink:href="#m68db4b06e0" y="153.688227"/>
     <use style="fill:#1f77b4;stroke:#1f77b4;" x="462.838776" xlink:href="#m68db4b06e0" y="151.066822"/>
     <use style="fill:#1f77b4;stroke:#1f77b4;" x="468.532653" xlink:href="#m68db4b06e0" y="148.491695"/>
     <use style="fill:#1f77b4;stroke:#1f77b4;" x="474.226531" xlink:href="#m68db4b06e0" y="145.961994"/>
     <use style="fill:#1f77b4;stroke:#1f77b4;" x="479.920408" xlink:href="#m68db4b06e0" y="143.476876"/>
     <use style="fill:#1f77b4;stroke:#1f77b4;" x="485.614286" xlink:href="#m68db4b06e0" y="141.035575"/>
     <use style="fill:#1f77b4;stroke:#1f77b4;" x="491.308163" xlink:href="#m68db4b06e0" y="138.63731"/>
     <use style="fill:#1f77b4;stroke:#1f77b4;" x="497.002041" xlink:href="#m68db4b06e0" y="136.281314"/>
     <use style="fill:#1f77b4;stroke:#1f77b4;" x="502.695918" xlink:href="#m68db4b06e0" y="133.966835"/>
     <use style="fill:#1f77b4;stroke:#1f77b4;" x="508.389796" xlink:href="#m68db4b06e0" y="131.693127"/>
     <use style="fill:#1f77b4;stroke:#1f77b4;" x="514.083673" xlink:href="#m68db4b06e0" y="129.45945"/>
     <use style="fill:#1f77b4;stroke:#1f77b4;" x="519.777551" xlink:href="#m68db4b06e0" y="127.265097"/>
     <use style="fill:#1f77b4;stroke:#1f77b4;" x="525.471429" xlink:href="#m68db4b06e0" y="125.109366"/>
     <use style="fill:#1f77b4;stroke:#1f77b4;" x="531.165306" xlink:href="#m68db4b06e0" y="122.991565"/>
     <use style="fill:#1f77b4;stroke:#1f77b4;" x="536.859184" xlink:href="#m68db4b06e0" y="120.911015"/>
     <use style="fill:#1f77b4;stroke:#1f77b4;" x="542.553061" xlink:href="#m68db4b06e0" y="118.867055"/>
     <use style="fill:#1f77b4;stroke:#1f77b4;" x="548.246939" xlink:href="#m68db4b06e0" y="116.859043"/>
     <use style="fill:#1f77b4;stroke:#1f77b4;" x="553.940816" xlink:href="#m68db4b06e0" y="114.88633"/>
     <use style="fill:#1f77b4;stroke:#1f77b4;" x="559.634694" xlink:href="#m68db4b06e0" y="112.948284"/>
     <use style="fill:#1f77b4;stroke:#1f77b4;" x="565.328571" xlink:href="#m68db4b06e0" y="111.044285"/>
     <use style="fill:#1f77b4;stroke:#1f77b4;" x="571.022449" xlink:href="#m68db4b06e0" y="109.173726"/>
     <use style="fill:#1f77b4;stroke:#1f77b4;" x="576.716327" xlink:href="#m68db4b06e0" y="107.336013"/>
     <use style="fill:#1f77b4;stroke:#1f77b4;" x="582.410204" xlink:href="#m68db4b06e0" y="105.530577"/>
     <use style="fill:#1f77b4;stroke:#1f77b4;" x="588.104082" xlink:href="#m68db4b06e0" y="103.756834"/>
     <use style="fill:#1f77b4;stroke:#1f77b4;" x="593.797959" xlink:href="#m68db4b06e0" y="102.014221"/>
     <use style="fill:#1f77b4;stroke:#1f77b4;" x="599.491837" xlink:href="#m68db4b06e0" y="100.302185"/>
     <use style="fill:#1f77b4;stroke:#1f77b4;" x="605.185714" xlink:href="#m68db4b06e0" y="98.620182"/>
     <use style="fill:#1f77b4;stroke:#1f77b4;" x="610.879592" xlink:href="#m68db4b06e0" y="96.967681"/>
     <use style="fill:#1f77b4;stroke:#1f77b4;" x="616.573469" xlink:href="#m68db4b06e0" y="95.344164"/>
     <use style="fill:#1f77b4;stroke:#1f77b4;" x="622.267347" xlink:href="#m68db4b06e0" y="93.749113"/>
     <use style="fill:#1f77b4;stroke:#1f77b4;" x="627.961224" xlink:href="#m68db4b06e0" y="92.182027"/>
     <use style="fill:#1f77b4;stroke:#1f77b4;" x="633.655102" xlink:href="#m68db4b06e0" y="90.642409"/>
     <use style="fill:#1f77b4;stroke:#1f77b4;" x="639.34898" xlink:href="#m68db4b06e0" y="89.129775"/>
     <use style="fill:#1f77b4;stroke:#1f77b4;" x="645.042857" xlink:href="#m68db4b06e0" y="87.643648"/>
     <use style="fill:#1f77b4;stroke:#1f77b4;" x="650.736735" xlink:href="#m68db4b06e0" y="86.183558"/>
     <use style="fill:#1f77b4;stroke:#1f77b4;" x="656.430612" xlink:href="#m68db4b06e0" y="84.749045"/>
     <use style="fill:#1f77b4;stroke:#1f77b4;" x="662.12449" xlink:href="#m68db4b06e0" y="83.339659"/>
     <use style="fill:#1f77b4;stroke:#1f77b4;" x="667.818367" xlink:href="#m68db4b06e0" y="81.954953"/>
     <use style="fill:#1f77b4;stroke:#1f77b4;" x="673.512245" xlink:href="#m68db4b06e0" y="80.594494"/>
     <use style="fill:#1f77b4;stroke:#1f77b4;" x="679.206122" xlink:href="#m68db4b06e0" y="79.257852"/>
     <use style="fill:#1f77b4;stroke:#1f77b4;" x="684.9" xlink:href="#m68db4b06e0" y="77.944619"/>
    </g>
   </g>
   <g id="matplotlib.axis_1">
    <g id="xtick_1">
     <g id="line2d_1">
      <defs>
       <path d="M 0 0 
L 0 3.5 
" id="m3bb8cf9246" style="stroke:#000000;stroke-width:0.8;"/>
      </defs>
      <g>
       <use style="stroke:#000000;stroke-width:0.8;" x="121.206122" xlink:href="#m3bb8cf9246" y="441"/>
      </g>
     </g>
     <g id="text_1">
      <!-- 0 -->
      <g transform="translate(118.024872 455.598437)scale(0.1 -0.1)">
       <defs>
        <path d="M 2034 4250 
Q 1547 4250 1301 3770 
Q 1056 3291 1056 2328 
Q 1056 1369 1301 889 
Q 1547 409 2034 409 
Q 2525 409 2770 889 
Q 3016 1369 3016 2328 
Q 3016 3291 2770 3770 
Q 2525 4250 2034 4250 
z
M 2034 4750 
Q 2819 4750 3233 4129 
Q 3647 3509 3647 2328 
Q 3647 1150 3233 529 
Q 2819 -91 2034 -91 
Q 1250 -91 836 529 
Q 422 1150 422 2328 
Q 422 3509 836 4129 
Q 1250 4750 2034 4750 
z
" id="DejaVuSans-30" transform="scale(0.015625)"/>
       </defs>
       <use xlink:href="#DejaVuSans-30"/>
      </g>
     </g>
    </g>
    <g id="xtick_2">
     <g id="line2d_2">
      <g>
       <use style="stroke:#000000;stroke-width:0.8;" x="199.496939" xlink:href="#m3bb8cf9246" y="441"/>
      </g>
     </g>
     <g id="text_2">
      <!-- 20 -->
      <g transform="translate(193.134439 455.598437)scale(0.1 -0.1)">
       <defs>
        <path d="M 1228 531 
L 3431 531 
L 3431 0 
L 469 0 
L 469 531 
Q 828 903 1448 1529 
Q 2069 2156 2228 2338 
Q 2531 2678 2651 2914 
Q 2772 3150 2772 3378 
Q 2772 3750 2511 3984 
Q 2250 4219 1831 4219 
Q 1534 4219 1204 4116 
Q 875 4013 500 3803 
L 500 4441 
Q 881 4594 1212 4672 
Q 1544 4750 1819 4750 
Q 2544 4750 2975 4387 
Q 3406 4025 3406 3419 
Q 3406 3131 3298 2873 
Q 3191 2616 2906 2266 
Q 2828 2175 2409 1742 
Q 1991 1309 1228 531 
z
" id="DejaVuSans-32" transform="scale(0.015625)"/>
       </defs>
       <use xlink:href="#DejaVuSans-32"/>
       <use x="63.623047" xlink:href="#DejaVuSans-30"/>
      </g>
     </g>
    </g>
    <g id="xtick_3">
     <g id="line2d_3">
      <g>
       <use style="stroke:#000000;stroke-width:0.8;" x="277.787755" xlink:href="#m3bb8cf9246" y="441"/>
      </g>
     </g>
     <g id="text_3">
      <!-- 40 -->
      <g transform="translate(271.425255 455.598437)scale(0.1 -0.1)">
       <defs>
        <path d="M 2419 4116 
L 825 1625 
L 2419 1625 
L 2419 4116 
z
M 2253 4666 
L 3047 4666 
L 3047 1625 
L 3713 1625 
L 3713 1100 
L 3047 1100 
L 3047 0 
L 2419 0 
L 2419 1100 
L 313 1100 
L 313 1709 
L 2253 4666 
z
" id="DejaVuSans-34" transform="scale(0.015625)"/>
       </defs>
       <use xlink:href="#DejaVuSans-34"/>
       <use x="63.623047" xlink:href="#DejaVuSans-30"/>
      </g>
     </g>
    </g>
    <g id="xtick_4">
     <g id="line2d_4">
      <g>
       <use style="stroke:#000000;stroke-width:0.8;" x="356.078571" xlink:href="#m3bb8cf9246" y="441"/>
      </g>
     </g>
     <g id="text_4">
      <!-- 60 -->
      <g transform="translate(349.716071 455.598437)scale(0.1 -0.1)">
       <defs>
        <path d="M 2113 2584 
Q 1688 2584 1439 2293 
Q 1191 2003 1191 1497 
Q 1191 994 1439 701 
Q 1688 409 2113 409 
Q 2538 409 2786 701 
Q 3034 994 3034 1497 
Q 3034 2003 2786 2293 
Q 2538 2584 2113 2584 
z
M 3366 4563 
L 3366 3988 
Q 3128 4100 2886 4159 
Q 2644 4219 2406 4219 
Q 1781 4219 1451 3797 
Q 1122 3375 1075 2522 
Q 1259 2794 1537 2939 
Q 1816 3084 2150 3084 
Q 2853 3084 3261 2657 
Q 3669 2231 3669 1497 
Q 3669 778 3244 343 
Q 2819 -91 2113 -91 
Q 1303 -91 875 529 
Q 447 1150 447 2328 
Q 447 3434 972 4092 
Q 1497 4750 2381 4750 
Q 2619 4750 2861 4703 
Q 3103 4656 3366 4563 
z
" id="DejaVuSans-36" transform="scale(0.015625)"/>
       </defs>
       <use xlink:href="#DejaVuSans-36"/>
       <use x="63.623047" xlink:href="#DejaVuSans-30"/>
      </g>
     </g>
    </g>
    <g id="xtick_5">
     <g id="line2d_5">
      <g>
       <use style="stroke:#000000;stroke-width:0.8;" x="434.369388" xlink:href="#m3bb8cf9246" y="441"/>
      </g>
     </g>
     <g id="text_5">
      <!-- 80 -->
      <g transform="translate(428.006888 455.598437)scale(0.1 -0.1)">
       <defs>
        <path d="M 2034 2216 
Q 1584 2216 1326 1975 
Q 1069 1734 1069 1313 
Q 1069 891 1326 650 
Q 1584 409 2034 409 
Q 2484 409 2743 651 
Q 3003 894 3003 1313 
Q 3003 1734 2745 1975 
Q 2488 2216 2034 2216 
z
M 1403 2484 
Q 997 2584 770 2862 
Q 544 3141 544 3541 
Q 544 4100 942 4425 
Q 1341 4750 2034 4750 
Q 2731 4750 3128 4425 
Q 3525 4100 3525 3541 
Q 3525 3141 3298 2862 
Q 3072 2584 2669 2484 
Q 3125 2378 3379 2068 
Q 3634 1759 3634 1313 
Q 3634 634 3220 271 
Q 2806 -91 2034 -91 
Q 1263 -91 848 271 
Q 434 634 434 1313 
Q 434 1759 690 2068 
Q 947 2378 1403 2484 
z
M 1172 3481 
Q 1172 3119 1398 2916 
Q 1625 2713 2034 2713 
Q 2441 2713 2670 2916 
Q 2900 3119 2900 3481 
Q 2900 3844 2670 4047 
Q 2441 4250 2034 4250 
Q 1625 4250 1398 4047 
Q 1172 3844 1172 3481 
z
" id="DejaVuSans-38" transform="scale(0.015625)"/>
       </defs>
       <use xlink:href="#DejaVuSans-38"/>
       <use x="63.623047" xlink:href="#DejaVuSans-30"/>
      </g>
     </g>
    </g>
    <g id="xtick_6">
     <g id="line2d_6">
      <g>
       <use style="stroke:#000000;stroke-width:0.8;" x="512.660204" xlink:href="#m3bb8cf9246" y="441"/>
      </g>
     </g>
     <g id="text_6">
      <!-- 100 -->
      <g transform="translate(503.116454 455.598437)scale(0.1 -0.1)">
       <defs>
        <path d="M 794 531 
L 1825 531 
L 1825 4091 
L 703 3866 
L 703 4441 
L 1819 4666 
L 2450 4666 
L 2450 531 
L 3481 531 
L 3481 0 
L 794 0 
L 794 531 
z
" id="DejaVuSans-31" transform="scale(0.015625)"/>
       </defs>
       <use xlink:href="#DejaVuSans-31"/>
       <use x="63.623047" xlink:href="#DejaVuSans-30"/>
       <use x="127.246094" xlink:href="#DejaVuSans-30"/>
      </g>
     </g>
    </g>
    <g id="xtick_7">
     <g id="line2d_7">
      <g>
       <use style="stroke:#000000;stroke-width:0.8;" x="590.95102" xlink:href="#m3bb8cf9246" y="441"/>
      </g>
     </g>
     <g id="text_7">
      <!-- 120 -->
      <g transform="translate(581.40727 455.598437)scale(0.1 -0.1)">
       <use xlink:href="#DejaVuSans-31"/>
       <use x="63.623047" xlink:href="#DejaVuSans-32"/>
       <use x="127.246094" xlink:href="#DejaVuSans-30"/>
      </g>
     </g>
    </g>
    <g id="xtick_8">
     <g id="line2d_8">
      <g>
       <use style="stroke:#000000;stroke-width:0.8;" x="669.241837" xlink:href="#m3bb8cf9246" y="441"/>
      </g>
     </g>
     <g id="text_8">
      <!-- 140 -->
      <g transform="translate(659.698087 455.598437)scale(0.1 -0.1)">
       <use xlink:href="#DejaVuSans-31"/>
       <use x="63.623047" xlink:href="#DejaVuSans-34"/>
       <use x="127.246094" xlink:href="#DejaVuSans-30"/>
      </g>
     </g>
    </g>
    <g id="text_9">
     <!-- exposure (J/cm²) -->
     <g transform="translate(364.650781 469.276563)scale(0.1 -0.1)">
      <defs>
       <path d="M 3597 1894 
L 3597 1613 
L 953 1613 
Q 991 1019 1311 708 
Q 1631 397 2203 397 
Q 2534 397 2845 478 
Q 3156 559 3463 722 
L 3463 178 
Q 3153 47 2828 -22 
Q 2503 -91 2169 -91 
Q 1331 -91 842 396 
Q 353 884 353 1716 
Q 353 2575 817 3079 
Q 1281 3584 2069 3584 
Q 2775 3584 3186 3129 
Q 3597 2675 3597 1894 
z
M 3022 2063 
Q 3016 2534 2758 2815 
Q 2500 3097 2075 3097 
Q 1594 3097 1305 2825 
Q 1016 2553 972 2059 
L 3022 2063 
z
" id="DejaVuSans-65" transform="scale(0.015625)"/>
       <path d="M 3513 3500 
L 2247 1797 
L 3578 0 
L 2900 0 
L 1881 1375 
L 863 0 
L 184 0 
L 1544 1831 
L 300 3500 
L 978 3500 
L 1906 2253 
L 2834 3500 
L 3513 3500 
z
" id="DejaVuSans-78" transform="scale(0.015625)"/>
       <path d="M 1159 525 
L 1159 -1331 
L 581 -1331 
L 581 3500 
L 1159 3500 
L 1159 2969 
Q 1341 3281 1617 3432 
Q 1894 3584 2278 3584 
Q 2916 3584 3314 3078 
Q 3713 2572 3713 1747 
Q 3713 922 3314 415 
Q 2916 -91 2278 -91 
Q 1894 -91 1617 61 
Q 1341 213 1159 525 
z
M 3116 1747 
Q 3116 2381 2855 2742 
Q 2594 3103 2138 3103 
Q 1681 3103 1420 2742 
Q 1159 2381 1159 1747 
Q 1159 1113 1420 752 
Q 1681 391 2138 391 
Q 2594 391 2855 752 
Q 3116 1113 3116 1747 
z
" id="DejaVuSans-70" transform="scale(0.015625)"/>
       <path d="M 1959 3097 
Q 1497 3097 1228 2736 
Q 959 2375 959 1747 
Q 959 1119 1226 758 
Q 1494 397 1959 397 
Q 2419 397 2687 759 
Q 2956 1122 2956 1747 
Q 2956 2369 2687 2733 
Q 2419 3097 1959 3097 
z
M 1959 3584 
Q 2709 3584 3137 3096 
Q 3566 2609 3566 1747 
Q 3566 888 3137 398 
Q 2709 -91 1959 -91 
Q 1206 -91 779 398 
Q 353 888 353 1747 
Q 353 2609 779 3096 
Q 1206 3584 1959 3584 
z
" id="DejaVuSans-6f" transform="scale(0.015625)"/>
       <path d="M 2834 3397 
L 2834 2853 
Q 2591 2978 2328 3040 
Q 2066 3103 1784 3103 
Q 1356 3103 1142 2972 
Q 928 2841 928 2578 
Q 928 2378 1081 2264 
Q 1234 2150 1697 2047 
L 1894 2003 
Q 2506 1872 2764 1633 
Q 3022 1394 3022 966 
Q 3022 478 2636 193 
Q 2250 -91 1575 -91 
Q 1294 -91 989 -36 
Q 684 19 347 128 
L 347 722 
Q 666 556 975 473 
Q 1284 391 1588 391 
Q 1994 391 2212 530 
Q 2431 669 2431 922 
Q 2431 1156 2273 1281 
Q 2116 1406 1581 1522 
L 1381 1569 
Q 847 1681 609 1914 
Q 372 2147 372 2553 
Q 372 3047 722 3315 
Q 1072 3584 1716 3584 
Q 2034 3584 2315 3537 
Q 2597 3491 2834 3397 
z
" id="DejaVuSans-73" transform="scale(0.015625)"/>
       <path d="M 544 1381 
L 544 3500 
L 1119 3500 
L 1119 1403 
Q 1119 906 1312 657 
Q 1506 409 1894 409 
Q 2359 409 2629 706 
Q 2900 1003 2900 1516 
L 2900 3500 
L 3475 3500 
L 3475 0 
L 2900 0 
L 2900 538 
Q 2691 219 2414 64 
Q 2138 -91 1772 -91 
Q 1169 -91 856 284 
Q 544 659 544 1381 
z
M 1991 3584 
L 1991 3584 
z
" id="DejaVuSans-75" transform="scale(0.015625)"/>
       <path d="M 2631 2963 
Q 2534 3019 2420 3045 
Q 2306 3072 2169 3072 
Q 1681 3072 1420 2755 
Q 1159 2438 1159 1844 
L 1159 0 
L 581 0 
L 581 3500 
L 1159 3500 
L 1159 2956 
Q 1341 3275 1631 3429 
Q 1922 3584 2338 3584 
Q 2397 3584 2469 3576 
Q 2541 3569 2628 3553 
L 2631 2963 
z
" id="DejaVuSans-72" transform="scale(0.015625)"/>
       <path id="DejaVuSans-20" transform="scale(0.015625)"/>
       <path d="M 1984 4856 
Q 1566 4138 1362 3434 
Q 1159 2731 1159 2009 
Q 1159 1288 1364 580 
Q 1569 -128 1984 -844 
L 1484 -844 
Q 1016 -109 783 600 
Q 550 1309 550 2009 
Q 550 2706 781 3412 
Q 1013 4119 1484 4856 
L 1984 4856 
z
" id="DejaVuSans-28" transform="scale(0.015625)"/>
       <path d="M 628 4666 
L 1259 4666 
L 1259 325 
Q 1259 -519 939 -900 
Q 619 -1281 -91 -1281 
L -331 -1281 
L -331 -750 
L -134 -750 
Q 284 -750 456 -515 
Q 628 -281 628 325 
L 628 4666 
z
" id="DejaVuSans-4a" transform="scale(0.015625)"/>
       <path d="M 1625 4666 
L 2156 4666 
L 531 -594 
L 0 -594 
L 1625 4666 
z
" id="DejaVuSans-2f" transform="scale(0.015625)"/>
       <path d="M 3122 3366 
L 3122 2828 
Q 2878 2963 2633 3030 
Q 2388 3097 2138 3097 
Q 1578 3097 1268 2742 
Q 959 2388 959 1747 
Q 959 1106 1268 751 
Q 1578 397 2138 397 
Q 2388 397 2633 464 
Q 2878 531 3122 666 
L 3122 134 
Q 2881 22 2623 -34 
Q 2366 -91 2075 -91 
Q 1284 -91 818 406 
Q 353 903 353 1747 
Q 353 2603 823 3093 
Q 1294 3584 2113 3584 
Q 2378 3584 2631 3529 
Q 2884 3475 3122 3366 
z
" id="DejaVuSans-63" transform="scale(0.015625)"/>
       <path d="M 3328 2828 
Q 3544 3216 3844 3400 
Q 4144 3584 4550 3584 
Q 5097 3584 5394 3201 
Q 5691 2819 5691 2113 
L 5691 0 
L 5113 0 
L 5113 2094 
Q 5113 2597 4934 2840 
Q 4756 3084 4391 3084 
Q 3944 3084 3684 2787 
Q 3425 2491 3425 1978 
L 3425 0 
L 2847 0 
L 2847 2094 
Q 2847 2600 2669 2842 
Q 2491 3084 2119 3084 
Q 1678 3084 1418 2786 
Q 1159 2488 1159 1978 
L 1159 0 
L 581 0 
L 581 3500 
L 1159 3500 
L 1159 2956 
Q 1356 3278 1631 3431 
Q 1906 3584 2284 3584 
Q 2666 3584 2933 3390 
Q 3200 3197 3328 2828 
z
" id="DejaVuSans-6d" transform="scale(0.015625)"/>
       <path d="M 838 2444 
L 2163 2444 
L 2163 2088 
L 294 2088 
L 294 2431 
Q 400 2528 597 2703 
Q 1672 3656 1672 3950 
Q 1672 4156 1509 4282 
Q 1347 4409 1081 4409 
Q 919 4409 728 4354 
Q 538 4300 313 4191 
L 313 4575 
Q 553 4663 761 4706 
Q 969 4750 1147 4750 
Q 1600 4750 1872 4544 
Q 2144 4338 2144 4000 
Q 2144 3566 1109 2678 
Q 934 2528 838 2444 
z
" id="DejaVuSans-b2" transform="scale(0.015625)"/>
       <path d="M 513 4856 
L 1013 4856 
Q 1481 4119 1714 3412 
Q 1947 2706 1947 2009 
Q 1947 1309 1714 600 
Q 1481 -109 1013 -844 
L 513 -844 
Q 928 -128 1133 580 
Q 1338 1288 1338 2009 
Q 1338 2731 1133 3434 
Q 928 4138 513 4856 
z
" id="DejaVuSans-29" transform="scale(0.015625)"/>
      </defs>
      <use xlink:href="#DejaVuSans-65"/>
      <use x="59.773438" xlink:href="#DejaVuSans-78"/>
      <use x="118.953125" xlink:href="#DejaVuSans-70"/>
      <use x="182.429688" xlink:href="#DejaVuSans-6f"/>
      <use x="243.611328" xlink:href="#DejaVuSans-73"/>
      <use x="295.710938" xlink:href="#DejaVuSans-75"/>
      <use x="359.089844" xlink:href="#DejaVuSans-72"/>
      <use x="397.953125" xlink:href="#DejaVuSans-65"/>
      <use x="459.476562" xlink:href="#DejaVuSans-20"/>
      <use x="491.263672" xlink:href="#DejaVuSans-28"/>
      <use x="530.277344" xlink:href="#DejaVuSans-4a"/>
      <use x="559.769531" xlink:href="#DejaVuSans-2f"/>
      <use x="593.460938" xlink:href="#DejaVuSans-63"/>
      <use x="648.441406" xlink:href="#DejaVuSans-6d"/>
      <use x="745.853516" xlink:href="#DejaVuSans-b2"/>
      <use x="785.941406" xlink:href="#DejaVuSans-29"/>
     </g>
    </g>
   </g>
   <g id="matplotlib.axis_2">
    <g id="ytick_1">
     <g id="line2d_9">
      <defs>
       <path d="M 0 0 
L -3.5 0 
" id="m20bea7d7f0" style="stroke:#000000;stroke-width:0.8;"/>
      </defs>
      <g>
       <use style="stroke:#000000;stroke-width:0.8;" x="99" xlink:href="#m20bea7d7f0" y="431.298365"/>
      </g>
     </g>
     <g id="text_10">
      <!-- 0.0 -->
      <g transform="translate(76.096875 435.097583)scale(0.1 -0.1)">
       <defs>
        <path d="M 684 794 
L 1344 794 
L 1344 0 
L 684 0 
L 684 794 
z
" id="DejaVuSans-2e" transform="scale(0.015625)"/>
       </defs>
       <use xlink:href="#DejaVuSans-30"/>
       <use x="63.623047" xlink:href="#DejaVuSans-2e"/>
       <use x="95.410156" xlink:href="#DejaVuSans-30"/>
      </g>
     </g>
    </g>
    <g id="ytick_2">
     <g id="line2d_10">
      <g>
       <use style="stroke:#000000;stroke-width:0.8;" x="99" xlink:href="#m20bea7d7f0" y="388.559854"/>
      </g>
     </g>
     <g id="text_11">
      <!-- 0.1 -->
      <g transform="translate(76.096875 392.359073)scale(0.1 -0.1)">
       <use xlink:href="#DejaVuSans-30"/>
       <use x="63.623047" xlink:href="#DejaVuSans-2e"/>
       <use x="95.410156" xlink:href="#DejaVuSans-31"/>
      </g>
     </g>
    </g>
    <g id="ytick_3">
     <g id="line2d_11">
      <g>
       <use style="stroke:#000000;stroke-width:0.8;" x="99" xlink:href="#m20bea7d7f0" y="345.821344"/>
      </g>
     </g>
     <g id="text_12">
      <!-- 0.2 -->
      <g transform="translate(76.096875 349.620563)scale(0.1 -0.1)">
       <use xlink:href="#DejaVuSans-30"/>
       <use x="63.623047" xlink:href="#DejaVuSans-2e"/>
       <use x="95.410156" xlink:href="#DejaVuSans-32"/>
      </g>
     </g>
    </g>
    <g id="ytick_4">
     <g id="line2d_12">
      <g>
       <use style="stroke:#000000;stroke-width:0.8;" x="99" xlink:href="#m20bea7d7f0" y="303.082834"/>
      </g>
     </g>
     <g id="text_13">
      <!-- 0.3 -->
      <g transform="translate(76.096875 306.882052)scale(0.1 -0.1)">
       <defs>
        <path d="M 2597 2516 
Q 3050 2419 3304 2112 
Q 3559 1806 3559 1356 
Q 3559 666 3084 287 
Q 2609 -91 1734 -91 
Q 1441 -91 1130 -33 
Q 819 25 488 141 
L 488 750 
Q 750 597 1062 519 
Q 1375 441 1716 441 
Q 2309 441 2620 675 
Q 2931 909 2931 1356 
Q 2931 1769 2642 2001 
Q 2353 2234 1838 2234 
L 1294 2234 
L 1294 2753 
L 1863 2753 
Q 2328 2753 2575 2939 
Q 2822 3125 2822 3475 
Q 2822 3834 2567 4026 
Q 2313 4219 1838 4219 
Q 1578 4219 1281 4162 
Q 984 4106 628 3988 
L 628 4550 
Q 988 4650 1302 4700 
Q 1616 4750 1894 4750 
Q 2613 4750 3031 4423 
Q 3450 4097 3450 3541 
Q 3450 3153 3228 2886 
Q 3006 2619 2597 2516 
z
" id="DejaVuSans-33" transform="scale(0.015625)"/>
       </defs>
       <use xlink:href="#DejaVuSans-30"/>
       <use x="63.623047" xlink:href="#DejaVuSans-2e"/>
       <use x="95.410156" xlink:href="#DejaVuSans-33"/>
      </g>
     </g>
    </g>
    <g id="ytick_5">
     <g id="line2d_13">
      <g>
       <use style="stroke:#000000;stroke-width:0.8;" x="99" xlink:href="#m20bea7d7f0" y="260.344323"/>
      </g>
     </g>
     <g id="text_14">
      <!-- 0.4 -->
      <g transform="translate(76.096875 264.143542)scale(0.1 -0.1)">
       <use xlink:href="#DejaVuSans-30"/>
       <use x="63.623047" xlink:href="#DejaVuSans-2e"/>
       <use x="95.410156" xlink:href="#DejaVuSans-34"/>
      </g>
     </g>
    </g>
    <g id="ytick_6">
     <g id="line2d_14">
      <g>
       <use style="stroke:#000000;stroke-width:0.8;" x="99" xlink:href="#m20bea7d7f0" y="217.605813"/>
      </g>
     </g>
     <g id="text_15">
      <!-- 0.5 -->
      <g transform="translate(76.096875 221.405031)scale(0.1 -0.1)">
       <defs>
        <path d="M 691 4666 
L 3169 4666 
L 3169 4134 
L 1269 4134 
L 1269 2991 
Q 1406 3038 1543 3061 
Q 1681 3084 1819 3084 
Q 2600 3084 3056 2656 
Q 3513 2228 3513 1497 
Q 3513 744 3044 326 
Q 2575 -91 1722 -91 
Q 1428 -91 1123 -41 
Q 819 9 494 109 
L 494 744 
Q 775 591 1075 516 
Q 1375 441 1709 441 
Q 2250 441 2565 725 
Q 2881 1009 2881 1497 
Q 2881 1984 2565 2268 
Q 2250 2553 1709 2553 
Q 1456 2553 1204 2497 
Q 953 2441 691 2322 
L 691 4666 
z
" id="DejaVuSans-35" transform="scale(0.015625)"/>
       </defs>
       <use xlink:href="#DejaVuSans-30"/>
       <use x="63.623047" xlink:href="#DejaVuSans-2e"/>
       <use x="95.410156" xlink:href="#DejaVuSans-35"/>
      </g>
     </g>
    </g>
    <g id="ytick_7">
     <g id="line2d_15">
      <g>
       <use style="stroke:#000000;stroke-width:0.8;" x="99" xlink:href="#m20bea7d7f0" y="174.867302"/>
      </g>
     </g>
     <g id="text_16">
      <!-- 0.6 -->
      <g transform="translate(76.096875 178.666521)scale(0.1 -0.1)">
       <use xlink:href="#DejaVuSans-30"/>
       <use x="63.623047" xlink:href="#DejaVuSans-2e"/>
       <use x="95.410156" xlink:href="#DejaVuSans-36"/>
      </g>
     </g>
    </g>
    <g id="ytick_8">
     <g id="line2d_16">
      <g>
       <use style="stroke:#000000;stroke-width:0.8;" x="99" xlink:href="#m20bea7d7f0" y="132.128792"/>
      </g>
     </g>
     <g id="text_17">
      <!-- 0.7 -->
      <g transform="translate(76.096875 135.928011)scale(0.1 -0.1)">
       <defs>
        <path d="M 525 4666 
L 3525 4666 
L 3525 4397 
L 1831 0 
L 1172 0 
L 2766 4134 
L 525 4134 
L 525 4666 
z
" id="DejaVuSans-37" transform="scale(0.015625)"/>
       </defs>
       <use xlink:href="#DejaVuSans-30"/>
       <use x="63.623047" xlink:href="#DejaVuSans-2e"/>
       <use x="95.410156" xlink:href="#DejaVuSans-37"/>
      </g>
     </g>
    </g>
    <g id="ytick_9">
     <g id="line2d_17">
      <g>
       <use style="stroke:#000000;stroke-width:0.8;" x="99" xlink:href="#m20bea7d7f0" y="89.390281"/>
      </g>
     </g>
     <g id="text_18">
      <!-- 0.8 -->
      <g transform="translate(76.096875 93.1895)scale(0.1 -0.1)">
       <use xlink:href="#DejaVuSans-30"/>
       <use x="63.623047" xlink:href="#DejaVuSans-2e"/>
       <use x="95.410156" xlink:href="#DejaVuSans-38"/>
      </g>
     </g>
    </g>
    <g id="text_19">
     <!-- oxidation proportion -->
     <g transform="translate(70.017187 301.439219)rotate(-90)scale(0.1 -0.1)">
      <defs>
       <path d="M 603 3500 
L 1178 3500 
L 1178 0 
L 603 0 
L 603 3500 
z
M 603 4863 
L 1178 4863 
L 1178 4134 
L 603 4134 
L 603 4863 
z
" id="DejaVuSans-69" transform="scale(0.015625)"/>
       <path d="M 2906 2969 
L 2906 4863 
L 3481 4863 
L 3481 0 
L 2906 0 
L 2906 525 
Q 2725 213 2448 61 
Q 2172 -91 1784 -91 
Q 1150 -91 751 415 
Q 353 922 353 1747 
Q 353 2572 751 3078 
Q 1150 3584 1784 3584 
Q 2172 3584 2448 3432 
Q 2725 3281 2906 2969 
z
M 947 1747 
Q 947 1113 1208 752 
Q 1469 391 1925 391 
Q 2381 391 2643 752 
Q 2906 1113 2906 1747 
Q 2906 2381 2643 2742 
Q 2381 3103 1925 3103 
Q 1469 3103 1208 2742 
Q 947 2381 947 1747 
z
" id="DejaVuSans-64" transform="scale(0.015625)"/>
       <path d="M 2194 1759 
Q 1497 1759 1228 1600 
Q 959 1441 959 1056 
Q 959 750 1161 570 
Q 1363 391 1709 391 
Q 2188 391 2477 730 
Q 2766 1069 2766 1631 
L 2766 1759 
L 2194 1759 
z
M 3341 1997 
L 3341 0 
L 2766 0 
L 2766 531 
Q 2569 213 2275 61 
Q 1981 -91 1556 -91 
Q 1019 -91 701 211 
Q 384 513 384 1019 
Q 384 1609 779 1909 
Q 1175 2209 1959 2209 
L 2766 2209 
L 2766 2266 
Q 2766 2663 2505 2880 
Q 2244 3097 1772 3097 
Q 1472 3097 1187 3025 
Q 903 2953 641 2809 
L 641 3341 
Q 956 3463 1253 3523 
Q 1550 3584 1831 3584 
Q 2591 3584 2966 3190 
Q 3341 2797 3341 1997 
z
" id="DejaVuSans-61" transform="scale(0.015625)"/>
       <path d="M 1172 4494 
L 1172 3500 
L 2356 3500 
L 2356 3053 
L 1172 3053 
L 1172 1153 
Q 1172 725 1289 603 
Q 1406 481 1766 481 
L 2356 481 
L 2356 0 
L 1766 0 
Q 1100 0 847 248 
Q 594 497 594 1153 
L 594 3053 
L 172 3053 
L 172 3500 
L 594 3500 
L 594 4494 
L 1172 4494 
z
" id="DejaVuSans-74" transform="scale(0.015625)"/>
       <path d="M 3513 2113 
L 3513 0 
L 2938 0 
L 2938 2094 
Q 2938 2591 2744 2837 
Q 2550 3084 2163 3084 
Q 1697 3084 1428 2787 
Q 1159 2491 1159 1978 
L 1159 0 
L 581 0 
L 581 3500 
L 1159 3500 
L 1159 2956 
Q 1366 3272 1645 3428 
Q 1925 3584 2291 3584 
Q 2894 3584 3203 3211 
Q 3513 2838 3513 2113 
z
" id="DejaVuSans-6e" transform="scale(0.015625)"/>
      </defs>
      <use xlink:href="#DejaVuSans-6f"/>
      <use x="58.056641" xlink:href="#DejaVuSans-78"/>
      <use x="117.236328" xlink:href="#DejaVuSans-69"/>
      <use x="145.019531" xlink:href="#DejaVuSans-64"/>
      <use x="208.496094" xlink:href="#DejaVuSans-61"/>
      <use x="269.775391" xlink:href="#DejaVuSans-74"/>
      <use x="308.984375" xlink:href="#DejaVuSans-69"/>
      <use x="336.767578" xlink:href="#DejaVuSans-6f"/>
      <use x="397.949219" xlink:href="#DejaVuSans-6e"/>
      <use x="461.328125" xlink:href="#DejaVuSans-20"/>
      <use x="493.115234" xlink:href="#DejaVuSans-70"/>
      <use x="556.591797" xlink:href="#DejaVuSans-72"/>
      <use x="595.455078" xlink:href="#DejaVuSans-6f"/>
      <use x="656.636719" xlink:href="#DejaVuSans-70"/>
      <use x="720.113281" xlink:href="#DejaVuSans-6f"/>
      <use x="781.294922" xlink:href="#DejaVuSans-72"/>
      <use x="822.408203" xlink:href="#DejaVuSans-74"/>
      <use x="861.617188" xlink:href="#DejaVuSans-69"/>
      <use x="889.400391" xlink:href="#DejaVuSans-6f"/>
      <use x="950.582031" xlink:href="#DejaVuSans-6e"/>
     </g>
    </g>
   </g>
   <g id="line2d_18">
    <path clip-path="url(#pf8456548e6)" d="M 126.9 419.513065 
L 127.173338 419.25726 
L 127.459798 418.987166 
L 127.76001 418.702001 
L 128.074634 418.400943 
L 128.404361 418.083126 
L 128.749917 417.74764 
L 129.112062 417.393529 
L 129.491592 417.019786 
L 129.889341 416.625354 
L 130.306185 416.209124 
L 130.743039 415.769929 
L 131.200865 415.306547 
L 131.680669 414.817693 
L 132.183507 414.302021 
L 132.710483 413.75812 
L 133.262757 413.184511 
L 133.841544 412.579646 
L 134.448116 411.941903 
L 135.083806 411.269587 
L 135.750013 410.560926 
L 136.448202 409.814068 
L 137.179908 409.027079 
L 137.94674 408.197942 
L 138.750385 407.324556 
L 139.592608 406.404729 
L 140.475264 405.436184 
L 141.400291 404.416549 
L 142.369726 403.343364 
L 143.385698 402.214076 
L 144.450443 401.026037 
L 145.566302 399.776509 
L 146.735728 398.462659 
L 147.961293 397.081563 
L 149.245693 395.630209 
L 150.591751 394.105494 
L 152.002427 392.504231 
L 153.480823 390.823152 
L 155.030191 389.058913 
L 156.653938 387.208095 
L 158.355633 385.267218 
L 160.13902 383.232742 
L 162.008019 381.10108 
L 163.966741 378.868605 
L 166.019492 376.531664 
L 168.170787 374.086587 
L 170.425356 371.529707 
L 172.788157 368.857369 
L 175.264387 366.065953 
L 177.859489 363.15189 
L 180.57917 360.111682 
L 183.429412 356.941927 
L 186.416482 353.63934 
L 189.546948 350.200778 
L 192.827693 346.623271 
L 196.265934 342.904044 
L 199.869229 339.040551 
L 203.645502 335.030505 
L 207.603058 330.871907 
L 211.7506 326.563079 
L 216.097246 322.1027 
L 220.652556 317.48983 
L 225.426547 312.723951 
L 230.429716 307.804992 
L 235.673066 302.733365 
L 241.168126 297.509986 
L 246.92698 292.136309 
L 252.962292 286.614343 
L 259.287333 280.946681 
L 265.916011 275.136507 
L 272.862903 269.18762 
L 280.143286 263.104434 
L 287.773168 256.891986 
L 295.769327 250.555935 
L 304.149348 244.102551 
L 312.931656 237.538707 
L 322.135565 230.871854 
L 331.781314 224.110003 
L 341.890113 217.261686 
L 352.484192 210.335925 
L 363.586846 203.342186 
L 375.222491 196.290334 
L 387.416712 189.190574 
L 400.196324 182.0534 
L 413.589431 174.889533 
L 427.625482 167.709855 
L 442.335343 160.525345 
L 457.75136 153.347011 
L 473.907433 146.185824 
L 490.839089 139.052649 
L 508.58356 131.958183 
L 527.179866 124.912888 
L 546.6689 117.926931 
L 567.093518 111.01013 
L 588.498633 104.171899 
L 610.931314 97.421204 
L 634.44089 90.766514 
L 659.07906 84.215773 
L 684.9 77.776364 
" style="fill:none;stroke:#1f77b4;stroke-linecap:square;stroke-width:1.5;"/>
   </g>
   <g id="patch_3">
    <path d="M 99 441 
L 99 60.48 
" style="fill:none;stroke:#000000;stroke-linecap:square;stroke-linejoin:miter;stroke-width:0.8;"/>
   </g>
   <g id="patch_4">
    <path d="M 712.8 441 
L 712.8 60.48 
" style="fill:none;stroke:#000000;stroke-linecap:square;stroke-linejoin:miter;stroke-width:0.8;"/>
   </g>
   <g id="patch_5">
    <path d="M 99 441 
L 712.8 441 
" style="fill:none;stroke:#000000;stroke-linecap:square;stroke-linejoin:miter;stroke-width:0.8;"/>
   </g>
   <g id="patch_6">
    <path d="M 99 60.48 
L 712.8 60.48 
" style="fill:none;stroke:#000000;stroke-linecap:square;stroke-linejoin:miter;stroke-width:0.8;"/>
   </g>
   <g id="text_20">
    <!-- R²: 0.99993 -->
    <g transform="translate(572.161224 183.832964)scale(0.1 -0.1)">
     <defs>
      <path d="M 2841 2188 
Q 3044 2119 3236 1894 
Q 3428 1669 3622 1275 
L 4263 0 
L 3584 0 
L 2988 1197 
Q 2756 1666 2539 1819 
Q 2322 1972 1947 1972 
L 1259 1972 
L 1259 0 
L 628 0 
L 628 4666 
L 2053 4666 
Q 2853 4666 3247 4331 
Q 3641 3997 3641 3322 
Q 3641 2881 3436 2590 
Q 3231 2300 2841 2188 
z
M 1259 4147 
L 1259 2491 
L 2053 2491 
Q 2509 2491 2742 2702 
Q 2975 2913 2975 3322 
Q 2975 3731 2742 3939 
Q 2509 4147 2053 4147 
L 1259 4147 
z
" id="DejaVuSans-52" transform="scale(0.015625)"/>
      <path d="M 750 794 
L 1409 794 
L 1409 0 
L 750 0 
L 750 794 
z
M 750 3309 
L 1409 3309 
L 1409 2516 
L 750 2516 
L 750 3309 
z
" id="DejaVuSans-3a" transform="scale(0.015625)"/>
      <path d="M 703 97 
L 703 672 
Q 941 559 1184 500 
Q 1428 441 1663 441 
Q 2288 441 2617 861 
Q 2947 1281 2994 2138 
Q 2813 1869 2534 1725 
Q 2256 1581 1919 1581 
Q 1219 1581 811 2004 
Q 403 2428 403 3163 
Q 403 3881 828 4315 
Q 1253 4750 1959 4750 
Q 2769 4750 3195 4129 
Q 3622 3509 3622 2328 
Q 3622 1225 3098 567 
Q 2575 -91 1691 -91 
Q 1453 -91 1209 -44 
Q 966 3 703 97 
z
M 1959 2075 
Q 2384 2075 2632 2365 
Q 2881 2656 2881 3163 
Q 2881 3666 2632 3958 
Q 2384 4250 1959 4250 
Q 1534 4250 1286 3958 
Q 1038 3666 1038 3163 
Q 1038 2656 1286 2365 
Q 1534 2075 1959 2075 
z
" id="DejaVuSans-39" transform="scale(0.015625)"/>
     </defs>
     <use xlink:href="#DejaVuSans-52"/>
     <use x="69.482422" xlink:href="#DejaVuSans-b2"/>
     <use x="109.570312" xlink:href="#DejaVuSans-3a"/>
     <use x="143.261719" xlink:href="#DejaVuSans-20"/>
     <use x="175.048828" xlink:href="#DejaVuSans-30"/>
     <use x="238.671875" xlink:href="#DejaVuSans-2e"/>
     <use x="270.458984" xlink:href="#DejaVuSans-39"/>
     <use x="334.082031" xlink:href="#DejaVuSans-39"/>
     <use x="397.705078" xlink:href="#DejaVuSans-39"/>
     <use x="461.328125" xlink:href="#DejaVuSans-39"/>
     <use x="524.951172" xlink:href="#DejaVuSans-33"/>
    </g>
   </g>
   <g id="text_21">
    <!-- Fitted Hill equation -->
    <g transform="translate(349.212188 54.48)scale(0.12 -0.12)">
     <defs>
      <path d="M 628 4666 
L 3309 4666 
L 3309 4134 
L 1259 4134 
L 1259 2759 
L 3109 2759 
L 3109 2228 
L 1259 2228 
L 1259 0 
L 628 0 
L 628 4666 
z
" id="DejaVuSans-46" transform="scale(0.015625)"/>
      <path d="M 628 4666 
L 1259 4666 
L 1259 2753 
L 3553 2753 
L 3553 4666 
L 4184 4666 
L 4184 0 
L 3553 0 
L 3553 2222 
L 1259 2222 
L 1259 0 
L 628 0 
L 628 4666 
z
" id="DejaVuSans-48" transform="scale(0.015625)"/>
      <path d="M 603 4863 
L 1178 4863 
L 1178 0 
L 603 0 
L 603 4863 
z
" id="DejaVuSans-6c" transform="scale(0.015625)"/>
      <path d="M 947 1747 
Q 947 1113 1208 752 
Q 1469 391 1925 391 
Q 2381 391 2643 752 
Q 2906 1113 2906 1747 
Q 2906 2381 2643 2742 
Q 2381 3103 1925 3103 
Q 1469 3103 1208 2742 
Q 947 2381 947 1747 
z
M 2906 525 
Q 2725 213 2448 61 
Q 2172 -91 1784 -91 
Q 1150 -91 751 415 
Q 353 922 353 1747 
Q 353 2572 751 3078 
Q 1150 3584 1784 3584 
Q 2172 3584 2448 3432 
Q 2725 3281 2906 2969 
L 2906 3500 
L 3481 3500 
L 3481 -1331 
L 2906 -1331 
L 2906 525 
z
" id="DejaVuSans-71" transform="scale(0.015625)"/>
     </defs>
     <use xlink:href="#DejaVuSans-46"/>
     <use x="50.269531" xlink:href="#DejaVuSans-69"/>
     <use x="78.052734" xlink:href="#DejaVuSans-74"/>
     <use x="117.261719" xlink:href="#DejaVuSans-74"/>
     <use x="156.470703" xlink:href="#DejaVuSans-65"/>
     <use x="217.994141" xlink:href="#DejaVuSans-64"/>
     <use x="281.470703" xlink:href="#DejaVuSans-20"/>
     <use x="313.257812" xlink:href="#DejaVuSans-48"/>
     <use x="388.453125" xlink:href="#DejaVuSans-69"/>
     <use x="416.236328" xlink:href="#DejaVuSans-6c"/>
     <use x="444.019531" xlink:href="#DejaVuSans-6c"/>
     <use x="471.802734" xlink:href="#DejaVuSans-20"/>
     <use x="503.589844" xlink:href="#DejaVuSans-65"/>
     <use x="565.113281" xlink:href="#DejaVuSans-71"/>
     <use x="628.589844" xlink:href="#DejaVuSans-75"/>
     <use x="691.96875" xlink:href="#DejaVuSans-61"/>
     <use x="753.248047" xlink:href="#DejaVuSans-74"/>
     <use x="792.457031" xlink:href="#DejaVuSans-69"/>
     <use x="820.240234" xlink:href="#DejaVuSans-6f"/>
     <use x="881.421875" xlink:href="#DejaVuSans-6e"/>
    </g>
   </g>
   <g id="legend_1">
    <g id="patch_7">
     <path d="M 627.857813 436 
L 705.8 436 
Q 707.8 436 707.8 434 
L 707.8 405.365625 
Q 707.8 403.365625 705.8 403.365625 
L 627.857813 403.365625 
Q 625.857813 403.365625 625.857813 405.365625 
L 625.857813 434 
Q 625.857813 436 627.857813 436 
z
" style="fill:#ffffff;opacity:0.8;stroke:#cccccc;stroke-linejoin:miter;"/>
    </g>
    <g id="line2d_19">
     <path d="M 629.857813 411.464063 
L 649.857813 411.464063 
" style="fill:none;stroke:#1f77b4;stroke-linecap:square;stroke-width:1.5;"/>
    </g>
    <g id="line2d_20"/>
    <g id="text_22">
     <!-- Hill fit -->
     <g transform="translate(657.857813 414.964063)scale(0.1 -0.1)">
      <defs>
       <path d="M 2375 4863 
L 2375 4384 
L 1825 4384 
Q 1516 4384 1395 4259 
Q 1275 4134 1275 3809 
L 1275 3500 
L 2222 3500 
L 2222 3053 
L 1275 3053 
L 1275 0 
L 697 0 
L 697 3053 
L 147 3053 
L 147 3500 
L 697 3500 
L 697 3744 
Q 697 4328 969 4595 
Q 1241 4863 1831 4863 
L 2375 4863 
z
" id="DejaVuSans-66" transform="scale(0.015625)"/>
      </defs>
      <use xlink:href="#DejaVuSans-48"/>
      <use x="75.195312" xlink:href="#DejaVuSans-69"/>
      <use x="102.978516" xlink:href="#DejaVuSans-6c"/>
      <use x="130.761719" xlink:href="#DejaVuSans-6c"/>
      <use x="158.544922" xlink:href="#DejaVuSans-20"/>
      <use x="190.332031" xlink:href="#DejaVuSans-66"/>
      <use x="225.537109" xlink:href="#DejaVuSans-69"/>
      <use x="253.320312" xlink:href="#DejaVuSans-74"/>
     </g>
    </g>
    <g id="PathCollection_2">
     <g>
      <use style="fill:#1f77b4;stroke:#1f77b4;" x="639.857813" xlink:href="#m68db4b06e0" y="427.017187"/>
     </g>
    </g>
    <g id="text_23">
     <!-- raw_data -->
     <g transform="translate(657.857813 429.642187)scale(0.1 -0.1)">
      <defs>
       <path d="M 269 3500 
L 844 3500 
L 1563 769 
L 2278 3500 
L 2956 3500 
L 3675 769 
L 4391 3500 
L 4966 3500 
L 4050 0 
L 3372 0 
L 2619 2869 
L 1863 0 
L 1184 0 
L 269 3500 
z
" id="DejaVuSans-77" transform="scale(0.015625)"/>
       <path d="M 3263 -1063 
L 3263 -1509 
L -63 -1509 
L -63 -1063 
L 3263 -1063 
z
" id="DejaVuSans-5f" transform="scale(0.015625)"/>
      </defs>
      <use xlink:href="#DejaVuSans-72"/>
      <use x="41.113281" xlink:href="#DejaVuSans-61"/>
      <use x="102.392578" xlink:href="#DejaVuSans-77"/>
      <use x="184.179688" xlink:href="#DejaVuSans-5f"/>
      <use x="234.179688" xlink:href="#DejaVuSans-64"/>
      <use x="297.65625" xlink:href="#DejaVuSans-61"/>
      <use x="358.935547" xlink:href="#DejaVuSans-74"/>
      <use x="398.144531" xlink:href="#DejaVuSans-61"/>
     </g>
    </g>
   </g>
  </g>
 </g>
 <defs>
  <clipPath id="pf8456548e6">
   <rect height="380.52" width="613.8" x="99" y="60.48"/>
  </clipPath>
 </defs>
</svg>
